<?xml version="1.0" encoding="UTF-8" standalone="no"?>
<svg
   viewBox="0 0 1440 720"
   version="1.1"
   id="svg1662"
   xmlns:xlink="http://www.w3.org/1999/xlink"
   xmlns="http://www.w3.org/2000/svg"
   xmlns:svg="http://www.w3.org/2000/svg">
  <defs
     id="defs1270">
    <style
       type="text/css"
       id="style1268">*{stroke-linejoin: round; stroke-linecap: butt}</style>
    <defs
       id="defs1626">
      <path
         id="m6ecfade0a3"
         d="M 0,3 C 0.795609,3 1.55874,2.683901 2.12132,2.12132 2.683901,1.55874 3,0.795609 3,0 3,-0.795609 2.683901,-1.55874 2.12132,-2.12132 1.55874,-2.683901 0.795609,-3 0,-3 -0.795609,-3 -1.55874,-2.683901 -2.12132,-2.12132 -2.683901,-1.55874 -3,-0.795609 -3,0 -3,0.795609 -2.683901,1.55874 -2.12132,2.12132 -1.55874,2.683901 -0.795609,3 0,3 Z"
         style="stroke:#ffffff" />
    </defs>
    <defs
       id="defs1279">
      <path
         id="m1edf044360"
         d="M 0,0 V 3.5"
         style="stroke:#ffffff;stroke-width:0.8" />
    </defs>
    <defs
       id="defs1452">
      <path
         id="mee51765c35"
         d="M 0,0 H -3.5"
         style="stroke:#ffffff;stroke-width:0.8" />
    </defs>
    <defs
       id="defs1393">
      <path
         id="DejaVuSans-56"
         d="M 1831,0 50,4666 H 709 L 2188,738 3669,4666 h 656 L 2547,0 Z"
         transform="scale(0.015625)" />
      <path
         id="DejaVuSans-6f"
         d="m 1959,3097 q -462,0 -731,-361 -269,-361 -269,-989 0,-628 267,-989 268,-361 733,-361 460,0 728,362 269,363 269,988 0,622 -269,986 -268,364 -728,364 z m 0,487 q 750,0 1178,-488 429,-487 429,-1349 Q 3566,888 3137,398 2709,-91 1959,-91 1206,-91 779,398 353,888 353,1747 q 0,862 426,1349 427,488 1180,488 z"
         transform="scale(0.015625)" />
      <path
         id="DejaVuSans-6c"
         d="m 603,4863 h 575 V 0 H 603 Z"
         transform="scale(0.015625)" />
      <path
         id="DejaVuSans-74"
         d="M 1172,4494 V 3500 H 2356 V 3053 H 1172 V 1153 q 0,-428 117,-550 117,-122 477,-122 h 590 V 0 H 1766 Q 1100,0 847,248 594,497 594,1153 V 3053 H 172 v 447 h 422 v 994 z"
         transform="scale(0.015625)" />
      <path
         id="DejaVuSans-61"
         d="m 2194,1759 q -697,0 -966,-159 -269,-159 -269,-544 0,-306 202,-486 202,-179 548,-179 479,0 768,339 289,339 289,901 v 128 z m 1147,238 V 0 H 2766 V 531 Q 2569,213 2275,61 1981,-91 1556,-91 q -537,0 -855,302 -317,302 -317,808 0,590 395,890 396,300 1180,300 h 807 v 57 q 0,397 -261,614 -261,217 -733,217 -300,0 -585,-72 -284,-72 -546,-216 v 532 q 315,122 612,182 297,61 578,61 760,0 1135,-394 375,-393 375,-1193 z"
         transform="scale(0.015625)" />
      <path
         id="DejaVuSans-67"
         d="m 2906,1791 q 0,625 -258,968 -257,344 -723,344 -462,0 -720,-344 -258,-343 -258,-968 0,-622 258,-966 258,-344 720,-344 466,0 723,344 258,344 258,966 z M 3481,434 q 0,-893 -397,-1329 -396,-436 -1215,-436 -303,0 -572,45 -269,45 -522,139 v 559 q 253,-137 500,-202 247,-66 503,-66 566,0 847,295 281,295 281,892 V 616 Q 2728,306 2450,153 2172,0 1784,0 1141,0 747,490 353,981 353,1791 q 0,812 394,1302 394,491 1037,491 388,0 666,-153 278,-153 456,-462 v 531 h 575 z"
         transform="scale(0.015625)" />
      <path
         id="DejaVuSans-65"
         d="M 3597,1894 V 1613 H 953 q 38,-594 358,-905 320,-311 892,-311 331,0 642,81 311,81 618,244 V 178 Q 3153,47 2828,-22 2503,-91 2169,-91 1331,-91 842,396 353,884 353,1716 q 0,859 464,1363 464,505 1252,505 706,0 1117,-455 411,-454 411,-1235 z m -575,169 q -6,471 -264,752 -258,282 -683,282 -481,0 -770,-272 -289,-272 -333,-766 z"
         transform="scale(0.015625)" />
      <path
         id="DejaVuSans-20"
         transform="scale(0.015625)"
         d="" />
      <path
         id="DejaVuSans-42"
         d="M 1259,2228 V 519 h 1013 q 509,0 754,211 246,211 246,645 0,438 -246,645 -245,208 -754,208 z m 0,1919 V 2741 h 935 q 462,0 688,173 227,174 227,530 0,353 -227,528 -226,175 -688,175 z m -631,519 h 1613 q 722,0 1112,-300 391,-300 391,-853 0,-429 -200,-682 -200,-253 -588,-315 466,-100 724,-418 258,-317 258,-792 0,-625 -425,-966 Q 3088,0 2303,0 H 628 Z"
         transform="scale(0.015625)" />
      <path
         id="DejaVuSans-77"
         d="m 269,3500 h 575 l 719,-2731 715,2731 h 678 l 719,-2731 716,2731 h 575 L 4050,0 H 3372 L 2619,2869 1863,0 h -679 z"
         transform="scale(0.015625)" />
      <path
         id="DejaVuSans-4e"
         d="m 628,4666 h 850 L 3547,763 v 3903 h 612 V 0 H 3309 L 1241,3903 V 0 H 628 Z"
         transform="scale(0.015625)" />
      <path
         id="DejaVuSans-6d"
         d="m 3328,2828 q 216,388 516,572 300,184 706,184 547,0 844,-383 297,-382 297,-1088 V 0 h -578 v 2094 q 0,503 -179,746 -178,244 -543,244 -447,0 -707,-297 -259,-296 -259,-809 V 0 h -578 v 2094 q 0,506 -178,748 -178,242 -550,242 -441,0 -701,-298 -259,-298 -259,-808 V 0 H 581 v 3500 h 578 v -544 q 197,322 472,475 275,153 653,153 382,0 649,-194 267,-193 395,-562 z"
         transform="scale(0.015625)" />
      <path
         id="DejaVuSans-69"
         d="m 603,3500 h 575 V 0 H 603 Z m 0,1363 h 575 V 4134 H 603 Z"
         transform="scale(0.015625)" />
      <path
         id="DejaVuSans-6e"
         d="M 3513,2113 V 0 h -575 v 2094 q 0,497 -194,743 -194,247 -581,247 -466,0 -735,-297 -269,-296 -269,-809 V 0 H 581 v 3500 h 578 v -544 q 207,316 486,472 280,156 646,156 603,0 912,-373 310,-373 310,-1098 z"
         transform="scale(0.015625)" />
      <path
         id="DejaVuSans-28"
         d="m 1984,4856 q -418,-718 -622,-1422 -203,-703 -203,-1425 0,-721 205,-1429 205,-708 620,-1424 h -500 q -468,735 -701,1444 -233,709 -233,1409 0,697 231,1403 232,707 703,1444 z"
         transform="scale(0.015625)" />
      <path
         id="DejaVuSans-29"
         d="m 513,4856 h 500 q 468,-737 701,-1444 233,-706 233,-1403 0,-700 -233,-1409 -233,-709 -701,-1444 H 513 q 415,716 620,1424 205,708 205,1429 0,722 -205,1425 -205,704 -620,1422 z"
         transform="scale(0.015625)" />
    </defs>
    <defs
       id="defs1575">
      <path
         id="DejaVuSans-50"
         d="M 1259,4147 V 2394 h 794 q 441,0 681,228 241,228 241,650 0,419 -241,647 -240,228 -681,228 z m -631,519 h 1425 q 785,0 1186,-355 402,-355 402,-1039 0,-691 -402,-1044 -401,-353 -1186,-353 H 1259 V 0 H 628 Z"
         transform="scale(0.015625)" />
      <path
         id="DejaVuSans-72"
         d="m 2631,2963 q -97,56 -211,82 -114,27 -251,27 -488,0 -749,-317 -261,-317 -261,-911 V 0 H 581 v 3500 h 578 v -544 q 182,319 472,473 291,155 707,155 59,0 131,-8 72,-7 159,-23 z"
         transform="scale(0.015625)" />
      <path
         id="DejaVuSans-43"
         d="m 4122,4306 v -665 q -319,297 -680,443 -361,147 -767,147 -800,0 -1225,-489 -425,-489 -425,-1414 0,-922 425,-1411 425,-489 1225,-489 406,0 767,147 361,147 680,444 V 359 Q 3791,134 3420,21 3050,-91 2638,-91 1578,-91 968,557 359,1206 359,2328 q 0,1125 609,1773 610,649 1670,649 418,0 788,-111 371,-111 696,-333 z"
         transform="scale(0.015625)" />
      <path
         id="DejaVuSans-73"
         d="m 2834,3397 v -544 q -243,125 -506,187 -262,63 -544,63 -428,0 -642,-131 -214,-131 -214,-394 0,-200 153,-314 153,-114 616,-217 l 197,-44 q 612,-131 870,-370 258,-239 258,-667 0,-488 -386,-773 Q 2250,-91 1575,-91 1294,-91 989,-36 684,19 347,128 v 594 q 319,-166 628,-249 309,-82 613,-82 406,0 624,139 219,139 219,392 0,234 -158,359 -157,125 -692,241 l -200,47 q -534,112 -772,345 -237,233 -237,639 0,494 350,762 350,269 994,269 318,0 599,-47 282,-46 519,-140 z"
         transform="scale(0.015625)" />
      <path
         id="DejaVuSans-75"
         d="m 544,1381 v 2119 h 575 V 1403 q 0,-497 193,-746 194,-248 582,-248 465,0 735,297 271,297 271,810 v 1984 h 575 V 0 H 2900 V 538 Q 2691,219 2414,64 2138,-91 1772,-91 1169,-91 856,284 544,659 544,1381 Z m 1447,2203 z"
         transform="scale(0.015625)" />
      <path
         id="DejaVuSans-70"
         d="M 1159,525 V -1331 H 581 v 4831 h 578 v -531 q 182,312 458,463 277,152 661,152 638,0 1036,-506 399,-506 399,-1331 0,-825 -399,-1332 -398,-506 -1036,-506 -384,0 -661,152 -276,152 -458,464 z m 1957,1222 q 0,634 -261,995 -261,361 -717,361 -457,0 -718,-361 -261,-361 -261,-995 0,-634 261,-995 261,-361 718,-361 456,0 717,361 261,361 261,995 z"
         transform="scale(0.015625)" />
      <path
         id="DejaVuSans-57"
         d="m 213,4666 h 637 l 981,-3944 978,3944 h 710 l 981,-3944 978,3944 h 641 L 4947,0 H 4153 L 3169,4050 2175,0 h -794 z"
         transform="scale(0.015625)" />
    </defs>
    <defs
       id="defs1317">
      <path
         id="DejaVuSans-34"
         d="M 2419,4116 825,1625 h 1594 z m -166,550 h 794 V 1625 h 666 V 1100 H 3047 V 0 H 2419 V 1100 H 313 v 609 z"
         transform="scale(0.015625)" />
    </defs>
    <defs
       id="defs1490">
      <path
         id="DejaVuSans-37"
         d="M 525,4666 H 3525 V 4397 L 1831,0 H 1172 L 2766,4134 H 525 Z"
         transform="scale(0.015625)" />
    </defs>
    <defs
       id="defs1349">
      <path
         id="DejaVuSans-38"
         d="m 2034,2216 q -450,0 -708,-241 -257,-241 -257,-662 0,-422 257,-663 258,-241 708,-241 450,0 709,242 260,243 260,662 0,421 -258,662 -257,241 -711,241 z m -631,268 q -406,100 -633,378 -226,279 -226,679 0,559 398,884 399,325 1092,325 697,0 1094,-325 397,-325 397,-884 0,-400 -227,-679 -226,-278 -629,-378 456,-106 710,-416 255,-309 255,-755 Q 3634,634 3220,271 2806,-91 2034,-91 1263,-91 848,271 434,634 434,1313 q 0,446 256,755 257,310 713,416 z m -231,997 q 0,-362 226,-565 227,-203 636,-203 407,0 636,203 230,203 230,565 0,363 -230,566 -229,203 -636,203 -409,0 -636,-203 -226,-203 -226,-566 z"
         transform="scale(0.015625)" />
    </defs>
    <defs
       id="defs1519">
      <path
         id="DejaVuSans-39"
         d="m 703,97 v 575 q 238,-113 481,-172 244,-59 479,-59 625,0 954,420 330,420 377,1277 -181,-269 -460,-413 -278,-144 -615,-144 -700,0 -1108,423 -408,424 -408,1159 0,718 425,1152 425,435 1131,435 810,0 1236,-621 427,-620 427,-1801 Q 3622,1225 3098,567 2575,-91 1691,-91 1453,-91 1209,-44 966,3 703,97 Z m 1256,1978 q 425,0 673,290 249,291 249,798 0,503 -249,795 -248,292 -673,292 -425,0 -673,-292 -248,-292 -248,-795 0,-507 248,-798 248,-290 673,-290 z"
         transform="scale(0.015625)" />
    </defs>
    <defs
       id="defs1365">
      <path
         id="DejaVuSans-31"
         d="M 794,531 H 1825 V 4091 L 703,3866 v 575 l 1116,225 h 631 V 531 H 3481 V 0 H 794 Z"
         transform="scale(0.015625)" />
    </defs>
    <defs
       id="defs1287">
      <path
         id="DejaVuSans-30"
         d="m 2034,4250 q -487,0 -733,-480 -245,-479 -245,-1442 0,-959 245,-1439 246,-480 733,-480 491,0 736,480 246,480 246,1439 0,963 -246,1442 -245,480 -736,480 z m 0,500 q 785,0 1199,-621 414,-620 414,-1801 0,-1178 -414,-1799 -414,-620 -1199,-620 -784,0 -1198,620 -414,621 -414,1799 0,1181 414,1801 414,621 1198,621 z"
         transform="scale(0.015625)" />
    </defs>
    <defs
       id="defs1333">
      <path
         id="DejaVuSans-36"
         d="m 2113,2584 q -425,0 -674,-291 -248,-290 -248,-796 0,-503 248,-796 249,-292 674,-292 425,0 673,292 248,293 248,796 0,506 -248,796 -248,291 -673,291 z m 1253,1979 v -575 q -238,112 -480,171 -242,60 -480,60 -625,0 -955,-422 -329,-422 -376,-1275 184,272 462,417 279,145 613,145 703,0 1111,-427 408,-426 408,-1160 0,-719 -425,-1154 -425,-434 -1131,-434 -810,0 -1238,620 -428,621 -428,1799 0,1106 525,1764 525,658 1409,658 238,0 480,-47 242,-47 505,-140 z"
         transform="scale(0.015625)" />
    </defs>
    <defs
       id="defs1461">
      <path
         id="DejaVuSans-33"
         d="m 2597,2516 q 453,-97 707,-404 255,-306 255,-756 0,-690 -475,-1069 -475,-378 -1350,-378 -293,0 -604,58 -311,58 -642,174 v 609 q 262,-153 574,-231 313,-78 654,-78 593,0 904,234 311,234 311,681 0,413 -289,645 -289,233 -804,233 h -544 v 519 h 569 q 465,0 712,186 247,186 247,536 0,359 -255,551 -254,193 -729,193 -260,0 -557,-57 -297,-56 -653,-174 v 562 q 360,100 674,150 314,50 592,50 719,0 1137,-327 419,-326 419,-882 0,-388 -222,-655 -222,-267 -631,-370 z"
         transform="scale(0.015625)" />
      <path
         id="DejaVuSans-35"
         d="M 691,4666 H 3169 V 4134 H 1269 V 2991 q 137,47 274,70 138,23 276,23 781,0 1237,-428 457,-428 457,-1159 Q 3513,744 3044,326 2575,-91 1722,-91 1428,-91 1123,-41 819,9 494,109 v 635 q 281,-153 581,-228 300,-75 634,-75 541,0 856,284 316,284 316,772 0,487 -316,771 -315,285 -856,285 -253,0 -505,-56 -251,-56 -513,-175 z"
         transform="scale(0.015625)" />
    </defs>
    <defs
       id="defs1301">
      <path
         id="DejaVuSans-32"
         d="M 1228,531 H 3431 V 0 H 469 v 531 q 359,372 979,998 621,627 780,809 303,340 423,576 121,236 121,464 0,372 -261,606 -261,235 -680,235 -297,0 -627,-103 -329,-103 -704,-313 v 638 q 381,153 712,231 332,78 607,78 725,0 1156,-363 431,-362 431,-968 0,-288 -108,-546 -107,-257 -392,-607 -78,-91 -497,-524 Q 1991,1309 1228,531 Z"
         transform="scale(0.015625)" />
    </defs>
  </defs>
  <g
     id="patch_2" />
  <use
     xlink:href="#DejaVuSans-20"
     x="375.11133"
     id="use1409"
     y="0"
     width="100%"
     height="100%"
     transform="matrix(0.24,0,0,-0.24,566.54062,676.65688)"
     style="fill:#ffffff" />
  <use
     xlink:href="#DejaVuSans-20"
     x="707.77734"
     id="use1421"
     y="0"
     width="100%"
     height="100%"
     transform="matrix(0.24,0,0,-0.24,566.54062,676.65688)"
     style="fill:#ffffff" />
  <use
     xlink:href="#DejaVuSans-20"
     x="1153.1875"
     id="use1437"
     y="0"
     width="100%"
     height="100%"
     transform="matrix(0.24,0,0,-0.24,566.54062,676.65688)"
     style="fill:#ffffff" />
  <use
     xlink:href="#DejaVuSans-20"
     x="302.2832"
     id="use1587"
     y="0"
     width="100%"
     height="100%"
     transform="matrix(0,-0.24,-0.24,0,141.10375,502.80563)"
     style="fill:#ffffff" />
  <use
     xlink:href="#DejaVuSans-20"
     x="996.375"
     id="use1611"
     y="0"
     width="100%"
     height="100%"
     transform="matrix(0,-0.24,-0.24,0,141.10375,502.80563)"
     style="display:inline;fill:#ffffff" />
  <g
     id="labels">
    <use
       xlink:href="#DejaVuSans-6f"
       x="60.658203"
       id="use1397"
       y="0"
       width="100%"
       height="100%"
       transform="matrix(0.24,0,0,-0.24,566.54062,676.65688)"
       style="fill:#ffffff" />
    <use
       xlink:href="#DejaVuSans-61"
       x="188.83203"
       id="use1403"
       y="0"
       width="100%"
       height="100%"
       transform="matrix(0.24,0,0,-0.24,566.54062,676.65688)"
       style="fill:#ffffff" />
    <use
       xlink:href="#DejaVuSans-67"
       x="250.11133"
       id="use1405"
       y="0"
       width="100%"
       height="100%"
       transform="matrix(0.24,0,0,-0.24,566.54062,676.65688)"
       style="fill:#ffffff" />
    <use
       xlink:href="#DejaVuSans-65"
       x="313.58789"
       id="use1407"
       y="0"
       width="100%"
       height="100%"
       transform="matrix(0.24,0,0,-0.24,566.54062,676.65688)"
       style="fill:#ffffff" />
    <use
       xlink:href="#DejaVuSans-65"
       x="475.50195"
       id="use1413"
       y="0"
       width="100%"
       height="100%"
       transform="matrix(0.24,0,0,-0.24,566.54062,676.65688)"
       style="fill:#ffffff" />
    <use
       xlink:href="#DejaVuSans-6f"
       x="564.80859"
       id="use1417"
       y="0"
       width="100%"
       height="100%"
       transform="matrix(0.24,0,0,-0.24,566.54062,676.65688)"
       style="fill:#ffffff" />
    <use
       xlink:href="#DejaVuSans-6f"
       x="814.36914"
       id="use1425"
       y="0"
       width="100%"
       height="100%"
       transform="matrix(0.24,0,0,-0.24,566.54062,676.65688)"
       style="fill:#ffffff" />
    <use
       xlink:href="#DejaVuSans-61"
       x="1064.125"
       id="use1433"
       y="0"
       width="100%"
       height="100%"
       transform="matrix(0.24,0,0,-0.24,566.54062,676.65688)"
       style="fill:#ffffff" />
    <use
       xlink:href="#DejaVuSans-28"
       x="1184.9746"
       id="use1439"
       y="0"
       width="100%"
       height="100%"
       transform="matrix(0.24,0,0,-0.24,566.54062,676.65688)"
       style="fill:#ffffff" />
    <use
       xlink:href="#DejaVuSans-29"
       x="1389.8086"
       id="use1445"
       y="0"
       width="100%"
       height="100%"
       transform="matrix(0.24,0,0,-0.24,566.54062,676.65688)"
       style="display:inline;fill:#ffffff" />
    <use
       xlink:href="#DejaVuSans-30"
       id="use1289"
       x="0"
       y="0"
       width="100%"
       height="100%"
       transform="matrix(0.18,0,0,-0.18,225.00102,650.67719)"
       style="fill:#ffffff" />
    <use
       xlink:href="#DejaVuSans-32"
       id="use1303"
       x="0"
       y="0"
       width="100%"
       height="100%"
       transform="matrix(0.18,0,0,-0.18,422.18386,650.67719)"
       style="fill:#ffffff" />
    <use
       xlink:href="#DejaVuSans-30"
       x="63.623047"
       id="use1305"
       y="0"
       width="100%"
       height="100%"
       transform="matrix(0.18,0,0,-0.18,422.18386,650.67719)"
       style="fill:#ffffff" />
    <use
       xlink:href="#DejaVuSans-34"
       id="use1319"
       x="0"
       y="0"
       width="100%"
       height="100%"
       transform="matrix(0.18,0,0,-0.18,625.09295,650.67719)"
       style="fill:#ffffff" />
    <use
       xlink:href="#DejaVuSans-30"
       x="63.623047"
       id="use1321"
       y="0"
       width="100%"
       height="100%"
       transform="matrix(0.18,0,0,-0.18,625.09295,650.67719)"
       style="fill:#ffffff" />
    <use
       xlink:href="#DejaVuSans-36"
       id="use1335"
       x="0"
       y="0"
       width="100%"
       height="100%"
       transform="matrix(0.18,0,0,-0.18,828.00204,650.67719)"
       style="fill:#ffffff" />
    <use
       xlink:href="#DejaVuSans-30"
       x="63.623047"
       id="use1337"
       y="0"
       width="100%"
       height="100%"
       transform="matrix(0.18,0,0,-0.18,828.00204,650.67719)"
       style="fill:#ffffff" />
    <use
       xlink:href="#DejaVuSans-38"
       id="use1351"
       x="0"
       y="0"
       width="100%"
       height="100%"
       transform="matrix(0.18,0,0,-0.18,1030.9111,650.67719)"
       style="fill:#ffffff" />
    <use
       xlink:href="#DejaVuSans-30"
       x="63.623047"
       id="use1353"
       y="0"
       width="100%"
       height="100%"
       transform="matrix(0.18,0,0,-0.18,1030.9111,650.67719)"
       style="fill:#ffffff" />
    <use
       xlink:href="#DejaVuSans-31"
       id="use1367"
       x="0"
       y="0"
       width="100%"
       height="100%"
       transform="matrix(0.18,0,0,-0.18,1228.094,650.67719)"
       style="fill:#ffffff" />
    <use
       xlink:href="#DejaVuSans-30"
       x="63.623047"
       id="use1369"
       y="0"
       width="100%"
       height="100%"
       transform="matrix(0.18,0,0,-0.18,1228.094,650.67719)"
       style="fill:#ffffff" />
    <use
       xlink:href="#DejaVuSans-30"
       x="127.24609"
       id="use1371"
       y="0"
       width="100%"
       height="100%"
       transform="matrix(0.18,0,0,-0.18,1228.094,650.67719)"
       style="fill:#ffffff" />
    <use
       xlink:href="#DejaVuSans-56"
       id="use1395"
       x="0"
       y="0"
       width="100%"
       height="100%"
       transform="matrix(0.24,0,0,-0.24,566.54062,676.65688)"
       style="fill:#ffffff" />
    <use
       xlink:href="#DejaVuSans-6c"
       x="121.83984"
       id="use1399"
       y="0"
       width="100%"
       height="100%"
       transform="matrix(0.24,0,0,-0.24,566.54062,676.65688)"
       style="fill:#ffffff" />
    <use
       xlink:href="#DejaVuSans-74"
       x="149.62305"
       id="use1401"
       y="0"
       width="100%"
       height="100%"
       transform="matrix(0.24,0,0,-0.24,566.54062,676.65688)"
       style="fill:#ffffff" />
    <use
       xlink:href="#DejaVuSans-42"
       x="406.89844"
       id="use1411"
       y="0"
       width="100%"
       height="100%"
       transform="matrix(0.24,0,0,-0.24,566.54062,676.65688)"
       style="fill:#ffffff" />
    <use
       xlink:href="#DejaVuSans-6c"
       x="537.02539"
       id="use1415"
       y="0"
       width="100%"
       height="100%"
       transform="matrix(0.24,0,0,-0.24,566.54062,676.65688)"
       style="fill:#ffffff" />
    <use
       xlink:href="#DejaVuSans-77"
       x="625.99023"
       id="use1419"
       y="0"
       width="100%"
       height="100%"
       transform="matrix(0.24,0,0,-0.24,566.54062,676.65688)"
       style="fill:#ffffff" />
    <use
       xlink:href="#DejaVuSans-4e"
       x="739.56445"
       id="use1423"
       y="0"
       width="100%"
       height="100%"
       transform="matrix(0.24,0,0,-0.24,566.54062,676.65688)"
       style="fill:#ffffff" />
    <use
       xlink:href="#DejaVuSans-6d"
       x="875.55078"
       id="use1427"
       y="0"
       width="100%"
       height="100%"
       transform="matrix(0.24,0,0,-0.24,566.54062,676.65688)"
       style="fill:#ffffff" />
    <use
       xlink:href="#DejaVuSans-69"
       x="972.96289"
       id="use1429"
       y="0"
       width="100%"
       height="100%"
       transform="matrix(0.24,0,0,-0.24,566.54062,676.65688)"
       style="fill:#ffffff" />
    <use
       xlink:href="#DejaVuSans-6e"
       x="1000.7461"
       id="use1431"
       y="0"
       width="100%"
       height="100%"
       transform="matrix(0.24,0,0,-0.24,566.54062,676.65688)"
       style="fill:#ffffff" />
    <use
       xlink:href="#DejaVuSans-6c"
       x="1125.4043"
       id="use1435"
       y="0"
       width="100%"
       height="100%"
       transform="matrix(0.24,0,0,-0.24,566.54062,676.65688)"
       style="fill:#ffffff" />
    <use
       xlink:href="#DejaVuSans-6d"
       x="1223.9883"
       id="use1441"
       y="0"
       width="100%"
       height="100%"
       transform="matrix(0.24,0,0,-0.24,566.54062,676.65688)"
       style="fill:#ffffff" />
    <use
       xlink:href="#DejaVuSans-56"
       x="1321.4004"
       id="use1443"
       y="0"
       width="100%"
       height="100%"
       transform="matrix(0.24,0,0,-0.24,566.54062,676.65688)"
       style="fill:#ffffff" />
    <use
       xlink:href="#DejaVuSans-33"
       id="use1463"
       x="0"
       y="0"
       width="100%"
       height="100%"
       transform="matrix(0.18,0,0,-0.18,150.095,612.1295)"
       style="fill:#ffffff" />
    <use
       xlink:href="#DejaVuSans-35"
       x="63.623047"
       id="use1465"
       y="0"
       width="100%"
       height="100%"
       transform="matrix(0.18,0,0,-0.18,150.095,612.1295)"
       style="fill:#ffffff" />
    <use
       xlink:href="#DejaVuSans-33"
       id="use1476"
       x="0"
       y="0"
       width="100%"
       height="100%"
       transform="matrix(0.18,0,0,-0.18,150.095,538.37102)"
       style="fill:#ffffff" />
    <use
       xlink:href="#DejaVuSans-36"
       x="63.623047"
       id="use1478"
       y="0"
       width="100%"
       height="100%"
       transform="matrix(0.18,0,0,-0.18,150.095,538.37102)"
       style="fill:#ffffff" />
    <use
       xlink:href="#DejaVuSans-33"
       id="use1492"
       x="0"
       y="0"
       width="100%"
       height="100%"
       transform="matrix(0.18,0,0,-0.18,150.095,464.61254)"
       style="fill:#ffffff" />
    <use
       xlink:href="#DejaVuSans-37"
       x="63.623047"
       id="use1494"
       y="0"
       width="100%"
       height="100%"
       transform="matrix(0.18,0,0,-0.18,150.095,464.61254)"
       style="fill:#ffffff" />
    <use
       xlink:href="#DejaVuSans-33"
       id="use1505"
       x="0"
       y="0"
       width="100%"
       height="100%"
       transform="matrix(0.18,0,0,-0.18,150.095,390.85406)"
       style="fill:#ffffff" />
    <use
       xlink:href="#DejaVuSans-38"
       x="63.623047"
       id="use1507"
       y="0"
       width="100%"
       height="100%"
       transform="matrix(0.18,0,0,-0.18,150.095,390.85406)"
       style="fill:#ffffff" />
    <use
       xlink:href="#DejaVuSans-33"
       id="use1521"
       x="0"
       y="0"
       width="100%"
       height="100%"
       transform="matrix(0.18,0,0,-0.18,150.095,317.09558)"
       style="fill:#ffffff" />
    <use
       xlink:href="#DejaVuSans-39"
       x="63.623047"
       id="use1523"
       y="0"
       width="100%"
       height="100%"
       transform="matrix(0.18,0,0,-0.18,150.095,317.09558)"
       style="fill:#ffffff" />
    <use
       xlink:href="#DejaVuSans-34"
       id="use1534"
       x="0"
       y="0"
       width="100%"
       height="100%"
       transform="matrix(0.18,0,0,-0.18,150.095,243.3371)"
       style="fill:#ffffff" />
    <use
       xlink:href="#DejaVuSans-30"
       x="63.623047"
       id="use1536"
       y="0"
       width="100%"
       height="100%"
       transform="matrix(0.18,0,0,-0.18,150.095,243.3371)"
       style="fill:#ffffff" />
    <use
       xlink:href="#DejaVuSans-34"
       id="use1547"
       x="0"
       y="0"
       width="100%"
       height="100%"
       transform="matrix(0.18,0,0,-0.18,150.095,169.57862)"
       style="fill:#ffffff" />
    <use
       xlink:href="#DejaVuSans-31"
       x="63.623047"
       id="use1549"
       y="0"
       width="100%"
       height="100%"
       transform="matrix(0.18,0,0,-0.18,150.095,169.57862)"
       style="fill:#ffffff" />
    <use
       xlink:href="#DejaVuSans-34"
       id="use1560"
       x="0"
       y="0"
       width="100%"
       height="100%"
       transform="matrix(0.18,0,0,-0.18,150.095,95.820141)"
       style="fill:#ffffff" />
    <use
       xlink:href="#DejaVuSans-32"
       x="63.623047"
       id="use1562"
       y="0"
       width="100%"
       height="100%"
       transform="matrix(0.18,0,0,-0.18,150.095,95.820141)"
       style="fill:#ffffff" />
    <use
       xlink:href="#DejaVuSans-50"
       id="use1577"
       x="0"
       y="0"
       width="100%"
       height="100%"
       transform="matrix(0,-0.24,-0.24,0,141.10375,502.80563)"
       style="fill:#ffffff" />
    <use
       xlink:href="#DejaVuSans-6f"
       x="56.677734"
       id="use1579"
       y="0"
       width="100%"
       height="100%"
       transform="matrix(0,-0.24,-0.24,0,141.10375,502.80563)"
       style="fill:#ffffff" />
    <use
       xlink:href="#DejaVuSans-77"
       x="117.85938"
       id="use1581"
       y="0"
       width="100%"
       height="100%"
       transform="matrix(0,-0.24,-0.24,0,141.10375,502.80563)"
       style="fill:#ffffff" />
    <use
       xlink:href="#DejaVuSans-65"
       x="199.64648"
       id="use1583"
       y="0"
       width="100%"
       height="100%"
       transform="matrix(0,-0.24,-0.24,0,141.10375,502.80563)"
       style="fill:#ffffff" />
    <use
       xlink:href="#DejaVuSans-72"
       x="261.16992"
       id="use1585"
       y="0"
       width="100%"
       height="100%"
       transform="matrix(0,-0.24,-0.24,0,141.10375,502.80563)"
       style="fill:#ffffff" />
    <use
       xlink:href="#DejaVuSans-43"
       x="334.07031"
       id="use1589"
       y="0"
       width="100%"
       height="100%"
       transform="matrix(0,-0.24,-0.24,0,141.10375,502.80563)"
       style="fill:#ffffff" />
    <use
       xlink:href="#DejaVuSans-6f"
       x="403.89453"
       id="use1591"
       y="0"
       width="100%"
       height="100%"
       transform="matrix(0,-0.24,-0.24,0,141.10375,502.80563)"
       style="fill:#ffffff" />
    <use
       xlink:href="#DejaVuSans-6e"
       x="465.07617"
       id="use1593"
       y="0"
       width="100%"
       height="100%"
       transform="matrix(0,-0.24,-0.24,0,141.10375,502.80563)"
       style="fill:#ffffff" />
    <use
       xlink:href="#DejaVuSans-73"
       x="528.45508"
       id="use1595"
       y="0"
       width="100%"
       height="100%"
       transform="matrix(0,-0.24,-0.24,0,141.10375,502.80563)"
       style="fill:#ffffff" />
    <use
       xlink:href="#DejaVuSans-75"
       x="580.55469"
       id="use1597"
       y="0"
       width="100%"
       height="100%"
       transform="matrix(0,-0.24,-0.24,0,141.10375,502.80563)"
       style="fill:#ffffff" />
    <use
       xlink:href="#DejaVuSans-6d"
       x="643.93359"
       id="use1599"
       y="0"
       width="100%"
       height="100%"
       transform="matrix(0,-0.24,-0.24,0,141.10375,502.80563)"
       style="fill:#ffffff" />
    <use
       xlink:href="#DejaVuSans-70"
       x="741.3457"
       id="use1601"
       y="0"
       width="100%"
       height="100%"
       transform="matrix(0,-0.24,-0.24,0,141.10375,502.80563)"
       style="fill:#ffffff" />
    <use
       xlink:href="#DejaVuSans-74"
       x="804.82227"
       id="use1603"
       y="0"
       width="100%"
       height="100%"
       transform="matrix(0,-0.24,-0.24,0,141.10375,502.80563)"
       style="fill:#ffffff" />
    <use
       xlink:href="#DejaVuSans-69"
       x="844.03125"
       id="use1605"
       y="0"
       width="100%"
       height="100%"
       transform="matrix(0,-0.24,-0.24,0,141.10375,502.80563)"
       style="fill:#ffffff" />
    <use
       xlink:href="#DejaVuSans-6f"
       x="871.81445"
       id="use1607"
       y="0"
       width="100%"
       height="100%"
       transform="matrix(0,-0.24,-0.24,0,141.10375,502.80563)"
       style="fill:#ffffff" />
    <use
       xlink:href="#DejaVuSans-6e"
       x="932.99609"
       id="use1609"
       y="0"
       width="100%"
       height="100%"
       transform="matrix(0,-0.24,-0.24,0,141.10375,502.80563)"
       style="fill:#ffffff" />
    <use
       xlink:href="#DejaVuSans-28"
       x="1028.1621"
       id="use1613"
       y="0"
       width="100%"
       height="100%"
       transform="matrix(0,-0.24,-0.24,0,141.10375,502.80563)"
       style="fill:#ffffff" />
    <use
       xlink:href="#DejaVuSans-57"
       x="1067.1758"
       id="use1615"
       y="0"
       width="100%"
       height="100%"
       transform="matrix(0,-0.24,-0.24,0,141.10375,502.80563)"
       style="fill:#ffffff" />
    <use
       xlink:href="#DejaVuSans-29"
       x="1166.0527"
       id="use1617"
       y="0"
       width="100%"
       height="100%"
       transform="matrix(0,-0.24,-0.24,0,141.10375,502.80563)"
       style="fill:#ffffff" />
  </g>
  <g
     id="curve">
    <path
       d="m 230.72727,111.10909 202.90909,59.00678 202.90909,81.13433 202.9091,228.65129 202.90905,44.25509 202.9091,81.13433"
       clip-path="url(#p3da25cbfad)"
       style="fill:none;stroke:#ffffff;stroke-width:1.5;stroke-linecap:square"
       id="path1623" />
    <use
       xlink:href="#m6ecfade0a3"
       x="230.72728"
       y="111.10909"
       style="fill:#ffffff;stroke:#ffffff"
       id="use1628"
       width="100%"
       height="100%" />
    <use
       xlink:href="#m6ecfade0a3"
       x="433.63635"
       y="170.11588"
       style="fill:#ffffff;stroke:#ffffff"
       id="use1630"
       width="100%"
       height="100%" />
    <use
       xlink:href="#m6ecfade0a3"
       x="636.54547"
       y="251.2502"
       style="fill:#ffffff;stroke:#ffffff"
       id="use1632"
       width="100%"
       height="100%" />
    <use
       xlink:href="#m6ecfade0a3"
       x="839.45453"
       y="479.90149"
       style="fill:#ffffff;stroke:#ffffff"
       id="use1634"
       width="100%"
       height="100%" />
    <use
       xlink:href="#m6ecfade0a3"
       x="1042.3636"
       y="524.15656"
       style="fill:#ffffff;stroke:#ffffff"
       id="use1636"
       width="100%"
       height="100%" />
    <use
       xlink:href="#m6ecfade0a3"
       x="1245.2727"
       y="605.29089"
       style="fill:#ffffff;stroke:#ffffff"
       id="use1638"
       width="100%"
       height="100%" />
  </g>
  <g
     id="axes">
    <use
       xlink:href="#m1edf044360"
       x="230.72728"
       y="630"
       style="fill:#ffffff;stroke:#ffffff;stroke-width:0.8"
       id="use1281"
       width="100%"
       height="100%" />
    <use
       xlink:href="#m1edf044360"
       x="433.63635"
       y="630"
       style="fill:#ffffff;stroke:#ffffff;stroke-width:0.8"
       id="use1295"
       width="100%"
       height="100%" />
    <use
       xlink:href="#m1edf044360"
       x="636.54547"
       y="630"
       style="fill:#ffffff;stroke:#ffffff;stroke-width:0.8"
       id="use1311"
       width="100%"
       height="100%" />
    <use
       xlink:href="#m1edf044360"
       x="839.45453"
       y="630"
       style="fill:#ffffff;stroke:#ffffff;stroke-width:0.8"
       id="use1327"
       width="100%"
       height="100%" />
    <use
       xlink:href="#m1edf044360"
       x="1042.3636"
       y="630"
       style="fill:#ffffff;stroke:#ffffff;stroke-width:0.8"
       id="use1343"
       width="100%"
       height="100%" />
    <use
       xlink:href="#m1edf044360"
       x="1245.2727"
       y="630"
       style="fill:#ffffff;stroke:#ffffff;stroke-width:0.8"
       id="use1359"
       width="100%"
       height="100%" />
    <use
       xlink:href="#mee51765c35"
       x="180"
       y="605.29089"
       style="fill:#ffffff;stroke:#ffffff;stroke-width:0.8"
       id="use1454"
       width="100%"
       height="100%" />
    <use
       xlink:href="#mee51765c35"
       x="180"
       y="531.53241"
       style="fill:#ffffff;stroke:#ffffff;stroke-width:0.8"
       id="use1471"
       width="100%"
       height="100%" />
    <use
       xlink:href="#mee51765c35"
       x="180"
       y="457.77396"
       style="fill:#ffffff;stroke:#ffffff;stroke-width:0.8"
       id="use1484"
       width="100%"
       height="100%" />
    <use
       xlink:href="#mee51765c35"
       x="180"
       y="384.01547"
       style="fill:#ffffff;stroke:#ffffff;stroke-width:0.8"
       id="use1500"
       width="100%"
       height="100%" />
    <use
       xlink:href="#mee51765c35"
       x="180"
       y="310.25699"
       style="fill:#ffffff;stroke:#ffffff;stroke-width:0.8"
       id="use1513"
       width="100%"
       height="100%" />
    <use
       xlink:href="#mee51765c35"
       x="180"
       y="236.4985"
       style="fill:#ffffff;stroke:#ffffff;stroke-width:0.8"
       id="use1529"
       width="100%"
       height="100%" />
    <use
       xlink:href="#mee51765c35"
       x="180"
       y="162.74002"
       style="fill:#ffffff;stroke:#ffffff;stroke-width:0.8"
       id="use1542"
       width="100%"
       height="100%" />
    <use
       xlink:href="#mee51765c35"
       x="180"
       y="88.981544"
       style="fill:#ffffff;stroke:#ffffff;stroke-width:0.8"
       id="use1555"
       width="100%"
       height="100%" />
    <g
       id="patch_3">
      <path
         d="M 180,630 V 86.4"
         style="fill:none;stroke:#ffffff;stroke-width:0.8;stroke-linecap:square;stroke-linejoin:miter"
         id="path1643" />
    </g>
    <g
       id="patch_4">
      <path
         d="M 1296,630 V 86.4"
         style="fill:none;stroke:#ffffff;stroke-width:0.8;stroke-linecap:square;stroke-linejoin:miter"
         id="path1646" />
    </g>
    <g
       id="patch_5">
      <path
         d="M 180,630 H 1296"
         style="fill:none;stroke:#ffffff;stroke-width:0.8;stroke-linecap:square;stroke-linejoin:miter"
         id="path1649" />
    </g>
    <g
       id="patch_6">
      <path
         d="M 180,86.4 H 1296"
         style="fill:none;stroke:#ffffff;stroke-width:0.8;stroke-linecap:square;stroke-linejoin:miter"
         id="path1652" />
    </g>
  </g>
  <defs
     id="defs1660">
    <clipPath
       id="p3da25cbfad">
      <rect
         x="180"
         y="86.4"
         width="1116"
         height="543.6"
         id="rect1657" />
    </clipPath>
  </defs>
</svg>
