<?xml version="1.0" encoding="UTF-8" standalone="no"?>
<!-- Do not edit this file with editors other than draw.io -->

<svg
   version="1.1"
   width="434.24969"
   height="266.49921"
   viewBox="0 0 434.24969 266.49921"
   content="&lt;mxfile host=&quot;Electron&quot; agent=&quot;Mozilla/5.0 (X11; Linux x86_64) AppleWebKit/537.36 (KHTML, like Gecko) draw.io/29.6.1 Chrome/142.0.7444.265 Electron/39.8.10 Safari/537.36&quot; version=&quot;29.6.1&quot; scale=&quot;1&quot; border=&quot;0&quot;&gt;&#10;  &lt;diagram name=&quot;Page-1&quot; id=&quot;3SysJUUUpg1BnSI-F3Zo&quot;&gt;&#10;    &lt;mxGraphModel dx=&quot;685&quot; dy=&quot;1291&quot; grid=&quot;1&quot; gridSize=&quot;10&quot; guides=&quot;1&quot; tooltips=&quot;1&quot; connect=&quot;1&quot; arrows=&quot;1&quot; fold=&quot;1&quot; page=&quot;1&quot; pageScale=&quot;1&quot; pageWidth=&quot;850&quot; pageHeight=&quot;1100&quot; math=&quot;0&quot; shadow=&quot;0&quot;&gt;&#10;      &lt;root&gt;&#10;        &lt;mxCell id=&quot;0&quot; /&gt;&#10;        &lt;mxCell id=&quot;1&quot; parent=&quot;0&quot; /&gt;&#10;        &lt;mxCell id=&quot;djWN3qCHPreh53wE4Ggr-2&quot; parent=&quot;1&quot; style=&quot;verticalLabelPosition=bottom;html=1;verticalAlign=top;align=center;strokeColor=none;fillColor=#3B8DF1;shape=mxgraph.azure.server_rack;&quot; value=&quot;https://waveguide.dev&quot; vertex=&quot;1&quot;&gt;&#10;          &lt;mxGeometry height=&quot;50&quot; width=&quot;50&quot; x=&quot;460&quot; y=&quot;555&quot; as=&quot;geometry&quot; /&gt;&#10;        &lt;/mxCell&gt;&#10;        &lt;mxCell id=&quot;djWN3qCHPreh53wE4Ggr-3&quot; parent=&quot;1&quot; style=&quot;shape=actor;whiteSpace=wrap;html=1;labelPosition=center;verticalLabelPosition=bottom;align=center;verticalAlign=top;&quot; value=&quot;User&quot; vertex=&quot;1&quot;&gt;&#10;          &lt;mxGeometry height=&quot;60&quot; width=&quot;40&quot; x=&quot;80&quot; y=&quot;550&quot; as=&quot;geometry&quot; /&gt;&#10;        &lt;/mxCell&gt;&#10;        &lt;mxCell id=&quot;djWN3qCHPreh53wE4Ggr-5&quot; parent=&quot;1&quot; style=&quot;sketch=0;html=1;aspect=fixed;strokeColor=none;shadow=0;fillColor=#3B8DF1;verticalAlign=top;labelPosition=center;verticalLabelPosition=bottom;shape=mxgraph.gcp2.cloud_monitoring&quot; value=&quot;Cloudflare R2&quot; vertex=&quot;1&quot;&gt;&#10;          &lt;mxGeometry height=&quot;50&quot; width=&quot;45&quot; x=&quot;462.5&quot; y=&quot;732&quot; as=&quot;geometry&quot; /&gt;&#10;        &lt;/mxCell&gt;&#10;        &lt;mxCell id=&quot;djWN3qCHPreh53wE4Ggr-18&quot; edge=&quot;1&quot; parent=&quot;1&quot; style=&quot;edgeStyle=orthogonalEdgeStyle;rounded=0;orthogonalLoop=1;jettySize=auto;html=1;startArrow=classic;startFill=1;&quot; target=&quot;djWN3qCHPreh53wE4Ggr-11&quot;&gt;&#10;          &lt;mxGeometry relative=&quot;1&quot; as=&quot;geometry&quot;&gt;&#10;            &lt;mxPoint x=&quot;310&quot; y=&quot;630&quot; as=&quot;sourcePoint&quot; /&gt;&#10;          &lt;/mxGeometry&gt;&#10;        &lt;/mxCell&gt;&#10;        &lt;mxCell id=&quot;djWN3qCHPreh53wE4Ggr-22&quot; connectable=&quot;0&quot; parent=&quot;djWN3qCHPreh53wE4Ggr-18&quot; style=&quot;edgeLabel;html=1;align=center;verticalAlign=middle;resizable=0;points=[];&quot; value=&quot;GET /elevation/*&quot; vertex=&quot;1&quot;&gt;&#10;          &lt;mxGeometry relative=&quot;1&quot; x=&quot;0.2461&quot; y=&quot;-3&quot; as=&quot;geometry&quot;&gt;&#10;            &lt;mxPoint x=&quot;3&quot; y=&quot;-8&quot; as=&quot;offset&quot; /&gt;&#10;          &lt;/mxGeometry&gt;&#10;        &lt;/mxCell&gt;&#10;        &lt;mxCell id=&quot;djWN3qCHPreh53wE4Ggr-6&quot; parent=&quot;1&quot; style=&quot;sketch=0;html=1;aspect=fixed;strokeColor=none;shadow=0;fillColor=#3B8DF1;verticalAlign=top;labelPosition=center;verticalLabelPosition=bottom;shape=mxgraph.gcp2.cloud&quot; value=&quot;Cloudflare CDN&quot; vertex=&quot;1&quot;&gt;&#10;          &lt;mxGeometry height=&quot;40&quot; width=&quot;57.97&quot; x=&quot;281.5&quot; y=&quot;560&quot; as=&quot;geometry&quot; /&gt;&#10;        &lt;/mxCell&gt;&#10;        &lt;mxCell id=&quot;djWN3qCHPreh53wE4Ggr-11&quot; parent=&quot;1&quot; style=&quot;sketch=0;html=1;verticalAlign=middle;labelPosition=center;verticalLabelPosition=bottom;align=center;spacingTop=0;fontSize=12;fontStyle=0;fontColor=#999999;shape=image;aspect=fixed;imageAspect=0;image=data:image/svg+xml,PHN2ZyB4bWxucz0iaHR0cDovL3d3dy53My5vcmcvMjAwMC9zdmciIHhtbG5zOnY9Imh0dHBzOi8vdmVjdGEuaW8vbmFubyIgd2lkdGg9IjIwIiBoZWlnaHQ9IjE5Ljk4OTk5OTc3MTExODE2NCIgdmlld0JveD0iMCAwIDIwIDE5Ljk4OTk5OTc3MTExODE2NCI+JiN4YTsJPHN0eWxlIHR5cGU9InRleHQvY3NzIj4mI3hhOwkuc3Qwe2ZpbGw6IzQyODVmNDt9JiN4YTsJLnN0MXtmaWxsOiM2NjlkZjY7fSYjeGE7CS5zdDJ7ZmlsbDojYWVjYmZhO30mI3hhOwk8L3N0eWxlPiYjeGE7CTxwYXRoIGNsYXNzPSJzdDEiIGQ9Ik0zIDMuOTlMMCA2LjQydjcuMTNsMyAyLjQ0eiIvPiYjeGE7CTxwYXRoIGNsYXNzPSJzdDAiIGQ9Ik0zIDMuOTlsLTMgNCAzLTJ6bS0zIDhsMyA0di0yeiIvPiYjeGE7CTxwYXRoIGNsYXNzPSJzdDIiIGQ9Ik0wIDE1Ljk5bDQgNCAyLTItNi02em0uMDEtOEw1Ljk5IDJsLTItMkwwIDMuOTl6Ii8+JiN4YTsJPHBhdGggY2xhc3M9InN0MSIgZD0iTTE3IDE2bDMtMi40MlY2LjQ0TDE3IDR6Ii8+JiN4YTsJPHBhdGggY2xhc3M9InN0MCIgZD0iTTE3IDE2bDMtNC0zIDJ6bTMtOGwtMy00djJ6Ii8+JiN4YTsJPGcgY2xhc3M9InN0MiI+JiN4YTsJCTxwYXRoIGQ9Ik0yMCA0bC00LTQtMiAyIDYgNnptLS4wMSA4bC01Ljk4IDUuOTkgMiAyTDIwIDE2eiIvPiYjeGE7CQk8Y2lyY2xlIGN4PSI2IiBjeT0iOS45OSIgcj0iMSIvPiYjeGE7CQk8Y2lyY2xlIGN4PSIxMCIgY3k9IjkuOTkiIHI9IjEiLz4mI3hhOwkJPGNpcmNsZSBjeD0iMTMuOTkiIGN5PSI5Ljk5IiByPSIxIi8+JiN4YTsJPC9nPiYjeGE7PC9zdmc+;&quot; value=&quot;&amp;lt;font style=&amp;quot;color: light-dark(rgb(0, 0, 0), rgb(242, 242, 242));&amp;quot;&amp;gt;Cloudflare Function&amp;lt;/font&amp;gt;&quot; vertex=&quot;1&quot;&gt;&#10;          &lt;mxGeometry height=&quot;34&quot; width=&quot;42&quot; x=&quot;289.48&quot; y=&quot;740&quot; as=&quot;geometry&quot; /&gt;&#10;        &lt;/mxCell&gt;&#10;        &lt;mxCell id=&quot;djWN3qCHPreh53wE4Ggr-14&quot; edge=&quot;1&quot; parent=&quot;1&quot; source=&quot;djWN3qCHPreh53wE4Ggr-3&quot; style=&quot;edgeStyle=orthogonalEdgeStyle;rounded=0;orthogonalLoop=1;jettySize=auto;html=1;entryX=-0.026;entryY=0.5;entryDx=0;entryDy=0;entryPerimeter=0;startArrow=classic;startFill=1;&quot; target=&quot;djWN3qCHPreh53wE4Ggr-6&quot;&gt;&#10;          &lt;mxGeometry relative=&quot;1&quot; as=&quot;geometry&quot; /&gt;&#10;        &lt;/mxCell&gt;&#10;        &lt;mxCell id=&quot;djWN3qCHPreh53wE4Ggr-15&quot; edge=&quot;1&quot; parent=&quot;1&quot; source=&quot;djWN3qCHPreh53wE4Ggr-6&quot; style=&quot;edgeStyle=orthogonalEdgeStyle;rounded=0;orthogonalLoop=1;jettySize=auto;html=1;entryX=0;entryY=0.5;entryDx=0;entryDy=0;entryPerimeter=0;startArrow=classic;startFill=1;&quot; target=&quot;djWN3qCHPreh53wE4Ggr-2&quot;&gt;&#10;          &lt;mxGeometry relative=&quot;1&quot; as=&quot;geometry&quot; /&gt;&#10;        &lt;/mxCell&gt;&#10;        &lt;mxCell id=&quot;djWN3qCHPreh53wE4Ggr-16&quot; edge=&quot;1&quot; parent=&quot;1&quot; source=&quot;djWN3qCHPreh53wE4Ggr-11&quot; style=&quot;edgeStyle=orthogonalEdgeStyle;rounded=0;orthogonalLoop=1;jettySize=auto;html=1;entryX=0.116;entryY=0.508;entryDx=0;entryDy=0;entryPerimeter=0;startArrow=classic;startFill=1;&quot; target=&quot;djWN3qCHPreh53wE4Ggr-5&quot;&gt;&#10;          &lt;mxGeometry relative=&quot;1&quot; as=&quot;geometry&quot; /&gt;&#10;        &lt;/mxCell&gt;&#10;        &lt;mxCell id=&quot;djWN3qCHPreh53wE4Ggr-23&quot; connectable=&quot;0&quot; parent=&quot;djWN3qCHPreh53wE4Ggr-16&quot; style=&quot;edgeLabel;html=1;align=center;verticalAlign=middle;resizable=0;points=[];&quot; value=&quot;Topography&amp;lt;br&amp;gt;map tiles&quot; vertex=&quot;1&quot;&gt;&#10;          &lt;mxGeometry relative=&quot;1&quot; x=&quot;0.024&quot; y=&quot;2&quot; as=&quot;geometry&quot;&gt;&#10;            &lt;mxPoint as=&quot;offset&quot; /&gt;&#10;          &lt;/mxGeometry&gt;&#10;        &lt;/mxCell&gt;&#10;        &lt;mxCell id=&quot;djWN3qCHPreh53wE4Ggr-26&quot; parent=&quot;1&quot; style=&quot;text;html=1;whiteSpace=wrap;strokeColor=none;fillColor=none;align=center;verticalAlign=middle;rounded=0;&quot; value=&quot;Only serves the frontend&quot; vertex=&quot;1&quot;&gt;&#10;          &lt;mxGeometry height=&quot;30&quot; width=&quot;60&quot; x=&quot;455&quot; y=&quot;510&quot; as=&quot;geometry&quot; /&gt;&#10;        &lt;/mxCell&gt;&#10;      &lt;/root&gt;&#10;    &lt;/mxGraphModel&gt;&#10;  &lt;/diagram&gt;&#10;&lt;/mxfile&gt;&#10;"
   id="svg53"
   xmlns="http://www.w3.org/2000/svg"
   xmlns:svg="http://www.w3.org/2000/svg">
  <defs
     id="defs1">
    <rect
       x="148.98212"
       y="-94.330383"
       width="139.62395"
       height="47.913845"
       id="rect60" />
    <rect
       x="293.09799"
       y="467.53433"
       width="145.9875"
       height="34.438076"
       id="rect59" />
    <rect
       x="371.70663"
       y="392.29462"
       width="157.21732"
       height="49.036827"
       id="rect58" />
    <rect
       x="132.13741"
       y="415.8772"
       width="208.87442"
       height="48.288174"
       id="rect54" />
    <rect
       x="116.41567"
       y="330.53067"
       width="143.3672"
       height="34.063751"
       id="rect53" />
    <style
       type="text/css"
       id="style22">#svg-image-2M9KTNg90TtZ93akWPfr .st0 { fill: rgb(66, 133, 244); }
#svg-image-2M9KTNg90TtZ93akWPfr .st1 { fill: rgb(102, 157, 246); }
#svg-image-2M9KTNg90TtZ93akWPfr .st2 { fill: rgb(174, 203, 250); }
</style>
  </defs>
  <g
     id="g60"
     transform="translate(-12.005134,-26.094196)">
    <path
       d="m 380.06,70.07 c 0.05,-1.1 0.94,-1.95 2.01,-1.95 h 45.87 c 1.07,0 1.96,0.85 2.01,1.95 L 430,81.88 c 0,0.55 -0.22,1.08 -0.61,1.47 -0.39,0.38 -0.91,0.59 -1.45,0.58 h -45.87 c -0.53,0 -1.05,-0.22 -1.42,-0.6 -0.38,-0.39 -0.59,-0.91 -0.59,-1.45 z m 6.04,10.11 c 0,-0.99 -0.79,-1.8 -1.77,-1.8 -0.97,0 -1.76,0.81 -1.76,1.8 0,0.99 0.79,1.8 1.76,1.8 0.98,0 1.77,-0.81 1.77,-1.8 z m 30.21,-0.15 c -0.31,0 -0.56,0.25 -0.56,0.56 0,0.31 0.25,0.57 0.56,0.57 h 10.06 c 0.31,0 0.56,-0.26 0.56,-0.57 0,-0.31 -0.25,-0.56 -0.56,-0.56 z m 0,-1.95 c -0.31,0 -0.56,0.25 -0.56,0.56 0,0.31 0.25,0.57 0.56,0.57 h 10.06 c 0.31,0 0.56,-0.26 0.56,-0.57 0,-0.31 -0.25,-0.56 -0.56,-0.56 z m 0,-2.01 c -0.31,0 -0.56,0.26 -0.56,0.57 0,0.31 0.25,0.56 0.56,0.56 h 10.06 c 0.31,0 0.56,-0.25 0.56,-0.56 0,-0.31 -0.25,-0.57 -0.56,-0.57 z M 380,52.95 c 0.05,-1.09 0.94,-1.95 2.01,-1.95 h 45.87 c 1.07,0 1.96,0.86 2.01,1.95 l 0.05,11.81 c 0,0.55 -0.21,1.08 -0.6,1.47 -0.39,0.39 -0.92,0.6 -1.46,0.58 h -45.87 c -1.11,0 -2.01,-0.92 -2.01,-2.05 z m 6.04,10.11 c 0,-0.64 -0.33,-1.23 -0.88,-1.55 -0.54,-0.32 -1.22,-0.32 -1.76,0 -0.55,0.32 -0.88,0.91 -0.88,1.55 0,0.65 0.33,1.24 0.88,1.56 0.54,0.32 1.22,0.32 1.76,0 0.55,-0.32 0.88,-0.91 0.88,-1.56 z m 30.21,-0.15 c -0.31,0 -0.55,0.25 -0.55,0.57 0,0.31 0.24,0.56 0.55,0.56 h 10.07 c 0.31,0 0.55,-0.25 0.55,-0.56 0,-0.32 -0.24,-0.57 -0.55,-0.57 z m 0,-1.95 c -0.31,0 -0.55,0.25 -0.55,0.56 0,0.32 0.24,0.57 0.55,0.57 h 10.07 c 0.31,0 0.55,-0.25 0.55,-0.57 0,-0.31 -0.24,-0.56 -0.55,-0.56 z m 0,-2 c -0.31,0 -0.55,0.25 -0.55,0.56 0,0.31 0.24,0.57 0.55,0.57 h 10.07 c 0.31,0 0.55,-0.26 0.55,-0.57 0,-0.31 -0.24,-0.56 -0.55,-0.56 z m -36.19,28.16 c 0.05,-1.09 0.94,-1.95 2.01,-1.95 h 45.87 c 1.07,0 1.96,0.86 2.01,1.95 L 430,98.93 c 0,0.55 -0.22,1.08 -0.61,1.47 -0.39,0.39 -0.91,0.6 -1.45,0.58 h -45.87 c -0.53,0 -1.05,-0.21 -1.42,-0.6 -0.38,-0.38 -0.59,-0.9 -0.59,-1.45 z m 6.04,10.12 c 0,-1 -0.79,-1.8 -1.77,-1.8 -0.97,0 -1.76,0.8 -1.76,1.8 0,0.99 0.79,1.79 1.76,1.79 0.98,0 1.77,-0.8 1.77,-1.79 z m 30.21,-0.16 c -0.31,0 -0.56,0.26 -0.56,0.57 0,0.31 0.25,0.56 0.56,0.56 h 10.06 c 0.31,0 0.56,-0.25 0.56,-0.56 0,-0.31 -0.25,-0.57 -0.56,-0.57 z m 0,-1.95 c -0.31,0 -0.56,0.25 -0.56,0.57 0,0.31 0.25,0.56 0.56,0.56 h 10.06 c 0.31,0 0.56,-0.25 0.56,-0.56 0,-0.32 -0.25,-0.57 -0.56,-0.57 z m 0,-2 c -0.31,0 -0.56,0.25 -0.56,0.56 0,0.32 0.25,0.57 0.56,0.57 h 10.06 c 0.31,0 0.56,-0.25 0.56,-0.57 0,-0.31 -0.25,-0.56 -0.56,-0.56 z"
       fill="#3b8df1"
       stroke="none"
       pointer-events="all"
       style="fill:#3b8df1"
       id="path1" />
    <path
       d="m 384.2,236.24 c -1.69,-1.27 -1.7,-2.86 0.25,-4.25 4.55,-2.99 13.28,-3.99 20.02,-3.97 8.06,0.07 16.15,1.03 20.53,3.93 2.5,1.72 1.62,3.5 0.02,4.55 -4.38,2.96 -13.95,4.06 -21.34,3.94 -6.41,-0.15 -15.28,-1.09 -19.48,-4.2 z m -1.1,10.78 v -7.87 c 2.79,2.3 8.77,3.6 15.22,4.13 6.49,0.75 12.47,0.18 16.65,-0.41 5.26,-0.61 9.23,-2.01 11.51,-3.61 v 7.65 c -0.29,2.2 -3.97,3.97 -11.56,5.31 -5.68,0.74 -13.84,0.82 -18.08,0.23 -3.68,-0.47 -13.34,-2.08 -13.74,-5.43 z m 0,12.67 v -8.23 c 2.02,2.39 9.48,3.74 14.96,4.27 5.73,0.62 13.06,0.36 17.3,-0.47 4.2,-0.55 8.54,-1.81 11.12,-3.55 v 7.67 c -0.42,2.61 -5.66,4.36 -12.07,5.36 -5.4,0.77 -12.42,0.78 -17.36,0.29 -5.08,-0.64 -12.64,-2.16 -13.95,-5.34 z m 0,12.38 v -8.03 c 1.74,1.64 7.58,3.59 13.97,4.03 4.69,0.63 12.03,0.51 17.38,-0.26 5.11,-0.69 9.12,-1.71 12.03,-3.71 v 7.92 c -0.63,2.45 -5.76,4.22 -12.41,5.16 -5.22,0.82 -13.9,0.65 -17.84,0.12 -5.23,-0.74 -12.15,-2.32 -13.13,-5.23 z"
       fill="#3b8df1"
       stroke="none"
       pointer-events="all"
       style="fill:#3b8df1"
       id="path8" />
    <path
       d="m 230,132.37 v 49.16 l 0.47,48.1"
       fill="none"
       stroke-miterlimit="10"
       pointer-events="stroke"
       id="path12" />
    <path
       d="m 230,127.12 3.5,7 -3.5,-1.75 -3.5,1.75 z"
       stroke-miterlimit="10"
       pointer-events="all"
       id="path13" />
    <path
       d="m 230.52,234.88 -3.57,-6.96 3.52,1.71 3.48,-1.78 z"
       stroke-miterlimit="10"
       pointer-events="all"
       id="path14" />
    <path
       d="m 210.97,96 c -3.97,-1.04 -6.62,-4.17 -7.9,-7.17 -1.11,-2.75 -1.57,-7.69 1.46,-11.94 1.73,-2.76 5.03,-4.64 8.56,-4.89 -0.27,-2.35 0.22,-6.15 3.83,-8.54 2.72,-1.69 6.15,-1.48 8.4,0.42 2.42,-4.4 8.28,-7.88 15.56,-5.58 4.27,1.76 6.96,5.11 8.56,9.55 2.42,-0.13 4.73,0.22 6.75,3.29 1.73,3.04 1,5.79 -0.12,7.37 3.27,4.08 3.4,8.19 2.12,11.53 -1.16,2.66 -4.05,5.96 -7.41,5.96 z"
       fill="#3b8df1"
       stroke="none"
       pointer-events="all"
       style="fill:#3b8df1"
       id="path18" />
    <path
       class="st1"
       d="m 218.57404,242.78639 -5.10255,4.13307 v 12.12706 l 5.10255,4.15008 z"
       id="path22"
       style="font-family:initial;stroke-width:1.70085" />
    <path
       class="st0"
       d="m 218.57404,242.78639 -5.10255,6.8034 5.10255,-3.4017 z m -5.10255,13.60681 5.10255,6.8034 v -3.4017 z"
       id="path23"
       style="font-family:initial;stroke-width:1.70085" />
    <path
       class="st2"
       d="m 213.47149,263.1966 6.8034,6.8034 3.4017,-3.4017 -10.2051,-10.2051 z m 0.017,-13.60681 10.17108,-10.18809 -3.4017,-3.4017 -6.78639,6.78639 z"
       id="path24"
       style="font-family:initial;stroke-width:1.70085" />
    <path
       class="st1"
       d="m 242.38595,263.21361 5.10255,-4.11606 v -12.14407 l -5.10255,-4.15008 z"
       id="path25"
       style="font-family:initial;stroke-width:1.70085" />
    <path
       class="st0"
       d="m 242.38595,263.21361 5.10255,-6.80341 -5.10255,3.40171 z m 5.10255,-13.60681 -5.10255,-6.8034 v 3.4017 z"
       id="path26"
       style="font-family:initial;stroke-width:1.70085" />
    <path
       d="M 247.4885,242.8034 240.6851,236 l -3.4017,3.4017 10.2051,10.2051 z m -0.017,13.6068 -10.17109,10.1881 3.4017,3.4017 6.7864,-6.78639 z"
       id="path27"
       style="font-family:initial;stroke-width:1.70085" />
    <circle
       cx="223.67659"
       cy="252.9915"
       r="1.7008504"
       id="circle27"
       class="svgdot"
       style="font-family:initial;stroke-width:1.70085" />
    <circle
       cx="230.48"
       cy="252.9915"
       r="1.7008504"
       id="circle28"
       class="svgdot"
       style="font-family:initial;stroke-width:1.70085" />
    <circle
       cx="237.26639"
       cy="252.9915"
       r="1.7008504"
       id="circle29"
       class="svgdot"
       style="font-family:initial;stroke-width:1.70085" />
    <path
       d="M 46.37,76 H 193.62"
       fill="none"
       stroke-miterlimit="10"
       pointer-events="stroke"
       id="path34" />
    <path
       d="m 198.87,76 -7,3.5 1.75,-3.5 -1.75,-3.5 z"
       stroke-miterlimit="10"
       pointer-events="all"
       id="path36" />
    <path
       d="M 265.84,76 H 373.63"
       fill="none"
       stroke-miterlimit="10"
       pointer-events="stroke"
       id="path37" />
    <path
       d="m 260.59,76 7,-3.5 -1.75,3.5 1.75,3.5 z"
       stroke-miterlimit="10"
       pointer-events="all"
       id="path38" />
    <path
       d="m 378.88,76 -7,3.5 1.75,-3.5 -1.75,-3.5 z"
       stroke-miterlimit="10"
       pointer-events="all"
       id="path39" />
    <path
       d="M 257.85,253 H 317 l 64.35,0.36"
       fill="none"
       stroke-miterlimit="10"
       pointer-events="stroke"
       id="path40" />
    <path
       d="m 252.6,253 7,-3.5 -1.75,3.5 1.75,3.5 z"
       stroke-miterlimit="10"
       pointer-events="all"
       id="path41" />
    <path
       d="m 386.6,253.39 -7.02,3.46 1.77,-3.49 -1.73,-3.51 z"
       stroke-miterlimit="10"
       pointer-events="all"
       id="path42" />
    <g
       id="g53"
       transform="translate(-80.994866,-138.69709)">
      <text
         xml:space="preserve"
         style="font-size:10.6667px;line-height:1;font-family:Sans;-inkscape-font-specification:'Sans, Normal';writing-mode:lr-tb;direction:ltr;stroke:none;stroke-width:3.77953"
         x="96.08596"
         y="248.81528"
         id="text32"><tspan
           id="tspan32"
           x="96.08596"
           y="248.81528">User</tspan></text>
      <g
         id="g33-5"
         transform="translate(32.691115,23.2956)">
        <ellipse
           style="fill:none;stroke-width:1.13386;stroke-dasharray:none;stroke-opacity:1"
           id="path32"
           cx="75.281372"
           cy="173.05078"
           rx="9.7448149"
           ry="11.779448" />
        <path
           style="fill:none;stroke-width:1.13386;stroke-dasharray:none;stroke-opacity:1"
           d="m 61.253125,214.17177 h 30.840734 c 0,0 2.355888,-29.12736 -16.277054,-29.12736 -18.632944,0 -14.56368,29.12736 -14.56368,29.12736 z"
           id="path33" />
      </g>
    </g>
    <text
       xml:space="preserve"
       id="text53"
       style="font-size:10.6667px;line-height:1;font-family:Sans;-inkscape-font-specification:'Sans, Normal';writing-mode:lr-tb;direction:ltr;white-space:pre;shape-inside:url(#rect53);display:inline;stroke-width:1.13386"
       transform="translate(253.79365,-46.416538)"><tspan
         x="116.41602"
         y="338.90328"
         id="tspan1">Cloudflare R2</tspan></text>
    <text
       xml:space="preserve"
       id="text54"
       style="font-size:10.6667px;line-height:1;font-family:Sans;-inkscape-font-specification:'Sans, Normal';writing-mode:lr-tb;direction:ltr;white-space:pre;shape-inside:url(#rect54);display:inline;stroke-width:1.13386"
       transform="translate(52.031442,-138.87529)"><tspan
         x="132.13672"
         y="424.24898"
         id="tspan2">Cloudflare Function</tspan></text>
    <text
       xml:space="preserve"
       style="font-size:10.6667px;line-height:1;font-family:Sans;-inkscape-font-specification:'Sans, Normal';text-align:center;writing-mode:lr-tb;direction:ltr;text-anchor:middle;stroke-width:1.13386"
       x="327.0687"
       y="238.07193"
       id="text55"><tspan
         id="tspan55"
         x="327.0687"
         y="238.07193">Topographic</tspan><tspan
         x="327.0687"
         y="248.73863"
         id="tspan56">map tiles</tspan></text>
    <text
       xml:space="preserve"
       style="font-size:10.6667px;line-height:1;font-family:Sans;-inkscape-font-specification:'Sans, Normal';writing-mode:lr-tb;direction:ltr;stroke-width:1.13386"
       x="193.52702"
       y="111.92376"
       id="text57"><tspan
         id="tspan57"
         x="193.52702"
         y="111.92376">Cloudflare CDN</tspan></text>
    <text
       xml:space="preserve"
       id="text58"
       style="font-size:10.6667px;line-height:1;font-family:Sans;-inkscape-font-specification:'Sans, Normal';writing-mode:lr-tb;direction:ltr;white-space:pre;shape-inside:url(#rect58);display:inline;stroke-width:1.13386"
       transform="translate(-227.59077,-214.86365)"><tspan
         x="371.70703"
         y="400.66695"
         id="tspan3">GET /elevation/*</tspan></text>
    <text
       xml:space="preserve"
       id="text59"
       style="font-size:10.6667px;line-height:1;font-family:Sans;-inkscape-font-specification:'Sans, Normal';writing-mode:lr-tb;direction:ltr;white-space:pre;shape-inside:url(#rect59);display:inline;stroke-width:1.13386"
       transform="translate(78.234327,-358.97952)"><tspan
         x="293.09766"
         y="475.90718"
         id="tspan4">waveguide.dev</tspan></text>
    <text
       xml:space="preserve"
       id="text60"
       style="font-size:10.6667px;line-height:1;font-family:Sans;-inkscape-font-specification:'Sans, Normal';writing-mode:lr-tb;direction:ltr;white-space:pre;shape-inside:url(#rect60);display:inline;stroke-width:1.13386"
       transform="translate(225.71913,120.15894)"><tspan
         x="148.98242"
         y="-85.95805"
         id="tspan5">Only serves
</tspan><tspan
         x="148.98242"
         y="-75.291347"
         id="tspan6">the frontend</tspan></text>
  </g>
</svg>
