<svg
   version="1.1"
   viewBox="0 0 576 574.56"
   id="svg27168"
   xmlns:xlink="http://www.w3.org/1999/xlink"
   xmlns="http://www.w3.org/2000/svg"
   xmlns:svg="http://www.w3.org/2000/svg">
  <defs
     id="defs26956">
    <style
       type="text/css"
       id="style26954">
*{stroke-linecap:butt;stroke-linejoin:round;}
  </style>
  </defs>
  <g
     id="figure_1">
    <g
       id="patch_1" />
    <g
       id="axes_1">
      <g
         id="patch_2" />
      <g
         id="matplotlib.axis_1">
        <g
           id="xtick_1">
          <g
             id="line2d_1">
            <defs
               id="defs26965">
              <path
                 d="M 0 0  L 0 6  "
                 id="ma7eaa54d57"
                 style="stroke-width:2;" />
            </defs>
            <g
               id="g26969">
              <use
                 style="stroke-width:2;"
                 x="59.274"
                 xlink:href="#ma7eaa54d57"
                 y="518.00175"
                 id="use26967" />
            </g>
          </g>
          <g
             id="text_1">
            <!-- -5.0 -->
            <defs
               id="defs26976">
              <path
                 d="M 5.421875 35.890625  L 36.078125 35.890625  L 36.078125 21.6875  L 5.421875 21.6875  z "
                 id="DejaVuSans-Bold-2d" />
              <path
                 d="M 10.59375 72.90625  L 57.328125 72.90625  L 57.328125 59.078125  L 25.59375 59.078125  L 25.59375 47.796875  Q 27.734375 48.390625 29.90625 48.703125  Q 32.078125 49.03125 34.421875 49.03125  Q 47.75 49.03125 55.171875 42.359375  Q 62.59375 35.6875 62.59375 23.78125  Q 62.59375 11.96875 54.515625 5.265625  Q 46.4375 -1.421875 32.078125 -1.421875  Q 25.875 -1.421875 19.796875 -0.21875  Q 13.71875 0.984375 7.71875 3.421875  L 7.71875 18.21875  Q 13.671875 14.796875 19.015625 13.078125  Q 24.359375 11.375 29.109375 11.375  Q 35.9375 11.375 39.859375 14.71875  Q 43.796875 18.0625 43.796875 23.78125  Q 43.796875 29.546875 39.859375 32.859375  Q 35.9375 36.1875 29.109375 36.1875  Q 25.046875 36.1875 20.453125 35.125  Q 15.875 34.078125 10.59375 31.890625  z "
                 id="DejaVuSans-Bold-35" />
              <path
                 d="M 10.203125 18.890625  L 27.78125 18.890625  L 27.78125 0  L 10.203125 0  z "
                 id="DejaVuSans-Bold-2e" />
              <path
                 d="M 46 36.53125  Q 46 50.203125 43.4375 55.78125  Q 40.875 61.375 34.8125 61.375  Q 28.765625 61.375 26.171875 55.78125  Q 23.578125 50.203125 23.578125 36.53125  Q 23.578125 22.703125 26.171875 17.03125  Q 28.765625 11.375 34.8125 11.375  Q 40.828125 11.375 43.40625 17.03125  Q 46 22.703125 46 36.53125  z M 64.796875 36.375  Q 64.796875 18.265625 56.984375 8.421875  Q 49.171875 -1.421875 34.8125 -1.421875  Q 20.40625 -1.421875 12.59375 8.421875  Q 4.78125 18.265625 4.78125 36.375  Q 4.78125 54.546875 12.59375 64.375  Q 20.40625 74.21875 34.8125 74.21875  Q 49.171875 74.21875 56.984375 64.375  Q 64.796875 54.546875 64.796875 36.375  z "
                 id="DejaVuSans-Bold-30" />
            </defs>
            <g
               transform="translate(43.531875 538.4435)scale(0.144 -0.144)"
               id="g26986">
              <use
                 xlink:href="#DejaVuSans-Bold-2d"
                 id="use26978" />
              <use
                 x="41.503906"
                 xlink:href="#DejaVuSans-Bold-35"
                 id="use26980" />
              <use
                 x="111.083984"
                 xlink:href="#DejaVuSans-Bold-2e"
                 id="use26982" />
              <use
                 x="149.072266"
                 xlink:href="#DejaVuSans-Bold-30"
                 id="use26984" />
            </g>
          </g>
        </g>
        <g
           id="xtick_2">
          <g
             id="line2d_2">
            <g
               id="g26992">
              <use
                 style="stroke-width:2;"
                 x="182.57175"
                 xlink:href="#ma7eaa54d57"
                 y="518.00175"
                 id="use26990" />
            </g>
          </g>
          <g
             id="text_2">
            <!-- -2.5 -->
            <defs
               id="defs26996">
              <path
                 d="M 28.8125 13.8125  L 60.890625 13.8125  L 60.890625 0  L 7.90625 0  L 7.90625 13.8125  L 34.515625 37.3125  Q 38.09375 40.53125 39.796875 43.609375  Q 41.5 46.6875 41.5 50  Q 41.5 55.125 38.0625 58.25  Q 34.625 61.375 28.90625 61.375  Q 24.515625 61.375 19.28125 59.5  Q 14.0625 57.625 8.109375 53.90625  L 8.109375 69.921875  Q 14.453125 72.015625 20.65625 73.109375  Q 26.859375 74.21875 32.8125 74.21875  Q 45.90625 74.21875 53.15625 68.453125  Q 60.40625 62.703125 60.40625 52.390625  Q 60.40625 46.4375 57.328125 41.28125  Q 54.25 36.140625 44.390625 27.484375  z "
                 id="DejaVuSans-Bold-32" />
            </defs>
            <g
               transform="translate(166.829625 538.4435)scale(0.144 -0.144)"
               id="g27006">
              <use
                 xlink:href="#DejaVuSans-Bold-2d"
                 id="use26998" />
              <use
                 x="41.503906"
                 xlink:href="#DejaVuSans-Bold-32"
                 id="use27000" />
              <use
                 x="111.083984"
                 xlink:href="#DejaVuSans-Bold-2e"
                 id="use27002" />
              <use
                 x="149.072266"
                 xlink:href="#DejaVuSans-Bold-35"
                 id="use27004" />
            </g>
          </g>
        </g>
        <g
           id="xtick_3">
          <g
             id="line2d_3">
            <g
               id="g27012">
              <use
                 style="stroke-width:2;"
                 x="305.8695"
                 xlink:href="#ma7eaa54d57"
                 y="518.00175"
                 id="use27010" />
            </g>
          </g>
          <g
             id="text_3">
            <!-- 0.0 -->
            <g
               transform="translate(293.115375 538.4435)scale(0.144 -0.144)"
               id="g27021">
              <use
                 xlink:href="#DejaVuSans-Bold-30"
                 id="use27015" />
              <use
                 x="69.580078"
                 xlink:href="#DejaVuSans-Bold-2e"
                 id="use27017" />
              <use
                 x="107.568359"
                 xlink:href="#DejaVuSans-Bold-30"
                 id="use27019" />
            </g>
          </g>
        </g>
        <g
           id="xtick_4">
          <g
             id="line2d_4">
            <g
               id="g27027">
              <use
                 style="stroke-width:2;"
                 x="429.16725"
                 xlink:href="#ma7eaa54d57"
                 y="518.00175"
                 id="use27025" />
            </g>
          </g>
          <g
             id="text_4">
            <!-- 2.5 -->
            <g
               transform="translate(416.413125 538.4435)scale(0.144 -0.144)"
               id="g27036">
              <use
                 xlink:href="#DejaVuSans-Bold-32"
                 id="use27030" />
              <use
                 x="69.580078"
                 xlink:href="#DejaVuSans-Bold-2e"
                 id="use27032" />
              <use
                 x="107.568359"
                 xlink:href="#DejaVuSans-Bold-35"
                 id="use27034" />
            </g>
          </g>
        </g>
        <g
           id="xtick_5">
          <g
             id="line2d_5">
            <g
               id="g27042">
              <use
                 style="stroke-width:2;"
                 x="552.465"
                 xlink:href="#ma7eaa54d57"
                 y="518.00175"
                 id="use27040" />
            </g>
          </g>
          <g
             id="text_5">
            <!-- 5.0 -->
            <g
               transform="translate(539.710875 538.4435)scale(0.144 -0.144)"
               id="g27051">
              <use
                 xlink:href="#DejaVuSans-Bold-35"
                 id="use27045" />
              <use
                 x="69.580078"
                 xlink:href="#DejaVuSans-Bold-2e"
                 id="use27047" />
              <use
                 x="107.568359"
                 xlink:href="#DejaVuSans-Bold-30"
                 id="use27049" />
            </g>
          </g>
        </g>
        <g
           id="text_6">
          <!-- $\mathbf{H}$ (kOe) -->
          <defs
             id="defs27062">
            <path
               d="M 9.1875 72.90625  L 27.984375 72.90625  L 27.984375 45.125  L 55.71875 45.125  L 55.71875 72.90625  L 74.515625 72.90625  L 74.515625 0  L 55.71875 0  L 55.71875 30.90625  L 27.984375 30.90625  L 27.984375 0  L 9.1875 0  z "
               id="DejaVuSans-Bold-48" />
            <path
               id="DejaVuSans-Bold-20" />
            <path
               d="M 37.703125 -13.1875  L 23.1875 -13.1875  Q 15.71875 -1.125 12.15625 9.734375  Q 8.59375 20.609375 8.59375 31.296875  Q 8.59375 42 12.171875 52.953125  Q 15.765625 63.921875 23.1875 75.875  L 37.703125 75.875  Q 31.453125 64.3125 28.328125 53.25  Q 25.203125 42.1875 25.203125 31.390625  Q 25.203125 20.609375 28.296875 9.515625  Q 31.390625 -1.5625 37.703125 -13.1875  z "
               id="DejaVuSans-Bold-28" />
            <path
               d="M 8.40625 75.984375  L 25.875 75.984375  L 25.875 34.625  L 46 54.6875  L 66.3125 54.6875  L 39.59375 29.59375  L 68.40625 0  L 47.21875 0  L 25.875 22.796875  L 25.875 0  L 8.40625 0  z "
               id="DejaVuSans-Bold-6b" />
            <path
               d="M 42.484375 60.59375  Q 33.890625 60.59375 29.15625 54.25  Q 24.421875 47.90625 24.421875 36.375  Q 24.421875 24.90625 29.15625 18.546875  Q 33.890625 12.203125 42.484375 12.203125  Q 51.125 12.203125 55.859375 18.546875  Q 60.59375 24.90625 60.59375 36.375  Q 60.59375 47.90625 55.859375 54.25  Q 51.125 60.59375 42.484375 60.59375  z M 42.484375 74.21875  Q 60.0625 74.21875 70.015625 64.15625  Q 79.984375 54.109375 79.984375 36.375  Q 79.984375 18.703125 70.015625 8.640625  Q 60.0625 -1.421875 42.484375 -1.421875  Q 24.953125 -1.421875 14.96875 8.640625  Q 4.984375 18.703125 4.984375 36.375  Q 4.984375 54.109375 14.96875 64.15625  Q 24.953125 74.21875 42.484375 74.21875  z "
               id="DejaVuSans-Bold-4f" />
            <path
               d="M 62.984375 27.484375  L 62.984375 22.515625  L 22.125 22.515625  Q 22.75 16.359375 26.5625 13.28125  Q 30.375 10.203125 37.203125 10.203125  Q 42.71875 10.203125 48.5 11.84375  Q 54.296875 13.484375 60.40625 16.796875  L 60.40625 3.328125  Q 54.203125 0.984375 48 -0.21875  Q 41.796875 -1.421875 35.59375 -1.421875  Q 20.75 -1.421875 12.515625 6.125  Q 4.296875 13.671875 4.296875 27.296875  Q 4.296875 40.671875 12.375 48.328125  Q 20.453125 56 34.625 56  Q 47.515625 56 55.25 48.234375  Q 62.984375 40.484375 62.984375 27.484375  z M 45.015625 33.296875  Q 45.015625 38.28125 42.109375 41.328125  Q 39.203125 44.390625 34.515625 44.390625  Q 29.4375 44.390625 26.265625 41.53125  Q 23.09375 38.671875 22.3125 33.296875  z "
               id="DejaVuSans-Bold-65" />
            <path
               d="M 8.015625 -13.1875  Q 14.265625 -1.5625 17.390625 9.515625  Q 20.515625 20.609375 20.515625 31.390625  Q 20.515625 42.1875 17.390625 53.25  Q 14.265625 64.3125 8.015625 75.875  L 22.515625 75.875  Q 29.9375 63.921875 33.515625 52.953125  Q 37.109375 42 37.109375 31.296875  Q 37.109375 20.609375 33.546875 9.734375  Q 29.984375 -1.125 22.515625 -13.1875  z "
               id="DejaVuSans-Bold-29" />
          </defs>
          <g
             transform="translate(268.7175 558.56835)scale(0.1728 -0.1728)"
             id="g27078">
            <use
               transform="translate(0 0.015625)"
               xlink:href="#DejaVuSans-Bold-48"
               id="use27064" />
            <use
               transform="translate(83.691406 0.015625)"
               xlink:href="#DejaVuSans-Bold-20"
               id="use27066" />
            <use
               transform="translate(118.505859 0.015625)"
               xlink:href="#DejaVuSans-Bold-28"
               id="use27068" />
            <use
               transform="translate(164.208984 0.015625)"
               xlink:href="#DejaVuSans-Bold-6b"
               id="use27070" />
            <use
               transform="translate(230.712891 0.015625)"
               xlink:href="#DejaVuSans-Bold-4f"
               id="use27072" />
            <use
               transform="translate(315.722656 0.015625)"
               xlink:href="#DejaVuSans-Bold-65"
               id="use27074" />
            <use
               transform="translate(383.544922 0.015625)"
               xlink:href="#DejaVuSans-Bold-29"
               id="use27076" />
          </g>
        </g>
      </g>
      <g
         id="matplotlib.axis_2">
        <g
           id="ytick_1">
          <g
             id="line2d_6">
            <defs
               id="defs27083">
              <path
                 d="M 0 0  L -6 0  "
                 id="mb6ffbc375e"
                 style="stroke-width:2;" />
            </defs>
            <g
               id="g27087">
              <use
                 style="stroke-width:2;"
                 x="59.274"
                 xlink:href="#mb6ffbc375e"
                 y="495.14177"
                 id="use27085" />
            </g>
          </g>
          <g
             id="text_7">
            <!-- -1 -->
            <defs
               id="defs27091">
              <path
                 d="M 11.71875 12.984375  L 28.328125 12.984375  L 28.328125 60.109375  L 11.28125 56.59375  L 11.28125 69.390625  L 28.21875 72.90625  L 46.09375 72.90625  L 46.09375 12.984375  L 62.703125 12.984375  L 62.703125 0  L 11.71875 0  z "
                 id="DejaVuSans-Bold-31" />
            </defs>
            <g
               transform="translate(33.77875 500.612645)scale(0.144 -0.144)"
               id="g27097">
              <use
                 xlink:href="#DejaVuSans-Bold-2d"
                 id="use27093" />
              <use
                 x="41.503906"
                 xlink:href="#DejaVuSans-Bold-31"
                 id="use27095" />
            </g>
          </g>
        </g>
        <g
           id="ytick_2">
          <g
             id="line2d_7">
            <g
               id="g27103">
              <use
                 style="stroke-width:2;"
                 x="59.274"
                 xlink:href="#mb6ffbc375e"
                 y="266.541975"
                 id="use27101" />
            </g>
          </g>
          <g
             id="text_8">
            <!-- 0 -->
            <g
               transform="translate(39.75475 272.01285)scale(0.144 -0.144)"
               id="g27108">
              <use
                 xlink:href="#DejaVuSans-Bold-30"
                 id="use27106" />
            </g>
          </g>
        </g>
        <g
           id="ytick_3">
          <g
             id="line2d_8">
            <g
               id="g27114">
              <use
                 style="stroke-width:2;"
                 x="59.274"
                 xlink:href="#mb6ffbc375e"
                 y="37.94218"
                 id="use27112" />
            </g>
          </g>
          <g
             id="text_9">
            <!-- 1 -->
            <g
               transform="translate(39.75475 43.413055)scale(0.144 -0.144)"
               id="g27119">
              <use
                 xlink:href="#DejaVuSans-Bold-31"
                 id="use27117" />
            </g>
          </g>
        </g>
        <g
           id="text_10">
          <!-- $\mathbf{M/M_s}$ -->
          <defs
             id="defs27126">
            <path
               d="M 9.1875 72.90625  L 33.109375 72.90625  L 49.703125 33.890625  L 66.40625 72.90625  L 90.28125 72.90625  L 90.28125 0  L 72.515625 0  L 72.515625 53.328125  L 55.71875 14.015625  L 43.796875 14.015625  L 27 53.328125  L 27 0  L 9.1875 0  z "
               id="DejaVuSans-Bold-4d" />
            <path
               d="M 25.6875 72.90625  L 36.53125 72.90625  L 10.796875 -9.28125  L 0 -9.28125  z "
               id="DejaVuSans-Bold-2f" />
            <path
               d="M 51.125 52.984375  L 51.125 39.703125  Q 45.515625 42.046875 40.28125 43.21875  Q 35.0625 44.390625 30.421875 44.390625  Q 25.4375 44.390625 23.015625 43.140625  Q 20.609375 41.890625 20.609375 39.3125  Q 20.609375 37.203125 22.4375 36.078125  Q 24.265625 34.96875 29 34.421875  L 32.078125 33.984375  Q 45.515625 32.28125 50.140625 28.375  Q 54.78125 24.46875 54.78125 16.109375  Q 54.78125 7.375 48.328125 2.96875  Q 41.890625 -1.421875 29.109375 -1.421875  Q 23.6875 -1.421875 17.890625 -0.5625  Q 12.109375 0.296875 6 2  L 6 15.28125  Q 11.234375 12.75 16.71875 11.46875  Q 22.21875 10.203125 27.875 10.203125  Q 33.015625 10.203125 35.59375 11.609375  Q 38.1875 13.03125 38.1875 15.828125  Q 38.1875 18.171875 36.40625 19.3125  Q 34.625 20.453125 29.296875 21.09375  L 26.21875 21.484375  Q 14.546875 22.953125 9.859375 26.90625  Q 5.171875 30.859375 5.171875 38.921875  Q 5.171875 47.609375 11.125 51.796875  Q 17.09375 56 29.390625 56  Q 34.234375 56 39.546875 55.265625  Q 44.875 54.546875 51.125 52.984375  z "
               id="DejaVuSans-Bold-73" />
          </defs>
          <g
             transform="translate(26.18505 290.820375)rotate(-90)scale(0.1728 -0.1728)"
             id="g27136">
            <use
               transform="translate(0 0.09375)"
               xlink:href="#DejaVuSans-Bold-4d"
               id="use27128" />
            <use
               transform="translate(99.511719 0.09375)"
               xlink:href="#DejaVuSans-Bold-2f"
               id="use27130" />
            <use
               transform="translate(136.035156 0.09375)"
               xlink:href="#DejaVuSans-Bold-4d"
               id="use27132" />
            <use
               transform="translate(236.503906 -16.3125)scale(0.7)"
               xlink:href="#DejaVuSans-Bold-73"
               id="use27134" />
          </g>
        </g>
      </g>
      <g
         id="line2d_9">
        <path
           clip-path="url(#p63bd3f4f8c)"
           d="M 577 41.714811  L 575.037908 41.916983  L 572.488505 41.819754  L 567.385705 42.172705  L 565.217292 41.956199  L 562.681452 41.966681  L 560.117105 42.345113  L 557.59902 41.854634  L 552.917552 42.741618  L 550.330321 41.944452  L 547.760944 42.271198  L 545.225301 42.148488  L 540.518138 42.607161  L 537.959858 42.139632  L 535.442266 42.475595  L 532.895033 42.350716  L 530.36738 42.998063  L 528.180324 42.622703  L 525.607446 43.298784  L 523.056514 42.743064  L 520.520871 42.495474  L 518.354727 42.937882  L 515.808579 42.845352  L 513.260014 42.60951  L 510.715198 42.726076  L 508.191885 43.313604  L 506.013362 43.30276  L 503.465438 42.842461  L 500.917121 43.722759  L 498.378075 43.468482  L 495.840459 42.831618  L 493.665487 43.131255  L 488.550307 43.640349  L 486.028375 43.34776  L 483.488342 43.476615  L 481.318697 43.824505  L 478.743253 43.525952  L 476.216734 42.999147  L 473.683114 43.423483  L 471.137853 43.733963  L 468.967862 43.819987  L 466.426498 43.444627  L 463.869994 44.040107  L 461.342192 43.724024  L 458.82899 44.018962  L 456.598484 43.873662  L 454.071719 44.237997  L 449.007486 43.912878  L 446.448416 44.353117  L 444.266046 44.065046  L 441.726408 43.862637  L 439.273572 44.325648  L 436.649599 44.696128  L 434.101577 44.509804  L 431.899775 44.106612  L 429.36137 44.572333  L 426.841065 44.779622  L 424.285991 44.517032  L 421.731409 45.302632  L 419.564229 45.326668  L 417.009944 44.637213  L 414.485447 45.172873  L 411.931704 45.349981  L 409.362376 44.758658  L 407.179118 44.999741  L 404.641404 45.516607  L 402.124798 45.024319  L 399.581758 45.681064  L 392.341319 45.360101  L 389.794037 45.413414  L 384.707314 46.151303  L 382.553204 45.452992  L 379.99882 46.006183  L 377.432155 46.027689  L 374.866477 46.35082  L 370.149549 46.006364  L 367.651093 46.555759  L 360.331448 46.467747  L 357.796397 47.477623  L 355.271505 46.925517  L 352.711361 47.393226  L 350.183505 47.706056  L 348.001515 47.521177  L 345.484899 47.128829  L 342.930713 48.054669  L 340.353661 48.332439  L 337.809052 48.434727  L 333.105356 49.233519  L 328.027171 50.078034  L 325.64679 51.249114  L 323.308502 51.29339  L 320.859054 51.755497  L 318.236343 53.501634  L 315.665343 54.627534  L 308.442629 58.549566  L 305.93699 60.425281  L 303.390615 61.442747  L 300.857945 63.427438  L 296.146274 68.039648  L 293.560824 71.354092  L 291.019637 74.349923  L 288.491782 77.951535  L 286.332592 81.687424  L 283.773744 85.78819  L 281.215109 92.064852  L 276.156513 107.769191  L 273.989772 117.060714  L 271.436221 130.617225  L 268.913564 146.774979  L 266.327843 165.23  L 263.797526 186.469137  L 256.516173 254.908214  L 253.99207 279.751097  L 251.465256 302.897689  L 246.702855 341.227901  L 244.164944 358.920618  L 241.647943 374.63882  L 239.096864 388.976376  L 234.37747 409.787255  L 231.849619 419.389439  L 227.124011 433.758947  L 224.567408 439.793025  L 222.01544 446.375685  L 219.460957 451.593694  L 216.941639 455.500907  L 214.750342 458.435835  L 212.224119 462.835697  L 209.68389 466.316405  L 204.60782 470.926266  L 202.462439 472.213369  L 199.85405 474.53583  L 197.318112 475.7595  L 194.805106 477.58136  L 192.246333 478.281297  L 190.071212 479.608159  L 184.965699 481.006406  L 182.450178 482.364533  L 179.893526 482.780013  L 177.700009 482.912663  L 175.161753 483.861816  L 172.617577 483.796033  L 170.089086 484.405609  L 167.539042 485.230064  L 165.367472 484.998197  L 162.830054 485.346991  L 160.300428 485.838013  L 157.771641 486.096626  L 155.262038 486.957406  L 153.025565 486.657046  L 150.496334 486.724094  L 142.827608 487.252525  L 140.67261 487.917402  L 135.613358 487.645777  L 130.473173 488.866374  L 128.296228 488.05457  L 125.752053 488.0421  L 123.243043 487.816198  L 120.677365 488.177642  L 118.159526 488.033426  L 115.969561 488.427942  L 113.436975 488.037221  L 110.887819 488.784688  L 108.352669 488.919326  L 105.780185 488.548484  L 103.605854 488.805109  L 101.075192 488.710953  L 98.549265 489.110168  L 96.013869 488.768061  L 93.444196 488.974265  L 91.290431 488.26222  L 88.790248 489.537396  L 86.203116 489.119747  L 83.635071 488.442039  L 81.475092 489.713058  L 78.933678 489.06047  L 71.293558 489.144506  L 69.108524 489.767274  L 66.575693 489.034807  L 64.05958 489.247879  L 61.465445 490.150767  L 58.926152 490.058056  L 56.753942 489.794021  L 54.22259 490.172995  L 49.115597 489.639865  L 46.598695 489.661552  L 44.41016 490.050285  L 41.909879 490.273477  L 39.342327 489.312758  L 36.835042 489.966972  L 34.217333 490.242212  L 32.107018 489.559624  L 29.504547 490.464681  L 26.951495 489.699323  L 24.435777 490.577271  L 21.898309 490.00402  L 17.190456 490.748596  L 14.630005 489.940767  L 12.091453 490.901667  L 9.58698 490.668897  L 4.880113 489.347276  L 2.223687 490.954077  L -0.318811 490.08408  L -1 490.238052  M -1 490.402423  L -0.230234 490.31667  L 2.315618 490.203718  L 9.637877 490.654801  L 14.708817 490.46197  L 17.302805 489.977816  L 19.81803 490.460886  L 27.05901 489.856551  L 29.615219 490.115345  L 32.172365 489.840105  L 34.31385 489.994261  L 36.877408 489.944563  L 39.438647 490.514199  L 42.000676 489.735286  L 44.521917 489.889081  L 46.678 489.53342  L 49.232631 489.575528  L 51.770247 489.386312  L 54.310082 489.867394  L 56.846021 489.94402  L 59.022621 489.60354  L 61.556143 489.627215  L 64.13489 489.405649  L 66.67369 489.059928  L 69.198877 489.418842  L 71.372764 489.529625  L 73.911169 489.772154  L 76.483012 488.965049  L 79.018014 489.263782  L 81.549859 489.712154  L 83.719259 489.399143  L 88.91616 488.946073  L 91.364262 489.512094  L 93.566261 488.963964  L 96.078872 488.830772  L 98.648101 489.682515  L 101.164559 488.836736  L 103.705873 488.616435  L 105.860427 489.039687  L 108.447806 488.997217  L 110.966878 488.329449  L 113.519289 488.530231  L 116.06953 489.027759  L 118.236464 488.521556  L 123.320276 488.871434  L 128.380613 488.360171  L 130.554155 488.224268  L 133.130536 488.373003  L 135.69868 488.396316  L 138.205669 487.895354  L 140.756502 487.772102  L 142.910119 488.043727  L 145.494637 488.197883  L 148.057553 487.908185  L 150.577661 488.291136  L 155.340456 487.740475  L 157.864262 487.903667  L 160.387822 487.889571  L 165.442881 486.889274  L 167.629345 487.175357  L 170.169969 488.126317  L 172.701519 487.278549  L 179.990881 487.332766  L 182.533429 487.029153  L 185.061526 487.276561  L 187.594309 487.339814  L 190.148742 486.834154  L 192.331655 486.704395  L 197.402053 486.920719  L 199.941542 486.631383  L 202.552496 486.604456  L 204.689344 487.066562  L 209.766203 486.352168  L 212.308899 486.348011  L 214.829647 486.786443  L 217.025383 486.314939  L 219.54475 486.475782  L 224.649475 485.711146  L 227.203908 485.911748  L 229.386771 485.527352  L 231.932673 486.123012  L 234.47379 485.848676  L 237.011751 486.028133  L 239.196735 485.95494  L 241.733216 484.995848  L 244.258453 485.376991  L 246.788473 485.215064  L 251.54096 484.657717  L 256.603665 485.064341  L 259.150039 484.562476  L 261.703269 484.953378  L 263.878789 484.334043  L 266.415113 484.032237  L 271.530169 483.854226  L 274.071997 483.315493  L 276.239966 483.368264  L 278.777991 482.661098  L 281.309215 481.806102  L 283.860304 481.485139  L 286.416903 480.221891  L 291.107001 479.812556  L 296.225229 477.729552  L 298.772625 476.506063  L 303.477655 473.731436  L 306.02312 471.822648  L 308.500495 470.281269  L 311.036702 468.040133  L 313.21559 466.338454  L 318.306791 461.077089  L 320.915421 457.734091  L 323.385588 454.339044  L 325.650804 450.605144  L 328.100721 445.618785  L 330.662567 440.13815  L 333.189722 434.125614  L 335.729083 424.439268  L 337.894433 415.468925  L 340.446909 402.990801  L 343.003774 387.302383  L 345.56562 368.315496  L 350.249618 327.787124  L 352.83673 303.454548  L 355.356384 277.908472  L 360.411887 230.639097  L 365.16107 191.690598  L 367.716194 173.420383  L 370.229594 157.550682  L 374.935376 133.332323  L 377.511658 123.114671  L 382.618798 105.103485  L 384.819022 98.899745  L 389.872504 86.318158  L 392.42166 81.58893  L 394.935208 76.07582  L 399.653714 69.351149  L 402.206915 66.118391  L 404.716912 63.434124  L 407.288705 61.262205  L 409.432459 59.294322  L 412.043165 57.547823  L 417.089939 54.602955  L 419.643387 53.594706  L 421.815893 52.511458  L 424.366726 51.573148  L 426.911592 50.13713  L 429.452117 49.888095  L 431.984702 48.566835  L 434.18463 48.958822  L 436.738077 48.14756  L 439.308983 48.781895  L 441.803247 47.033408  L 444.336375 46.414615  L 446.520422 46.537687  L 449.084029 45.653594  L 451.591215 45.077813  L 454.147571 45.835581  L 456.687061 44.994681  L 458.907456 44.638116  L 461.441324 45.293596  L 463.958127 44.868356  L 469.038191 44.331431  L 471.235505 43.746975  L 473.759657 43.461073  L 478.823841 43.702337  L 481.397015 43.542759  L 483.56676 44.308118  L 486.101712 43.576193  L 488.635826 43.508061  L 491.182862 43.286857  L 493.739811 43.460892  L 495.953005 43.164508  L 498.465271 42.659209  L 500.989916 43.35282  L 503.539466 43.027882  L 506.105293 42.280415  L 508.261721 42.766558  L 510.797758 42.403487  L 513.341342 42.71469  L 515.900411 43.241676  L 518.434673 43.067279  L 520.60062 42.460595  L 523.139715 42.828907  L 525.692472 42.706558  L 528.254698 42.426619  L 530.447129 42.50433  L 532.974338 42.386499  L 535.52093 41.975898  L 538.049224 42.373306  L 540.590736 42.493125  L 545.303768 41.872164  L 547.852382 42.122283  L 550.41229 42.191138  L 555.130944 42.54192  L 557.676352 41.884091  L 560.193944 42.250596  L 562.756762 41.810899  L 575.121307 41.450358  L 577 42.078017  L 577 42.078017  "
           style="stroke-dasharray:none;stroke-miterlimit:4;stroke-linecap:square;stroke-width:6;fill:none;"
           id="curve" />
      </g>
      <g
         id="line2d_10">
        <path
           clip-path="url(#p63bd3f4f8c)"
           d="M 59.274 266.541975  L 552.465 266.541975  "
           style="fill:none;opacity:1;stroke-linecap:square;stroke-width:2;stroke-opacity:1"
           id="path27143" />
      </g>
      <g
         id="line2d_11">
        <path
           clip-path="url(#p63bd3f4f8c)"
           d="M 305.8695 518.00175  L 305.8695 15.0822  "
           style="fill:none;opacity:1;stroke-linecap:square;stroke-width:2.00125985;stroke-opacity:1;stroke-miterlimit:4;stroke-dasharray:none"
           id="path27146" />
      </g>
      <g
         id="patch_3">
        <path
           d="M 59.274 518.00175  L 59.274 15.0822  "
           style="fill:none;stroke-linecap:square;stroke-linejoin:miter;stroke-width:2;"
           id="path27149" />
      </g>
      <g
         id="patch_4">
        <path
           d="M 552.465 518.00175  L 552.465 15.0822  "
           style="fill:none;stroke-linecap:square;stroke-linejoin:miter;stroke-width:2;"
           id="path27152" />
      </g>
      <g
         id="patch_5">
        <path
           d="M 59.274 518.00175  L 552.465 518.00175  "
           style="fill:none;stroke-linecap:square;stroke-linejoin:miter;stroke-width:2;"
           id="path27155" />
      </g>
      <g
         id="patch_6">
        <path
           d="M 59.274 15.0822  L 552.465 15.0822  "
           style="fill:none;stroke-linecap:square;stroke-linejoin:miter;stroke-width:2.00125985;stroke-miterlimit:4;stroke-dasharray:none"
           id="path27158" />
      </g>
    </g>
  </g>
  <defs
     id="defs27166">
    <clipPath
       id="p63bd3f4f8c">
      <rect
         height="502.91955"
         width="493.191"
         x="59.274"
         y="15.0822"
         id="rect27163" />
    </clipPath>
  </defs>
</svg>
