<?xml version="1.0" encoding="utf-8" standalone="no"?>
<!DOCTYPE svg PUBLIC "-//W3C//DTD SVG 1.1//EN"
  "http://www.w3.org/Graphics/SVG/1.1/DTD/svg11.dtd">
<!-- Created with matplotlib (http://matplotlib.org/) -->
<svg height="574.56pt" version="1.1" viewBox="0 0 576 574.56" width="576pt" xmlns="http://www.w3.org/2000/svg" xmlns:xlink="http://www.w3.org/1999/xlink">
 <defs>
  <style type="text/css">
*{stroke-linecap:butt;stroke-linejoin:round;}
  </style>
 </defs>
 <g id="figure_1">
  <g id="patch_1">
   <path d="M 0 574.56 
L 576 574.56 
L 576 0 
L 0 0 
z
" style="fill:#ffffff;"/>
  </g>
  <g id="axes_1">
   <g id="patch_2">
    <path d="M 86.4 492.14655 
L 538.605 492.14655 
L 538.605 15.0822 
L 86.4 15.0822 
z
" style="fill:#ffffff;"/>
   </g>
   <g id="matplotlib.axis_1">
    <g id="xtick_1">
     <g id="line2d_1">
      <defs>
       <path d="M 0 0 
L 0 6 
" id="ma86dec2413" style="stroke:#000000;stroke-width:2;"/>
      </defs>
      <g>
       <use style="stroke:#000000;stroke-width:2;" x="86.4" xlink:href="#ma86dec2413" y="492.14655"/>
      </g>
     </g>
     <g id="text_1">
      <!-- -5.0 -->
      <defs>
       <path d="M 5.421875 35.890625 
L 36.078125 35.890625 
L 36.078125 21.6875 
L 5.421875 21.6875 
z
" id="DejaVuSans-Bold-2d"/>
       <path d="M 10.59375 72.90625 
L 57.328125 72.90625 
L 57.328125 59.078125 
L 25.59375 59.078125 
L 25.59375 47.796875 
Q 27.734375 48.390625 29.90625 48.703125 
Q 32.078125 49.03125 34.421875 49.03125 
Q 47.75 49.03125 55.171875 42.359375 
Q 62.59375 35.6875 62.59375 23.78125 
Q 62.59375 11.96875 54.515625 5.265625 
Q 46.4375 -1.421875 32.078125 -1.421875 
Q 25.875 -1.421875 19.796875 -0.21875 
Q 13.71875 0.984375 7.71875 3.421875 
L 7.71875 18.21875 
Q 13.671875 14.796875 19.015625 13.078125 
Q 24.359375 11.375 29.109375 11.375 
Q 35.9375 11.375 39.859375 14.71875 
Q 43.796875 18.0625 43.796875 23.78125 
Q 43.796875 29.546875 39.859375 32.859375 
Q 35.9375 36.1875 29.109375 36.1875 
Q 25.046875 36.1875 20.453125 35.125 
Q 15.875 34.078125 10.59375 31.890625 
z
" id="DejaVuSans-Bold-35"/>
       <path d="M 10.203125 18.890625 
L 27.78125 18.890625 
L 27.78125 0 
L 10.203125 0 
z
" id="DejaVuSans-Bold-2e"/>
       <path d="M 46 36.53125 
Q 46 50.203125 43.4375 55.78125 
Q 40.875 61.375 34.8125 61.375 
Q 28.765625 61.375 26.171875 55.78125 
Q 23.578125 50.203125 23.578125 36.53125 
Q 23.578125 22.703125 26.171875 17.03125 
Q 28.765625 11.375 34.8125 11.375 
Q 40.828125 11.375 43.40625 17.03125 
Q 46 22.703125 46 36.53125 
z
M 64.796875 36.375 
Q 64.796875 18.265625 56.984375 8.421875 
Q 49.171875 -1.421875 34.8125 -1.421875 
Q 20.40625 -1.421875 12.59375 8.421875 
Q 4.78125 18.265625 4.78125 36.375 
Q 4.78125 54.546875 12.59375 64.375 
Q 20.40625 74.21875 34.8125 74.21875 
Q 49.171875 74.21875 56.984375 64.375 
Q 64.796875 54.546875 64.796875 36.375 
z
" id="DejaVuSans-Bold-30"/>
      </defs>
      <g transform="translate(53.603906 524.441863)scale(0.3 -0.3)">
       <use xlink:href="#DejaVuSans-Bold-2d"/>
       <use x="41.503906" xlink:href="#DejaVuSans-Bold-35"/>
       <use x="111.083984" xlink:href="#DejaVuSans-Bold-2e"/>
       <use x="149.072266" xlink:href="#DejaVuSans-Bold-30"/>
      </g>
     </g>
    </g>
    <g id="xtick_2">
     <g id="line2d_2">
      <g>
       <use style="stroke:#000000;stroke-width:2;" x="199.45125" xlink:href="#ma86dec2413" y="492.14655"/>
      </g>
     </g>
     <g id="text_2">
      <!-- -2.5 -->
      <defs>
       <path d="M 28.8125 13.8125 
L 60.890625 13.8125 
L 60.890625 0 
L 7.90625 0 
L 7.90625 13.8125 
L 34.515625 37.3125 
Q 38.09375 40.53125 39.796875 43.609375 
Q 41.5 46.6875 41.5 50 
Q 41.5 55.125 38.0625 58.25 
Q 34.625 61.375 28.90625 61.375 
Q 24.515625 61.375 19.28125 59.5 
Q 14.0625 57.625 8.109375 53.90625 
L 8.109375 69.921875 
Q 14.453125 72.015625 20.65625 73.109375 
Q 26.859375 74.21875 32.8125 74.21875 
Q 45.90625 74.21875 53.15625 68.453125 
Q 60.40625 62.703125 60.40625 52.390625 
Q 60.40625 46.4375 57.328125 41.28125 
Q 54.25 36.140625 44.390625 27.484375 
z
" id="DejaVuSans-Bold-32"/>
      </defs>
      <g transform="translate(166.655156 524.441863)scale(0.3 -0.3)">
       <use xlink:href="#DejaVuSans-Bold-2d"/>
       <use x="41.503906" xlink:href="#DejaVuSans-Bold-32"/>
       <use x="111.083984" xlink:href="#DejaVuSans-Bold-2e"/>
       <use x="149.072266" xlink:href="#DejaVuSans-Bold-35"/>
      </g>
     </g>
    </g>
    <g id="xtick_3">
     <g id="line2d_3">
      <g>
       <use style="stroke:#000000;stroke-width:2;" x="312.5025" xlink:href="#ma86dec2413" y="492.14655"/>
      </g>
     </g>
     <g id="text_3">
      <!-- 0.0 -->
      <g transform="translate(285.931406 524.441863)scale(0.3 -0.3)">
       <use xlink:href="#DejaVuSans-Bold-30"/>
       <use x="69.580078" xlink:href="#DejaVuSans-Bold-2e"/>
       <use x="107.568359" xlink:href="#DejaVuSans-Bold-30"/>
      </g>
     </g>
    </g>
    <g id="xtick_4">
     <g id="line2d_4">
      <g>
       <use style="stroke:#000000;stroke-width:2;" x="425.55375" xlink:href="#ma86dec2413" y="492.14655"/>
      </g>
     </g>
     <g id="text_4">
      <!-- 2.5 -->
      <g transform="translate(398.982656 524.441863)scale(0.3 -0.3)">
       <use xlink:href="#DejaVuSans-Bold-32"/>
       <use x="69.580078" xlink:href="#DejaVuSans-Bold-2e"/>
       <use x="107.568359" xlink:href="#DejaVuSans-Bold-35"/>
      </g>
     </g>
    </g>
    <g id="xtick_5">
     <g id="line2d_5">
      <g>
       <use style="stroke:#000000;stroke-width:2;" x="538.605" xlink:href="#ma86dec2413" y="492.14655"/>
      </g>
     </g>
     <g id="text_5">
      <!-- 5.0 -->
      <g transform="translate(512.033906 524.441863)scale(0.3 -0.3)">
       <use xlink:href="#DejaVuSans-Bold-35"/>
       <use x="69.580078" xlink:href="#DejaVuSans-Bold-2e"/>
       <use x="107.568359" xlink:href="#DejaVuSans-Bold-30"/>
      </g>
     </g>
    </g>
    <g id="text_6">
     <!-- $\mathbf{H}$ (kOe) -->
     <defs>
      <path d="M 9.1875 72.90625 
L 27.984375 72.90625 
L 27.984375 45.125 
L 55.71875 45.125 
L 55.71875 72.90625 
L 74.515625 72.90625 
L 74.515625 0 
L 55.71875 0 
L 55.71875 30.90625 
L 27.984375 30.90625 
L 27.984375 0 
L 9.1875 0 
z
" id="DejaVuSans-Bold-48"/>
      <path id="DejaVuSans-Bold-20"/>
      <path d="M 37.703125 -13.1875 
L 23.1875 -13.1875 
Q 15.71875 -1.125 12.15625 9.734375 
Q 8.59375 20.609375 8.59375 31.296875 
Q 8.59375 42 12.171875 52.953125 
Q 15.765625 63.921875 23.1875 75.875 
L 37.703125 75.875 
Q 31.453125 64.3125 28.328125 53.25 
Q 25.203125 42.1875 25.203125 31.390625 
Q 25.203125 20.609375 28.296875 9.515625 
Q 31.390625 -1.5625 37.703125 -13.1875 
z
" id="DejaVuSans-Bold-28"/>
      <path d="M 8.40625 75.984375 
L 25.875 75.984375 
L 25.875 34.625 
L 46 54.6875 
L 66.3125 54.6875 
L 39.59375 29.59375 
L 68.40625 0 
L 47.21875 0 
L 25.875 22.796875 
L 25.875 0 
L 8.40625 0 
z
" id="DejaVuSans-Bold-6b"/>
      <path d="M 42.484375 60.59375 
Q 33.890625 60.59375 29.15625 54.25 
Q 24.421875 47.90625 24.421875 36.375 
Q 24.421875 24.90625 29.15625 18.546875 
Q 33.890625 12.203125 42.484375 12.203125 
Q 51.125 12.203125 55.859375 18.546875 
Q 60.59375 24.90625 60.59375 36.375 
Q 60.59375 47.90625 55.859375 54.25 
Q 51.125 60.59375 42.484375 60.59375 
z
M 42.484375 74.21875 
Q 60.0625 74.21875 70.015625 64.15625 
Q 79.984375 54.109375 79.984375 36.375 
Q 79.984375 18.703125 70.015625 8.640625 
Q 60.0625 -1.421875 42.484375 -1.421875 
Q 24.953125 -1.421875 14.96875 8.640625 
Q 4.984375 18.703125 4.984375 36.375 
Q 4.984375 54.109375 14.96875 64.15625 
Q 24.953125 74.21875 42.484375 74.21875 
z
" id="DejaVuSans-Bold-4f"/>
      <path d="M 62.984375 27.484375 
L 62.984375 22.515625 
L 22.125 22.515625 
Q 22.75 16.359375 26.5625 13.28125 
Q 30.375 10.203125 37.203125 10.203125 
Q 42.71875 10.203125 48.5 11.84375 
Q 54.296875 13.484375 60.40625 16.796875 
L 60.40625 3.328125 
Q 54.203125 0.984375 48 -0.21875 
Q 41.796875 -1.421875 35.59375 -1.421875 
Q 20.75 -1.421875 12.515625 6.125 
Q 4.296875 13.671875 4.296875 27.296875 
Q 4.296875 40.671875 12.375 48.328125 
Q 20.453125 56 34.625 56 
Q 47.515625 56 55.25 48.234375 
Q 62.984375 40.484375 62.984375 27.484375 
z
M 45.015625 33.296875 
Q 45.015625 38.28125 42.109375 41.328125 
Q 39.203125 44.390625 34.515625 44.390625 
Q 29.4375 44.390625 26.265625 41.53125 
Q 23.09375 38.671875 22.3125 33.296875 
z
" id="DejaVuSans-Bold-65"/>
      <path d="M 8.015625 -13.1875 
Q 14.265625 -1.5625 17.390625 9.515625 
Q 20.515625 20.609375 20.515625 31.390625 
Q 20.515625 42.1875 17.390625 53.25 
Q 14.265625 64.3125 8.015625 75.875 
L 22.515625 75.875 
Q 29.9375 63.921875 33.515625 52.953125 
Q 37.109375 42 37.109375 31.296875 
Q 37.109375 20.609375 33.546875 9.734375 
Q 29.984375 -1.125 22.515625 -13.1875 
z
" id="DejaVuSans-Bold-29"/>
     </defs>
     <g transform="translate(248.0025 557.476238)scale(0.3 -0.3)">
      <use transform="translate(0 0.015625)" xlink:href="#DejaVuSans-Bold-48"/>
      <use transform="translate(83.691406 0.015625)" xlink:href="#DejaVuSans-Bold-20"/>
      <use transform="translate(118.505859 0.015625)" xlink:href="#DejaVuSans-Bold-28"/>
      <use transform="translate(164.208984 0.015625)" xlink:href="#DejaVuSans-Bold-6b"/>
      <use transform="translate(230.712891 0.015625)" xlink:href="#DejaVuSans-Bold-4f"/>
      <use transform="translate(315.722656 0.015625)" xlink:href="#DejaVuSans-Bold-65"/>
      <use transform="translate(383.544922 0.015625)" xlink:href="#DejaVuSans-Bold-29"/>
     </g>
    </g>
   </g>
   <g id="matplotlib.axis_2">
    <g id="ytick_1">
     <g id="line2d_6">
      <defs>
       <path d="M 0 0 
L -6 0 
" id="m045120a3b7" style="stroke:#000000;stroke-width:2;"/>
      </defs>
      <g>
       <use style="stroke:#000000;stroke-width:2;" x="86.4" xlink:href="#m045120a3b7" y="470.461807"/>
      </g>
     </g>
     <g id="text_7">
      <!-- -1 -->
      <defs>
       <path d="M 11.71875 12.984375 
L 28.328125 12.984375 
L 28.328125 60.109375 
L 11.28125 56.59375 
L 11.28125 69.390625 
L 28.21875 72.90625 
L 46.09375 72.90625 
L 46.09375 12.984375 
L 62.703125 12.984375 
L 62.703125 0 
L 11.71875 0 
z
" id="DejaVuSans-Bold-31"/>
      </defs>
      <g transform="translate(43.576563 481.859463)scale(0.3 -0.3)">
       <use xlink:href="#DejaVuSans-Bold-2d"/>
       <use x="41.503906" xlink:href="#DejaVuSans-Bold-31"/>
      </g>
     </g>
    </g>
    <g id="ytick_2">
     <g id="line2d_7">
      <g>
       <use style="stroke:#000000;stroke-width:2;" x="86.4" xlink:href="#m045120a3b7" y="253.614375"/>
      </g>
     </g>
     <g id="text_8">
      <!-- 0 -->
      <g transform="translate(56.026563 265.012031)scale(0.3 -0.3)">
       <use xlink:href="#DejaVuSans-Bold-30"/>
      </g>
     </g>
    </g>
    <g id="ytick_3">
     <g id="line2d_8">
      <g>
       <use style="stroke:#000000;stroke-width:2;" x="86.4" xlink:href="#m045120a3b7" y="36.766943"/>
      </g>
     </g>
     <g id="text_9">
      <!-- 1 -->
      <g transform="translate(56.026563 48.164599)scale(0.3 -0.3)">
       <use xlink:href="#DejaVuSans-Bold-31"/>
      </g>
     </g>
    </g>
    <g id="text_10">
     <!-- $\mathbf{M/M_s}$ -->
     <defs>
      <path d="M 9.1875 72.90625 
L 33.109375 72.90625 
L 49.703125 33.890625 
L 66.40625 72.90625 
L 90.28125 72.90625 
L 90.28125 0 
L 72.515625 0 
L 72.515625 53.328125 
L 55.71875 14.015625 
L 43.796875 14.015625 
L 27 53.328125 
L 27 0 
L 9.1875 0 
z
" id="DejaVuSans-Bold-4d"/>
      <path d="M 25.6875 72.90625 
L 36.53125 72.90625 
L 10.796875 -9.28125 
L 0 -9.28125 
z
" id="DejaVuSans-Bold-2f"/>
      <path d="M 51.125 52.984375 
L 51.125 39.703125 
Q 45.515625 42.046875 40.28125 43.21875 
Q 35.0625 44.390625 30.421875 44.390625 
Q 25.4375 44.390625 23.015625 43.140625 
Q 20.609375 41.890625 20.609375 39.3125 
Q 20.609375 37.203125 22.4375 36.078125 
Q 24.265625 34.96875 29 34.421875 
L 32.078125 33.984375 
Q 45.515625 32.28125 50.140625 28.375 
Q 54.78125 24.46875 54.78125 16.109375 
Q 54.78125 7.375 48.328125 2.96875 
Q 41.890625 -1.421875 29.109375 -1.421875 
Q 23.6875 -1.421875 17.890625 -0.5625 
Q 12.109375 0.296875 6 2 
L 6 15.28125 
Q 11.234375 12.75 16.71875 11.46875 
Q 22.21875 10.203125 27.875 10.203125 
Q 33.015625 10.203125 35.59375 11.609375 
Q 38.1875 13.03125 38.1875 15.828125 
Q 38.1875 18.171875 36.40625 19.3125 
Q 34.625 20.453125 29.296875 21.09375 
L 26.21875 21.484375 
Q 14.546875 22.953125 9.859375 26.90625 
Q 5.171875 30.859375 5.171875 38.921875 
Q 5.171875 47.609375 11.125 51.796875 
Q 17.09375 56 29.390625 56 
Q 34.234375 56 39.546875 55.265625 
Q 44.875 54.546875 51.125 52.984375 
z
" id="DejaVuSans-Bold-73"/>
     </defs>
     <g transform="translate(33.3375 295.764375)rotate(-90)scale(0.3 -0.3)">
      <use transform="translate(0 0.09375)" xlink:href="#DejaVuSans-Bold-4d"/>
      <use transform="translate(99.511719 0.09375)" xlink:href="#DejaVuSans-Bold-2f"/>
      <use transform="translate(136.035156 0.09375)" xlink:href="#DejaVuSans-Bold-4d"/>
      <use transform="translate(236.503906 -16.3125)scale(0.7)" xlink:href="#DejaVuSans-Bold-73"/>
     </g>
    </g>
   </g>
   <g id="line2d_9">
    <path clip-path="url(#pd1c1061fb6)" d="M 577 40.479969 
L 574.931623 40.227282 
L 572.948432 40.386199 
L 570.603885 40.4606 
L 568.258976 40.207567 
L 565.947801 40.126309 
L 563.613474 40.342826 
L 561.637067 40.288483 
L 559.302016 40.537401 
L 556.964478 40.445171 
L 552.285739 40.779976 
L 550.297529 40.574601 
L 547.972427 40.584544 
L 545.621187 40.943521 
L 543.312364 40.478257 
L 539.019943 41.319641 
L 536.647721 40.563458 
L 534.291869 40.873406 
L 531.966947 40.757004 
L 527.650967 41.192097 
L 525.305289 40.748604 
L 522.996918 41.067295 
L 520.66137 40.948836 
L 518.343774 41.562902 
L 516.338471 41.20684 
L 513.979408 41.848164 
L 511.640468 41.321013 
L 509.315546 41.086152 
L 507.329417 41.505816 
L 504.994863 41.418043 
L 502.658094 41.194325 
L 500.324761 41.304898 
L 498.011145 41.862221 
L 496.013665 41.851935 
L 493.677484 41.4153 
L 491.34094 42.250341 
L 489.012899 42.009138 
L 486.686168 41.405014 
L 484.691944 41.689247 
L 480.001855 42.172169 
L 477.689505 41.894622 
L 475.360558 42.016852 
L 473.371218 42.346857 
L 471.009804 42.063653 
L 468.693248 41.563931 
L 464.036441 42.26097 
L 462.046784 42.342571 
L 459.716617 41.986509 
L 457.372567 42.551375 
L 455.054835 42.251541 
L 452.750489 42.531317 
L 450.705347 42.393486 
L 448.388565 42.739092 
L 443.745188 42.430687 
L 441.398787 42.848293 
L 439.39778 42.575032 
L 437.069196 42.383029 
L 434.820199 42.822236 
L 432.414288 43.17367 
L 430.078016 42.996924 
L 428.059192 42.614461 
L 425.731738 43.056239 
L 423.42088 43.252871 
L 421.078141 43.003781 
L 418.735855 43.748993 
L 416.748776 43.771793 
L 414.406761 43.117783 
L 412.092059 43.625905 
L 409.750542 43.793908 
L 407.394735 43.232985 
L 405.392914 43.461674 
L 403.066093 43.951967 
L 400.758626 43.484989 
L 398.426922 44.10797 
L 391.788191 43.803508 
L 389.452597 43.85408 
L 384.7886 44.554034 
L 382.813504 43.891624 
L 380.471399 44.416374 
L 378.118033 44.436775 
L 375.765573 44.743294 
L 371.440639 44.416546 
L 369.149813 44.937697 
L 362.438458 44.85421 
L 360.114079 45.812167 
L 357.799016 45.288445 
L 355.451629 45.732109 
L 353.133847 46.028856 
L 351.133188 45.853482 
L 348.825713 45.481305 
L 346.483788 46.359547 
L 344.1209 46.623037 
L 341.787757 46.720067 
L 337.474956 47.477793 
L 332.818786 48.278891 
L 330.636223 49.389765 
L 328.492256 49.431766 
L 326.246367 49.870115 
L 323.841613 51.526483 
L 321.484273 52.5945 
L 314.861793 56.314899 
L 312.564382 58.094184 
L 310.22962 59.059341 
L 307.907423 60.941999 
L 303.58731 65.317094 
L 301.21672 68.461142 
L 298.886716 71.302957 
L 296.568935 74.71941 
L 294.589181 78.263235 
L 292.242983 82.15318 
L 289.89698 88.107157 
L 285.258772 103.004134 
L 283.272095 111.817977 
L 280.930754 124.677545 
L 278.617739 140.004625 
L 276.246901 157.51087 
L 273.926863 177.658099 
L 267.250617 242.578708 
L 264.936277 266.144413 
L 262.61945 288.101034 
L 258.252823 324.460682 
L 255.925821 341.243813 
L 253.617993 356.153938 
L 251.278917 369.754398 
L 246.951722 389.495385 
L 244.633946 398.603919 
L 240.301053 412.234687 
L 237.956913 417.958552 
L 235.617023 424.202796 
L 233.274827 429.152546 
L 230.964874 432.858889 
L 228.955682 435.642931 
L 226.639397 439.816595 
L 224.31027 443.11836 
L 219.656041 447.491227 
L 217.688949 448.71216 
L 215.297327 450.915222 
L 212.972134 452.075983 
L 210.667969 453.804181 
L 208.321839 454.468134 
L 206.327479 455.726781 
L 201.646253 457.053145 
L 199.339781 458.34145 
L 196.995596 458.73557 
L 194.984369 458.861401 
L 192.657051 459.761757 
L 190.324306 459.699356 
L 188.005941 460.277594 
L 185.667815 461.059663 
L 183.676712 460.839717 
L 181.350162 461.170579 
L 179.030757 461.636358 
L 176.712122 461.881676 
L 174.411076 462.698202 
L 172.360462 462.413284 
L 167.700626 462.647116 
L 165.373986 462.899805 
L 163.009994 462.978149 
L 161.034084 463.608845 
L 156.395274 463.351184 
L 151.682258 464.50903 
L 149.686225 463.738961 
L 147.353481 463.727132 
L 145.052978 463.512843 
L 142.700517 463.855706 
L 140.39192 463.718904 
L 138.383949 464.093138 
L 136.061831 463.722504 
L 133.724519 464.431543 
L 131.40005 464.559259 
L 129.041349 464.207483 
L 127.047713 464.450915 
L 124.727358 464.361599 
L 122.411345 464.740291 
L 120.08665 464.415771 
L 117.730526 464.611374 
L 115.755747 463.935936 
L 113.463339 465.145554 
L 111.091207 464.749377 
L 108.736576 464.10651 
L 106.756099 465.312185 
L 104.425886 464.693147 
L 97.420688 464.772863 
L 95.417239 465.363615 
L 93.094895 464.668804 
L 90.787881 464.870921 
L 88.409328 465.727392 
L 86.08106 465.639447 
L 84.089368 465.388986 
L 81.768381 465.748478 
L 77.085798 465.242756 
L 74.77806 465.263327 
L 72.7714 465.632076 
L 70.478902 465.843793 
L 68.124723 464.932465 
L 65.825803 465.553046 
L 63.425635 465.814136 
L 61.490695 465.16664 
L 59.104499 466.025168 
L 56.763615 465.299156 
L 54.456962 466.131969 
L 52.130368 465.588189 
L 47.813754 466.294486 
L 45.466087 465.528188 
L 43.138497 466.439688 
L 40.842155 466.218885 
L 36.526446 464.965208 
L 34.09078 466.489403 
L 31.759572 465.664133 
L 29.436414 466.207399 
L 27.447888 466.209799 
L 25.100221 466.559861 
L 22.752825 465.780364 
L 20.424195 466.415345 
L 18.119984 466.059968 
L 16.107039 465.611847 
L 13.775063 465.767678 
L 11.435128 466.350887 
L 6.790531 466.073854 
L 4.799246 466.254028 
L 2.439233 466.272028 
L 0.109971 467.14307 
L -1 466.661904 
M -1 466.739105 
L 0.201226 466.580776 
L 2.519093 466.066825 
L 4.882226 466.72975 
L 6.869802 466.297915 
L 9.197256 466.097169 
L 11.516706 466.279057 
L 16.183371 466.281286 
L 18.201969 466.054654 
L 20.505275 466.507061 
L 22.834628 466.037682 
L 25.189576 466.126826 
L 27.525667 465.760478 
L 29.521881 466.152027 
L 31.840788 465.884765 
L 34.175071 465.777621 
L 40.888823 466.205513 
L 45.538349 466.022596 
L 47.916767 465.563332 
L 50.222967 466.021567 
L 56.862196 465.448302 
L 59.205974 465.693791 
L 61.550612 465.432701 
L 63.514131 465.578932 
L 65.864647 465.531789 
L 68.213038 466.07214 
L 70.562153 465.333271 
L 72.87387 465.479159 
L 74.850775 465.141783 
L 77.193106 465.181726 
L 79.519837 465.002238 
L 81.848602 465.458587 
L 84.173795 465.531274 
L 86.169511 465.208298 
L 88.492488 465.230755 
L 90.856932 465.020581 
L 93.184748 464.692633 
L 95.500083 465.033095 
L 99.820766 465.368243 
L 102.17888 464.602631 
L 104.503213 464.886007 
L 106.824653 465.311328 
L 108.813767 465.014409 
L 113.578787 464.584631 
L 115.823442 465.121554 
L 117.842447 464.601603 
L 120.14625 464.475258 
L 122.501967 465.283213 
L 124.809298 464.480915 
L 127.13942 464.271941 
L 129.114923 464.673433 
L 131.48728 464.633146 
L 133.797008 463.999708 
L 136.137304 464.190168 
L 138.475611 464.662118 
L 140.462464 464.181939 
L 145.123794 464.51383 
L 149.763598 464.028851 
L 151.75651 463.899935 
L 154.118784 464.041023 
L 156.473506 464.063137 
L 158.772154 463.58793 
L 161.111004 463.471014 
L 163.085647 463.728675 
L 165.455383 463.874906 
L 167.805311 463.600102 
L 170.115988 463.963365 
L 174.482977 463.441014 
L 176.797046 463.595816 
L 179.110888 463.582444 
L 183.745854 462.633573 
L 185.750614 462.904948 
L 188.080103 463.807019 
L 190.401271 463.002836 
L 197.084861 463.054265 
L 199.416114 462.766261 
L 201.734117 463.00095 
L 204.056415 463.060951 
L 206.398566 462.581286 
L 208.40007 462.458199 
L 213.0491 462.663402 
L 215.377548 462.38894 
L 217.771522 462.363397 
L 219.73079 462.801747 
L 224.385743 462.124079 
L 226.717131 462.120136 
L 229.028396 462.536028 
L 231.041658 462.088764 
L 233.351657 462.241338 
L 238.03216 461.516013 
L 240.37431 461.706301 
L 242.37577 461.341667 
L 244.710097 461.906705 
L 247.040038 461.646472 
L 249.367085 461.816703 
L 251.370489 461.747273 
L 253.696179 460.837488 
L 256.011559 461.199037 
L 258.331326 461.045434 
L 262.688863 460.51674 
L 267.330838 460.902461 
L 269.6656 460.426396 
L 272.006647 460.797202 
L 274.001373 460.209707 
L 276.326918 459.923417 
L 281.016895 459.754557 
L 283.347487 459.243521 
L 285.33529 459.293579 
L 287.662395 458.622769 
L 289.983265 457.811728 
L 292.32235 457.507266 
L 294.666486 456.308962 
L 298.96682 455.92067 
L 303.659704 453.944754 
L 305.995401 452.784165 
L 310.309426 450.152182 
L 312.643354 448.341526 
L 314.91485 446.879389 
L 317.240288 444.753471 
L 319.238103 443.139275 
L 323.906206 438.148398 
L 326.298049 434.977264 
L 328.562936 431.756758 
L 330.639904 428.214818 
L 335.235171 418.285934 
L 337.55231 412.582504 
L 339.880641 403.394135 
L 341.866043 394.884959 
L 344.206398 383.048338 
L 346.550778 368.166465 
L 348.899725 350.155698 
L 353.194465 311.710898 
L 355.566579 288.629265 
L 357.87684 264.396518 
L 362.512213 219.557271 
L 366.866721 182.611123 
L 369.209504 165.280184 
L 371.514032 150.226348 
L 375.828746 127.253059 
L 378.190929 117.560699 
L 382.873647 100.475472 
L 384.891024 94.590668 
L 389.524543 82.655902 
L 391.861855 78.169805 
L 394.166517 72.940125 
L 398.492898 66.56117 
L 400.833918 63.494609 
L 403.135325 60.948342 
L 405.493394 58.888082 
L 407.458993 57.021367 
L 409.85274 55.364656 
L 414.480109 52.571185 
L 416.821355 51.61477 
L 418.813318 50.587212 
L 421.152167 49.697141 
L 423.485545 48.334949 
L 425.814944 48.098717 
L 428.137062 46.845383 
L 430.154167 47.217217 
L 432.495413 46.447663 
L 434.852668 47.049386 
L 437.139649 45.390789 
L 439.462264 44.803809 
L 441.464809 44.920554 
L 443.815371 44.081912 
L 446.1142 43.535732 
L 448.458114 44.254543 
L 450.786563 43.456874 
L 452.822435 43.11864 
L 455.145729 43.740421 
L 457.453376 43.337044 
L 462.111268 42.827722 
L 464.125977 42.273313 
L 466.440363 42.002109 
L 471.083694 42.23097 
L 473.443028 42.079596 
L 475.432459 42.805607 
L 477.756747 42.111311 
L 480.080267 42.046681 
L 482.415635 41.836849 
L 484.760091 42.001938 
L 486.789361 41.72079 
L 489.092848 41.241469 
L 491.407686 41.899422 
L 493.74536 41.591188 
L 496.097956 40.882149 
L 498.075177 41.343299 
L 500.400461 40.998894 
L 502.732663 41.294098 
L 505.079064 41.793992 
L 507.402719 41.62856 
L 509.388668 41.053066 
L 511.716755 41.402443 
L 514.057368 41.286384 
L 516.406664 41.020837 
L 518.416896 41.094552 
L 520.734085 40.982779 
L 523.069045 40.593287 
L 525.387229 40.970265 
L 527.717532 41.083924 
L 532.038893 40.494886 
L 534.375708 40.732147 
L 536.722878 40.797462 
L 541.049394 41.13021 
L 543.383269 40.5062 
L 545.69164 40.853863 
L 548.041478 40.436771 
L 559.378484 40.094766 
L 561.705621 40.899121 
L 563.686912 40.387913 
L 566.018526 40.098537 
L 568.341277 40.679689 
L 570.674474 40.457685 
L 573.016625 40.446542 
L 574.996966 39.474699 
L 577 40.201741 
L 577 40.201741 
" style="fill:none;stroke:#00008b;stroke-linecap:square;stroke-width:4;"/>
   </g>
   <g id="line2d_10">
    <path clip-path="url(#pd1c1061fb6)" d="M 86.4 253.614375 
L 538.605 253.614375 
" style="fill:none;opacity:0.3;stroke:#000000;stroke-linecap:square;stroke-width:2;"/>
   </g>
   <g id="line2d_11">
    <path clip-path="url(#pd1c1061fb6)" d="M 312.5025 492.14655 
L 312.5025 15.0822 
" style="fill:none;opacity:0.3;stroke:#000000;stroke-linecap:square;stroke-width:2;"/>
   </g>
   <g id="patch_3">
    <path d="M 86.4 492.14655 
L 86.4 15.0822 
" style="fill:none;stroke:#000000;stroke-linecap:square;stroke-linejoin:miter;stroke-width:2;"/>
   </g>
   <g id="patch_4">
    <path d="M 538.605 492.14655 
L 538.605 15.0822 
" style="fill:none;stroke:#000000;stroke-linecap:square;stroke-linejoin:miter;stroke-width:2;"/>
   </g>
   <g id="patch_5">
    <path d="M 86.4 492.14655 
L 538.605 492.14655 
" style="fill:none;stroke:#000000;stroke-linecap:square;stroke-linejoin:miter;stroke-width:2;"/>
   </g>
   <g id="patch_6">
    <path d="M 86.4 15.0822 
L 538.605 15.0822 
" style="fill:none;stroke:#000000;stroke-linecap:square;stroke-linejoin:miter;stroke-width:2;"/>
   </g>
  </g>
 </g>
 <defs>
  <clipPath id="pd1c1061fb6">
   <rect height="477.06435" width="452.205" x="86.4" y="15.0822"/>
  </clipPath>
 </defs>
</svg>
