<?xml version="1.0" encoding="UTF-8" standalone="no"?>
<svg xmlns:dc="http://purl.org/dc/elements/1.1/" xmlns:cc="http://creativecommons.org/ns#" xmlns:rdf="http://www.w3.org/1999/02/22-rdf-syntax-ns#" xmlns:svg="http://www.w3.org/2000/svg" xmlns="http://www.w3.org/2000/svg" xmlns:sodipodi="http://sodipodi.sourceforge.net/DTD/sodipodi-0.dtd" xmlns:inkscape="http://www.inkscape.org/namespaces/inkscape" xml:space="preserve" height="99.999992" width="100" version="1.0" id="svg2" inkscape:version="0.91 r13725" sodipodi:docname="researcherid.svg"><sodipodi:namedview pagecolor="#ffffff" bordercolor="#666666" borderopacity="1" objecttolerance="10" gridtolerance="10" guidetolerance="10" inkscape:pageopacity="0" inkscape:pageshadow="2" inkscape:window-width="1209" inkscape:window-height="904" id="namedview40" showgrid="false" fit-margin-top="0" fit-margin-left="0" fit-margin-bottom="0" fit-margin-right="0" inkscape:zoom="2.5992463" inkscape:cx="37.410791" inkscape:cy="55.882732" inkscape:window-x="442" inkscape:window-y="107" inkscape:window-maximized="0" inkscape:current-layer="svg2"/><metadata id="metadata4"><rdf:RDF><cc:Work rdf:about=""><dc:format>image/svg+xml</dc:format><dc:type rdf:resource="http://purl.org/dc/dcmitype/StillImage"/><dc:title/></cc:Work></rdf:RDF></metadata><defs id="defs6"/><rect style="opacity:1;fill:#505050;fill-opacity:1;fill-rule:nonzero;stroke:#000000;stroke-width:0;stroke-linecap:butt;stroke-linejoin:miter;stroke-miterlimit:4;stroke-dasharray:none;stroke-dashoffset:0;stroke-opacity:1" id="rect4194" width="99.999992" height="99.999985" x="4.9999999e-06" y="4.9999999e-06"/><path style="fill:#f57a14;fill-rule:nonzero" inkscape:connector-curvature="0" id="path38" d="m 35.691204,29.984857 c -0.409292,-0.517097 -1.151135,-0.597494 -1.668233,-0.193683 -0.509788,0.407466 -0.601148,1.147481 -0.19551,1.664579 0.409293,0.51527 1.15479,0.601148 1.666406,0.197337 0.513443,-0.41112 0.604803,-1.152962 0.197337,-1.668233 m 11.926129,-4.472983 c -0.09501,-0.650483 -0.69799,-1.096319 -1.348473,-0.999478 -0.646828,0.09502 -1.096319,0.692509 -1.001305,1.342991 0.09502,0.650483 0.69799,1.094493 1.346646,1.001306 0.646829,-0.09684 1.098146,-0.694336 1.003132,-1.344819 m 5.770295,47.631427 c -0.645001,0.09501 -1.094492,0.69799 -0.999478,1.346646 0.09502,0.650483 0.699817,1.09632 1.344819,0.999478 0.648656,-0.09501 1.099974,-0.694336 1.003132,-1.344818 -0.09136,-0.648656 -0.696163,-1.09632 -1.348473,-1.001306 m 11.118507,-4.792743 c -0.509788,0.407466 -0.601148,1.151136 -0.193683,1.664579 0.405639,0.51527 1.152963,0.597494 1.664579,0.193683 0.515269,-0.407466 0.602975,-1.149309 0.197337,-1.666406 -0.405638,-0.511616 -1.151135,-0.599321 -1.668233,-0.191856 M 28.344037,66.121375 c 0.489689,1.321065 1.944139,1.978857 3.246932,1.492822 1.313757,-0.484208 1.984339,-1.929523 1.496477,-3.24876 -0.484208,-1.306448 -1.938659,-1.97703 -3.246933,-1.489167 -1.308275,0.484207 -1.980684,1.942312 -1.496476,3.245105 m 4.792743,4.273819 c 0.37823,1.216915 1.659097,1.882015 2.866875,1.501958 1.209606,-0.372749 1.887497,-1.653615 1.509267,-2.866876 -0.376403,-1.207779 -1.666406,-1.882015 -2.874184,-1.505612 -1.207779,0.374576 -1.880188,1.660924 -1.501958,2.87053 m 6.009658,2.899765 c 0.250326,0.988515 1.251631,1.576873 2.234665,1.326547 0.98486,-0.252154 1.580527,-1.24615 1.328374,-2.234665 -0.250327,-0.98486 -1.253459,-1.5787 -2.23832,-1.326546 -0.981206,0.252153 -1.575045,1.249804 -1.324719,2.234664 m 6.510311,1.419734 c 0.164448,0.825894 0.966588,1.357609 1.788828,1.193161 0.818585,-0.166275 1.353955,-0.964761 1.187679,-1.790656 -0.16262,-0.818584 -0.964761,-1.352127 -1.787,-1.189506 -0.820413,0.164448 -1.353955,0.968416 -1.189507,1.787001 M 26.800053,55.826935 c 1.251632,-0.61942 1.763247,-2.135996 1.142,-3.387627 -0.623075,-1.258941 -2.134169,-1.763247 -3.389455,-1.142 -1.244323,0.615767 -1.766901,2.126861 -1.143826,3.3858 0.621247,1.253459 2.141477,1.761421 3.391281,1.143827 m -0.0877,-6.683894 c 1.103628,-0.617594 1.496476,-2.019055 0.877055,-3.120857 -0.621247,-1.107282 -2.019055,-1.496476 -3.122683,-0.8734 -1.105456,0.617592 -1.496476,2.011745 -0.875229,3.119028 0.619421,1.101801 2.015401,1.496476 3.120857,0.875229 m 1.432524,-6.665623 c 0.860611,-0.540851 1.114591,-1.681023 0.570086,-2.541634 -0.544505,-0.860611 -1.679196,-1.10911 -2.53798,-0.566432 -0.855129,0.544506 -1.114591,1.673715 -0.568259,2.536152 0.542678,0.858784 1.679196,1.114592 2.536153,0.571914 m 3.016706,-5.920125 c 0.683372,-0.486035 0.845993,-1.432524 0.361785,-2.11407 -0.489689,-0.690681 -1.430697,-0.845993 -2.114069,-0.361785 -0.6852,0.486035 -0.853302,1.427042 -0.363613,2.117724 0.486035,0.681545 1.432524,0.842339 2.115897,0.358131 m -2.638476,25.701383 c 1.392326,-0.601149 2.033673,-2.220047 1.432524,-3.616027 -0.602976,-1.399635 -2.218219,-2.0355 -3.608718,-1.436178 -1.394153,0.601148 -2.044636,2.212738 -1.439833,3.614199 0.601149,1.39598 2.225528,2.039155 3.616027,1.438006 m 30.773688,9.294963 c -0.559123,0.241189 -0.818585,0.889845 -0.577394,1.448968 0.244844,0.566432 0.891672,0.820413 1.450795,0.579222 0.56095,-0.24119 0.82224,-0.889845 0.58105,-1.452623 -0.243017,-0.559123 -0.8935,-0.816758 -1.454451,-0.575567 M 73.199949,44.174886 c -1.24615,0.617593 -1.759593,2.134169 -1.142,3.383973 0.624902,1.260768 2.137823,1.763247 3.389455,1.142 1.247976,-0.61394 1.765074,-2.125034 1.141999,-3.383973 -0.61942,-1.247978 -2.13965,-1.761421 -3.389454,-1.142 m 0.0877,6.682067 c -1.099974,0.617594 -1.498303,2.017228 -0.877055,3.124511 0.624902,1.105455 2.020882,1.490995 3.120856,0.869746 1.105455,-0.61942 1.498303,-2.009918 0.877056,-3.117201 -0.621248,-1.105455 -2.015401,-1.498303 -3.120857,-0.877056 m -1.42887,6.663796 c -0.856956,0.544505 -1.114591,1.681023 -0.571913,2.537979 0.546333,0.860611 1.681024,1.112764 2.53798,0.570087 0.856956,-0.542679 1.116419,-1.673715 0.570086,-2.53798 -0.544505,-0.855129 -1.681023,-1.110937 -2.536153,-0.570086 m -3.018533,5.921952 c -0.685199,0.486035 -0.845992,1.432524 -0.361785,2.115897 0.486035,0.687027 1.432524,0.845993 2.119551,0.361785 0.683372,-0.48238 0.844166,-1.427043 0.356304,-2.117724 -0.482381,-0.681545 -1.42887,-0.845993 -2.11407,-0.359958 M 41.286088,26.997387 c -0.243018,-0.564605 -0.8935,-0.818585 -1.45445,-0.575568 -0.559123,0.239363 -0.820413,0.888019 -0.577395,1.452623 0.24119,0.557296 0.8935,0.813104 1.452623,0.573741 0.559123,-0.243018 0.820413,-0.8935 0.579222,-1.450796 m 30.369877,6.877577 c -0.486035,-1.31741 -1.942312,-1.977029 -3.246932,-1.490994 -1.310103,0.482381 -1.982512,1.931349 -1.49465,3.245106 0.486035,1.311929 1.940486,1.980684 3.245107,1.496476 1.310101,-0.482381 1.98251,-1.940486 1.496475,-3.250588 M 66.865049,29.6048 c -0.37823,-1.21326 -1.662751,-1.883842 -2.868702,-1.503785 -1.205952,0.374576 -1.887497,1.65727 -1.507439,2.87053 0.376402,1.207779 1.666405,1.882015 2.870529,1.503785 1.209606,-0.376403 1.882015,-1.664578 1.505612,-2.87053 m -6.006003,-2.897938 c -0.253981,-0.990342 -1.257113,-1.5787 -2.236492,-1.326547 -0.983034,0.250327 -1.580527,1.246151 -1.326547,2.236492 0.250326,0.983034 1.255286,1.580528 2.236492,1.32472 0.981206,-0.250327 1.576873,-1.253459 1.326547,-2.234665 m -6.515793,-1.417907 c -0.164448,-0.829548 -0.962933,-1.355781 -1.783346,-1.191333 -0.824067,0.164448 -1.359436,0.957452 -1.191334,1.785174 0.162621,0.820411 0.962934,1.355781 1.787001,1.189506 0.820412,-0.166275 1.352127,-0.964761 1.187679,-1.783347 m 19.313495,17.506396 c -1.394153,0.601148 -3.013051,-0.04385 -3.616026,-1.439833 -0.602976,-1.401462 0.04386,-3.011224 1.439833,-3.6142 1.392325,-0.599321 3.007569,0.03654 3.612372,1.438006 0.602975,1.392325 -0.04203,3.013051 -1.436179,3.616027 M 43.323415,19.200728 c -0.217436,-0.813104 -1.050639,-1.288175 -1.863743,-1.070739 -0.807622,0.217437 -1.293657,1.045158 -1.074393,1.856435 0.217436,0.81493 1.054294,1.29183 1.860089,1.07622 0.813104,-0.217437 1.295484,-1.048813 1.078047,-1.861916 m 16.294962,0.78935 c 0.217437,-0.813104 -0.268598,-1.642652 -1.079874,-1.860089 -0.807623,-0.215609 -1.640825,0.257635 -1.858262,1.072566 -0.217436,0.813104 0.264944,1.644479 1.074393,1.860089 0.811277,0.217437 1.646307,-0.26129 1.863743,-1.072566 M 42.245368,78.935523 c -0.805795,-0.21561 -1.640825,0.264944 -1.860089,1.07622 -0.215609,0.811277 0.266771,1.640825 1.074393,1.856435 0.813104,0.217436 1.648134,-0.259463 1.863743,-1.072566 0.217437,-0.809449 -0.264943,-1.642652 -1.078047,-1.860089 m 15.507439,0 c -0.807622,0.217437 -1.290002,1.05064 -1.074393,1.861916 0.217436,0.811276 1.054294,1.288175 1.860089,1.070739 0.813104,-0.21561 1.295484,-1.045158 1.078047,-1.858262 -0.215609,-0.809449 -1.052467,-1.290003 -1.863743,-1.074393 M 16.353956,57.977549 c -0.09319,1.796136 1.28452,3.30723 3.062386,3.400417 1.790655,0.09319 3.312711,-1.264421 3.407726,-3.062386 0.09319,-1.783346 -1.27904,-3.30723 -3.062386,-3.400417 -1.785173,-0.09319 -3.314539,1.279039 -3.407726,3.062386 m 3.468023,7.453145 c -0.169929,1.620725 0.997651,3.055077 2.612895,3.226833 1.609763,0.168103 3.056905,-0.992168 3.226834,-2.612894 0.16993,-1.61159 -1.003133,-3.058732 -2.614722,-3.226834 -1.613417,-0.169929 -3.055077,1.001305 -3.225007,2.612895 m 5.598539,6.457322 c -0.204647,1.29183 0.67241,2.490472 1.955103,2.695118 1.284521,0.20282 2.4923,-0.666927 2.696946,-1.95693 0.202819,-1.284521 -0.674237,-2.490472 -1.960585,-2.693292 -1.282694,-0.202819 -2.488645,0.67241 -2.691464,1.955104 m 6.937875,4.971808 c -0.226573,1.056122 0.447664,2.086662 1.494649,2.30958 1.05064,0.222918 2.083007,-0.444009 2.307753,-1.50013 0.222918,-1.046985 -0.447664,-2.083007 -1.498304,-2.305925 -1.048812,-0.222919 -2.083007,0.44949 -2.304098,1.496475 M 19.759855,45.083004 c 1.785173,-0.09319 3.155572,-1.617071 3.064213,-3.404072 -0.09502,-1.796137 -1.617071,-3.155573 -3.409554,-3.060559 -1.776038,0.09319 -3.155572,1.604281 -3.060558,3.400418 0.09319,1.785174 1.622553,3.1574 3.405899,3.064213 m 3.287131,-7.902636 c 1.611589,-0.16993 2.784652,-1.615244 2.614722,-3.226834 -0.169929,-1.618898 -1.617071,-2.784651 -3.226834,-2.614722 -1.617071,0.16993 -2.784651,1.609763 -2.612895,3.228661 0.168103,1.61159 1.609763,2.782824 3.225007,2.612895 m 5.064996,-7.111459 c 1.286348,-0.202819 2.163404,-1.412425 1.958758,-2.698774 -0.202819,-1.290002 -1.410598,-2.157922 -2.696946,-1.955102 -1.282694,0.202818 -2.15975,1.401461 -1.955103,2.693291 0.202819,1.284521 1.40877,2.165231 2.693291,1.960585 m 6.550509,-5.434091 c 1.05064,-0.224745 1.721222,-1.255286 1.498304,-2.307752 -0.224746,-1.054294 -1.255286,-1.71574 -2.305926,-1.492822 -1.048812,0.222918 -1.723049,1.247977 -1.498303,2.304098 0.222918,1.048813 1.257113,1.719395 2.305925,1.496476 M 18.524668,53.522837 c 1.940486,0 3.517359,-1.5787 3.517359,-3.526495 0,-1.955103 -1.576873,-3.519185 -3.517359,-3.519185 -1.940485,0 -3.524667,1.564082 -3.524667,3.52284 0,1.94414 1.584182,3.52284 3.524667,3.52284 m 31.475333,26.538241 c -0.778387,0 -1.414252,0.63221 -1.414252,1.416079 0,0.783868 0.635865,1.412425 1.414252,1.412425 0.782041,0 1.417907,-0.628557 1.417907,-1.414252 0,-0.782042 -0.635866,-1.414252 -1.417907,-1.414252 M 80.23832,54.915163 c -1.777865,0.09319 -3.151919,1.617071 -3.058731,3.400417 0.09501,1.797965 1.617071,3.155573 3.404071,3.062386 1.779692,-0.09319 3.155573,-1.604281 3.060559,-3.400417 -0.09136,-1.783347 -1.618898,-3.155573 -3.405899,-3.062386 m -3.287132,7.902636 c -1.607935,0.168102 -2.782824,1.615244 -2.614721,3.226834 0.171756,1.620726 1.620725,2.780997 3.228661,2.612894 1.613416,-0.171756 2.782824,-1.606108 2.612894,-3.226833 -0.169929,-1.613417 -1.613417,-2.782824 -3.226834,-2.612895 m -5.059514,7.113286 c -1.286348,0.204647 -2.165231,1.410598 -1.958758,2.695119 0.20282,1.290003 1.410599,2.15975 2.695119,1.95693 1.280867,-0.204646 2.15975,-1.403288 1.95693,-2.695118 -0.204646,-1.284521 -1.412424,-2.157923 -2.693291,-1.956931 m -6.552336,5.432264 c -1.052467,0.222918 -1.723049,1.25894 -1.50013,2.305925 0.224745,1.056121 1.257112,1.723048 2.307752,1.498303 1.048812,-0.221091 1.721221,-1.251631 1.496476,-2.30958 C 67.420518,75.812839 66.38815,75.14043 65.339338,75.363349 M 51.417908,18.522837 c 0,-0.785696 -0.635866,-1.412425 -1.417907,-1.412425 -0.778387,0 -1.414252,0.626729 -1.414252,1.412425 0,0.783869 0.635865,1.414252 1.414252,1.414252 0.782041,0 1.417907,-0.630383 1.417907,-1.414252 m 32.228138,23.495954 c 0.09501,-1.796137 -1.282694,-3.30723 -3.062386,-3.400418 -1.785173,-0.09501 -3.309057,1.264422 -3.404071,3.060559 -0.09319,1.787001 1.280866,3.310885 3.058731,3.404072 1.787001,0.09319 3.314539,-1.279039 3.407726,-3.064213 m -3.468024,-7.451318 c 0.16993,-1.618898 -0.999478,-3.058731 -2.612894,-3.228661 -1.606109,-0.168102 -3.056905,0.995824 -3.228661,2.614722 -0.168103,1.61159 1.008613,3.058731 2.614721,3.226834 1.615245,0.169929 3.056905,-1.001305 3.226834,-2.612895 m -5.593057,-6.457322 c 0.204647,-1.29183 -0.676063,-2.490472 -1.955103,-2.695118 -1.286347,-0.200992 -2.492299,0.666927 -2.696946,1.958757 -0.204646,1.284521 0.67241,2.494127 1.958758,2.696946 1.280867,0.202819 2.490473,-0.676064 2.693291,-1.960585 m -6.941529,-4.971809 c 0.226573,-1.056121 -0.447664,-2.08118 -1.496476,-2.302271 -1.052467,-0.224745 -2.083007,0.436701 -2.305925,1.490995 -0.222919,1.052466 0.445836,2.083007 1.498303,2.307752 1.048812,0.222919 2.08118,-0.447663 2.304098,-1.496476 m 13.830071,30.384495 c -1.944141,0 -3.519186,-1.5787 -3.519186,-3.526495 0,-1.955103 1.575045,-3.519185 3.524667,-3.519185 1.942313,0 3.521012,1.564082 3.521012,3.52284 0,1.94414 -1.578699,3.52284 -3.526493,3.52284 m -23.505091,4.567998 c 0.588359,-0.305142 0.805795,-1.052467 0.486035,-1.637171 -0.323414,-0.58653 -1.054293,-0.813104 -1.638997,-0.489689 -0.592013,0.31976 -0.805795,1.056121 -0.489689,1.642652 0.310623,0.588358 1.048812,0.809449 1.642651,0.484208 m 1.73584,-2.737144 c 0.535369,-0.288698 0.721743,-0.935526 0.449491,-1.463587 -0.285044,-0.520752 -0.935527,-0.721743 -1.463587,-0.436701 -0.526233,0.277735 -0.718089,0.944663 -0.440355,1.467241 0.288698,0.517098 0.941008,0.712608 1.454451,0.433047 m 0.864265,-3.1775 c 0.458627,-0.250326 0.623075,-0.822239 0.372748,-1.277212 -0.243017,-0.460454 -0.811276,-0.62673 -1.269903,-0.381884 -0.462281,0.252153 -0.624902,0.818585 -0.387366,1.28452 0.24119,0.449491 0.831376,0.617594 1.284521,0.374576 m -0.151657,-3.298095 c 0.396502,-0.228399 0.548159,-0.721743 0.341686,-1.107282 -0.21561,-0.394675 -0.708953,-0.537197 -1.094493,-0.325241 -0.398329,0.206473 -0.548159,0.705299 -0.330723,1.098147 0.204647,0.39102 0.703472,0.535369 1.08353,0.334376 m -7.509789,10.574002 c -0.31976,-0.588358 -1.05064,-0.805795 -1.646306,-0.491516 -0.592013,0.312451 -0.796659,1.046985 -0.4769,1.642652 0.308797,0.584704 1.041504,0.816758 1.631689,0.486035 0.595667,-0.310624 0.805795,-1.05064 0.491517,-1.637171 m -3.305404,0.133386 c -0.277734,-0.522579 -0.937353,-0.708954 -1.467241,-0.436701 -0.526233,0.283216 -0.71078,0.941008 -0.434873,1.459932 0.286871,0.528061 0.939181,0.721744 1.46176,0.440356 0.531714,-0.274081 0.725398,-0.935526 0.440354,-1.463587 m -3.177499,-0.851475 c -0.25398,-0.453145 -0.824067,-0.628557 -1.275384,-0.376403 -0.467764,0.253981 -0.632212,0.818585 -0.380058,1.275385 0.237536,0.458627 0.813103,0.634038 1.269903,0.387366 0.460455,-0.257635 0.630384,-0.83503 0.385539,-1.286348 m -2.748107,-1.744975 c -0.208301,-0.389194 -0.699818,-0.529888 -1.090838,-0.325242 -0.392848,0.204647 -0.539024,0.703472 -0.328896,1.090838 0.206473,0.396502 0.69799,0.540851 1.090838,0.321587 0.39102,-0.200992 0.539024,-0.692508 0.328896,-1.087183 m 12.384755,1.332028 c -0.361785,-0.672409 -1.19316,-0.931872 -1.867397,-0.559123 -0.665101,0.354477 -0.920908,1.18768 -0.551814,1.858262 0.361786,0.6651 1.196816,0.908118 1.86557,0.557295 0.663274,-0.367267 0.911773,-1.205951 0.553641,-1.856434 M 58.3905,45.468543 c 0.175411,0.327069 0.584703,0.445837 0.904463,0.270425 0.330723,-0.17541 0.453146,-0.577395 0.27408,-0.906291 -0.179065,-0.332549 -0.579222,-0.454972 -0.915426,-0.286869 -0.312452,0.18272 -0.44401,0.601148 -0.263117,0.922735 M 47.105718,40.529624 c 0.314278,0.597494 1.056121,0.809449 1.644479,0.498825 0.588358,-0.321587 0.80214,-1.056121 0.489689,-1.648133 -0.312451,-0.586531 -1.057948,-0.811277 -1.646306,-0.48969 -0.590186,0.317933 -0.796659,1.056121 -0.487862,1.638998 m 3.310884,-0.129731 c 0.275907,0.520751 0.928217,0.716262 1.44897,0.431219 0.533542,-0.286871 0.719916,-0.935526 0.442182,-1.458105 -0.275907,-0.520752 -0.931872,-0.721744 -1.456279,-0.431219 -0.52806,0.279561 -0.712607,0.930044 -0.434873,1.458105 m 3.170191,0.849647 c 0.246672,0.4568 0.831376,0.624903 1.273558,0.376403 0.46959,-0.250326 0.635865,-0.820412 0.385539,-1.277212 -0.24119,-0.458627 -0.820412,-0.626729 -1.269904,-0.387366 -0.460454,0.255808 -0.635865,0.833203 -0.389193,1.288175 m 2.742626,1.744975 c 0.211955,0.391021 0.699817,0.53537 1.103628,0.334378 0.389193,-0.222918 0.540851,-0.71078 0.328896,-1.103628 -0.217437,-0.392848 -0.705299,-0.544506 -1.094492,-0.327069 -0.403811,0.219264 -0.546333,0.707126 -0.338032,1.096319 M 40.712348,54.24458 c -0.330723,0.173585 -0.449491,0.582877 -0.272253,0.919082 0.177239,0.323414 0.581049,0.445837 0.917254,0.27408 0.323414,-0.184547 0.445837,-0.592013 0.266771,-0.920908 -0.179066,-0.321588 -0.588358,-0.449492 -0.911772,-0.272254 m 1.339337,-12.361002 c -0.597494,0.325242 -0.816758,1.048813 -0.495172,1.649961 0.319761,0.582877 1.045158,0.805795 1.633517,0.487862 0.601148,-0.317932 0.818585,-1.057948 0.500652,-1.638997 -0.312451,-0.590186 -1.054293,-0.82224 -1.638997,-0.498826 m -1.74863,2.749935 c -0.524406,0.283216 -0.718089,0.93918 -0.444009,1.458105 0.288697,0.520752 0.941007,0.721744 1.461759,0.4367 0.526234,-0.279561 0.725398,-0.937352 0.442182,-1.461759 -0.290524,-0.518924 -0.93918,-0.712607 -1.459932,-0.433046 m -0.856956,3.179327 c -0.453146,0.243017 -0.621248,0.816758 -0.378231,1.269903 0.253981,0.464109 0.82224,0.630383 1.280867,0.385539 0.454973,-0.248499 0.628556,-0.829548 0.381885,-1.279039 -0.248499,-0.460454 -0.818586,-0.630384 -1.284521,-0.376403 m 0.13704,3.303576 c -0.387367,0.21561 -0.53537,0.708953 -0.323415,1.098147 0.21561,0.398329 0.707126,0.535369 1.092665,0.317932 0.392848,-0.199164 0.551814,-0.699817 0.328896,-1.090838 -0.217437,-0.387366 -0.69799,-0.537196 -1.098146,-0.325241 m 6.786217,-10.745759 c 0.356304,0.663274 0.115114,1.496477 -0.551814,1.858262 -0.676064,0.361786 -1.503784,0.10415 -1.86557,-0.56095 -0.36544,-0.663273 -0.113287,-1.498303 0.551814,-1.858262 0.668755,-0.361785 1.509267,-0.111459 1.86557,0.56095 m 3.60141,25.087445 c 0.818585,0.246672 1.675541,-0.222918 1.907596,-1.034195 0.235708,-0.818585 -0.221091,-1.673715 -1.037849,-1.913077 -0.82224,-0.241191 -1.675542,0.226572 -1.916733,1.046985 -0.237535,0.807622 0.232055,1.659096 1.046986,1.900287 m 4.345079,-0.968416 c 0.732708,0.213782 1.48734,-0.199164 1.70295,-0.928217 0.211955,-0.719916 -0.197337,-1.480031 -0.928217,-1.693814 -0.725398,-0.219263 -1.492822,0.200993 -1.70295,0.924564 -0.211955,0.727224 0.208301,1.485513 0.928217,1.697467 m 3.928478,-2.379013 c 0.56826,0.16993 1.165754,-0.158966 1.332029,-0.723571 0.173584,-0.577395 -0.155312,-1.176716 -0.723571,-1.341164 -0.57374,-0.173584 -1.173062,0.160794 -1.344819,0.729052 -0.16262,0.566432 0.168103,1.165753 0.736361,1.335683 m 3.058732,-3.374837 c 0.46959,0.135213 0.955625,-0.129731 1.090838,-0.590185 0.133385,-0.458627 -0.129732,-0.948317 -0.592013,-1.087184 -0.458627,-0.131558 -0.946489,0.131559 -1.083529,0.59384 -0.133385,0.464109 0.129731,0.951971 0.584704,1.083529 m -17.71835,3.24876 c 0.235709,-0.809449 -0.2284,-1.673714 -1.048813,-1.91125 -0.818585,-0.239363 -1.664578,0.226573 -1.903941,1.048812 -0.239363,0.807623 0.219264,1.662752 1.039676,1.903942 0.818585,0.235708 1.671887,-0.230227 1.913078,-1.041504 m -3.341947,-3.053249 c 0.211955,-0.723571 -0.210128,-1.490995 -0.935527,-1.706605 -0.725398,-0.211955 -1.476376,0.208301 -1.69564,0.933699 -0.213783,0.723571 0.197337,1.481859 0.92639,1.697468 0.732707,0.217437 1.485513,-0.199164 1.704777,-0.924562 m -2.379014,-3.930306 c 0.168103,-0.570086 -0.160793,-1.16758 -0.727225,-1.326546 -0.579222,-0.173585 -1.176716,0.151657 -1.335683,0.725398 -0.160793,0.568258 0.148003,1.169407 0.727226,1.337509 0.566431,0.171757 1.16758,-0.160793 1.335682,-0.736361 m -1.010441,-4.35787 c 0.13704,-0.460454 -0.124249,-0.942835 -0.588358,-1.085356 -0.460454,-0.135213 -0.944662,0.135212 -1.087184,0.595666 -0.140694,0.458628 0.133386,0.939181 0.59384,1.076221 0.458627,0.138867 0.942835,-0.120595 1.081702,-0.586531 m 10.906552,13.281911 c 0.27408,-0.941008 -0.255808,-1.925868 -1.202297,-2.201775 -0.939181,-0.272253 -1.922214,0.261289 -2.192639,1.198642 -0.270426,0.946489 0.253981,1.922214 1.20047,2.199948 0.937353,0.270426 1.925868,-0.268598 2.194466,-1.196815 M 62.799531,53.7622 c -0.09501,0.343513 0.09867,0.708954 0.438528,0.807622 0.350822,0.102323 0.708953,-0.09501 0.809449,-0.444009 0.10415,-0.343514 -0.09319,-0.707126 -0.440355,-0.807623 -0.339859,-0.09867 -0.705299,0.09867 -0.807622,0.44401 M 56.42626,38.022707 c -0.243017,0.81493 0.228401,1.67006 1.043331,1.91125 0.818585,0.239363 1.671888,-0.235709 1.91125,-1.048812 0.243018,-0.813104 -0.222918,-1.67006 -1.037849,-1.909424 -0.822239,-0.24119 -1.673714,0.233882 -1.916732,1.046986 m 3.343775,3.047768 c -0.21561,0.736361 0.202819,1.489167 0.924563,1.702949 0.727225,0.213783 1.483685,-0.2083 1.699295,-0.931871 0.217436,-0.719917 -0.197338,-1.480032 -0.928217,-1.691987 -0.719916,-0.213782 -1.476377,0.202819 -1.695641,0.920909 m 2.375359,3.924823 c -0.175411,0.579222 0.16262,1.176717 0.730879,1.342992 0.575568,0.168102 1.169408,-0.158967 1.33751,-0.73088 0.168102,-0.571913 -0.157139,-1.169408 -0.727225,-1.333855 -0.571914,-0.169929 -1.178544,0.155312 -1.341164,0.721743 m 1.008614,4.363352 c -0.138867,0.4568 0.12425,0.948317 0.593839,1.081702 0.462282,0.13704 0.944663,-0.129731 1.081702,-0.593839 0.133386,-0.454974 -0.126077,-0.942836 -0.590185,-1.079876 -0.462282,-0.133385 -0.955625,0.131559 -1.085356,0.592013 M 36.761943,45.435653 c -0.343513,-0.102322 -0.705299,0.09502 -0.80214,0.438528 -0.102324,0.347168 0.08953,0.714435 0.4367,0.814931 0.348995,0.100496 0.708954,-0.100496 0.809449,-0.445836 0.100496,-0.345341 -0.09319,-0.705299 -0.444009,-0.807623 M 50.042026,34.541892 c -0.824066,-0.246672 -1.668232,0.226573 -1.913077,1.039677 -0.24119,0.816757 0.221091,1.668232 1.039677,1.91125 0.816758,0.24119 1.668232,-0.230227 1.91125,-1.039676 0.244844,-0.814931 -0.222919,-1.675542 -1.03785,-1.911251 m -4.348734,0.97207 c -0.730879,-0.210128 -1.48734,0.206474 -1.702949,0.924563 -0.211955,0.725398 0.206474,1.485513 0.931871,1.699295 0.723571,0.213782 1.487341,-0.19551 1.697468,-0.92639 0.206474,-0.721744 -0.210127,-1.483686 -0.92639,-1.697468 m -3.928478,2.377186 c -0.575567,-0.169929 -1.16758,0.162621 -1.333855,0.73088 -0.168102,0.57374 0.155312,1.16758 0.729052,1.33751 0.570087,0.168102 1.169408,-0.162621 1.339338,-0.73088 0.164448,-0.568259 -0.162621,-1.16758 -0.734535,-1.33751 m -3.064213,3.369355 c -0.462281,-0.124249 -0.948316,0.133386 -1.085356,0.597494 -0.13704,0.458628 0.131558,0.942836 0.592013,1.076221 0.462281,0.135212 0.942834,-0.126077 1.081702,-0.586531 0.144348,-0.460454 -0.129732,-0.944662 -0.588359,-1.087184 m 16.939963,-4.171495 c -0.272252,0.930044 -1.253458,1.465413 -2.190811,1.187679 -0.950144,-0.279561 -1.469068,-1.255286 -1.196816,-2.196293 0.270426,-0.933699 1.251632,-1.47455 2.194467,-1.202297 0.941007,0.277734 1.478204,1.264422 1.19316,2.210911 M 40.690421,68.299397 c 0.793005,0.749151 2.044636,0.708953 2.786479,-0.08223 0.74367,-0.796658 0.716262,-2.044635 -0.08405,-2.79196 -0.794832,-0.747324 -2.046464,-0.707126 -2.790134,0.08771 -0.745496,0.783869 -0.71078,2.0355 0.08771,2.786479 m 5.744714,1.463586 c 0.712608,0.67241 1.816236,0.63952 2.47951,-0.06578 0.666927,-0.703472 0.637692,-1.818063 -0.06943,-2.481337 -0.705299,-0.668754 -1.821718,-0.628556 -2.486818,0.07126 -0.663273,0.703472 -0.630384,1.821718 0.07674,2.475855 m 6.088228,-0.438528 c 0.557295,0.526234 1.430697,0.491517 1.953276,-0.0603 0.522579,-0.549987 0.502479,-1.427042 -0.05482,-1.949622 -0.56095,-0.524405 -1.434351,-0.496997 -1.958758,0.0603 -0.518924,0.549987 -0.493344,1.427042 0.0603,1.949621 m 5.671621,-2.154264 c 0.454973,0.423911 1.163926,0.401984 1.584182,-0.04934 0.42391,-0.44401 0.403811,-1.151135 -0.04934,-1.5787 -0.447664,-0.42391 -1.156617,-0.403811 -1.5787,0.04568 -0.425738,0.451318 -0.403811,1.160271 0.04386,1.582354 M 35.082747,60.314536 c 0.747324,-0.793004 0.708953,-2.04829 -0.08222,-2.79196 -0.796659,-0.75646 -2.042809,-0.701645 -2.786479,0.08588 -0.749151,0.787522 -0.721743,2.035499 0.07492,2.790133 0.800314,0.74367 2.051945,0.703471 2.793788,-0.08405 m -2.123205,-5.644221 c 0.666927,-0.701645 0.634038,-1.816236 -0.07309,-2.488645 -0.707126,-0.666928 -1.814409,-0.624902 -2.484991,0.07674 -0.659619,0.701645 -0.628557,1.819891 0.07674,2.483164 0.708953,0.668755 1.818063,0.632211 2.481336,-0.07126 m -0.442182,-6.0864 c 0.522579,-0.553641 0.491517,-1.434351 -0.05847,-1.955103 -0.562777,-0.528061 -1.438006,-0.498826 -1.955103,0.0603 -0.51527,0.559123 -0.500653,1.423388 0.05664,1.949621 0.553641,0.526234 1.432524,0.493344 1.95693,-0.05482 m 1.439833,-5.783084 c 0.416601,-0.449492 0.400157,-1.156618 -0.05116,-1.580528 -0.449491,-0.427565 -1.15479,-0.400157 -1.5787,0.04203 -0.429392,0.447664 -0.405638,1.154789 0.04933,1.582354 0.445837,0.420256 1.152963,0.401984 1.580527,-0.04385 m 4.915166,22.328376 c 0.860611,-0.915427 0.816758,-2.346124 -0.09501,-3.212216 -0.919081,-0.862438 -2.353433,-0.814931 -3.21039,0.09501 -0.856956,0.922736 -0.816758,2.344297 0.09867,3.212216 0.911773,0.860611 2.349779,0.820413 3.206735,-0.09501 m 24.097103,-2.91621 c -0.314279,0.334378 -0.297834,0.864265 0.03655,1.180371 0.338032,0.310623 0.862438,0.297833 1.176716,-0.04386 0.317933,-0.330723 0.305142,-0.858784 -0.03655,-1.171235 -0.327069,-0.319759 -0.862438,-0.303315 -1.176716,0.03472 M 64.920913,39.68546 c -0.747324,0.793004 -0.712607,2.042809 0.08588,2.790133 0.794832,0.750979 2.044636,0.705299 2.788306,-0.08405 0.750979,-0.796658 0.714436,-2.037326 -0.08588,-2.79196 -0.785695,-0.747324 -2.037327,-0.705298 -2.788306,0.08588 m 2.125033,5.642391 c -0.666928,0.705299 -0.632211,1.816236 0.07674,2.479509 0.703472,0.670582 1.816236,0.630383 2.47951,-0.07492 0.668755,-0.699817 0.63221,-1.814409 -0.07491,-2.47951 -0.707127,-0.663272 -1.818064,-0.63221 -2.481337,0.07492 m 0.440355,6.088227 c -0.518925,0.555469 -0.487862,1.42887 0.06395,1.949622 0.562778,0.52806 1.428869,0.496998 1.953276,-0.05847 0.522578,-0.553641 0.502479,-1.425216 -0.0603,-1.951449 -0.551815,-0.520752 -1.430698,-0.493344 -1.956931,0.0603 m -1.434351,5.781258 c -0.42391,0.447664 -0.403811,1.158445 0.04568,1.586009 0.454972,0.423911 1.163926,0.400157 1.587836,-0.05299 0.420256,-0.447664 0.401984,-1.156617 -0.04751,-1.584182 -0.454972,-0.420255 -1.162098,-0.400156 -1.586009,0.05116 M 37.001306,36.606627 c -0.341686,-0.312451 -0.866092,-0.297833 -1.178543,0.03472 -0.31976,0.336205 -0.303315,0.862438 0.03106,1.178543 0.341686,0.31976 0.86792,0.303315 1.178544,-0.03289 0.317932,-0.338032 0.303315,-0.862438 -0.03106,-1.180371 M 59.3242,31.698772 c -0.805796,-0.75646 -2.044636,-0.71078 -2.791961,0.0804 -0.747325,0.793005 -0.714435,2.037327 0.07857,2.79196 0.793004,0.747325 2.050117,0.708954 2.793787,-0.08222 0.745497,-0.791177 0.712608,-2.044635 -0.0804,-2.790133 m -5.755675,-1.472731 c -0.707126,-0.665101 -1.814409,-0.62673 -2.481337,0.07126 -0.661445,0.707126 -0.630384,1.818063 0.07857,2.483163 0.705299,0.666928 1.818063,0.632211 2.477682,-0.07126 0.665101,-0.71078 0.626729,-1.816236 -0.07492,-2.483163 m -6.084573,0.444009 c -0.560951,-0.522579 -1.432524,-0.491516 -1.953276,0.0603 -0.522579,0.557296 -0.498825,1.427043 0.0603,1.95693 0.549987,0.518925 1.42887,0.491517 1.953276,-0.06395 0.518925,-0.551814 0.493344,-1.430697 -0.0603,-1.953276 m -5.673449,2.157923 c -0.453145,-0.422083 -1.162099,-0.401984 -1.584181,0.04568 -0.422083,0.451318 -0.401984,1.151136 0.04568,1.580527 0.453145,0.422083 1.160272,0.401984 1.584182,-0.04751 0.423909,-0.445836 0.400156,-1.156617 -0.04568,-1.5787 m 22.626208,5.16001 c -0.856955,0.904464 -2.296787,0.951971 -3.20856,0.08771 -0.917254,-0.864265 -0.951971,-2.298616 -0.08953,-3.208561 0.856957,-0.911773 2.28948,-0.95928 3.206735,-0.09867 0.909945,0.862438 0.953798,2.296789 0.09136,3.219525"/></svg>
