<?xml version="1.0" encoding="UTF-8" standalone="no"?>
<svg
   viewBox="0 0 720 720"
   version="1.1"
   id="svg1617"
   xmlns="http://www.w3.org/2000/svg"
   xmlns:svg="http://www.w3.org/2000/svg"
   xmlns:rdf="http://www.w3.org/1999/02/22-rdf-syntax-ns#"
   xmlns:cc="http://creativecommons.org/ns#"
   xmlns:dc="http://purl.org/dc/elements/1.1/">
  <defs
     id="defs1533">
    <style
       type="text/css"
       id="style1531">*{stroke-linejoin: round; stroke-linecap: butt}</style>
  </defs>
  <g
     id="g2086">
    <g
       id="patch_1"
       style="fill:#1a202c;fill-opacity:1;stroke-width:1.5;stroke-miterlimit:4;stroke-dasharray:none;stroke:#666666">
      <path
         d="M 0,720 H 720 V 0 H 0 Z"
         id="path1535"
         style="fill:none;fill-opacity:1;stroke:#666666;stroke-width:1.5;stroke-miterlimit:4;stroke-dasharray:none" />
    </g>
    <g
       id="axes_1">
      <g
         id="line2d_1">
        <path
           d="m 369,315.68516 -3.31233,0.1143 -3.29657,0.34268 -3.26518,0.56912 -3.21829,0.79286 -3.15613,1.01288 -3.079,1.22809 -2.98725,1.4375 -2.88149,1.63987 -2.76231,1.83423 -2.62989,2.02028 -2.48573,2.19611 -2.32995,2.36175 -2.1638,2.51604 -1.98848,2.65819 -1.80527,2.78762 -1.61621,2.90357 -1.42327,3.00587 -1.23176,3.09356 -1.13614,3.45789 -1.09934,4.12146 -2.01963,7.89941 -1.74407,6.2035 -0.4653,2.7354 -0.18847,2.4233 0.019,2.43219 0.26281,2.77155 0.49908,2.74651 0.71377,2.70801 0.91037,2.65826 1.23971,2.91939 1.45119,2.83201 1.64648,2.73414 1.82824,2.62628 1.99842,2.50856 2.15621,2.38296 2.30354,2.24887 2.71937,2.33228 2.8733,2.14843 3.01376,1.95458 3.13882,1.75437 3.25005,1.54591 3.34641,1.33155 3.42774,1.11241 3.49446,0.88753 3.54566,0.66072 3.5819,0.42952 3.60262,0.19782 3.60802,-0.0348 3.59798,-0.2679 3.57262,-0.49913 3.53192,-0.72883 3.47608,-0.95526 3.40489,-1.17873 3.31918,-1.39616 3.21825,-1.60913 3.10282,-1.81524 2.97292,-2.01396 2.82891,-2.20418 2.66982,-2.38631 2.25588,-2.29415 2.10471,-2.42588 1.94311,-2.5487 1.76924,-2.66318 1.58275,-2.76807 1.38281,-2.86225 1.16566,-2.94573 0.92938,-3.0164 0.6082,-2.72903 0.38405,-2.76081 0.13645,-2.77785 -0.0986,-2.42909 -0.30745,-2.41035 -0.58381,-2.70662 -1.04128,-3.5927 -1.31862,-4.65894 -2.63241,-10.07775 -1.22397,-3.42385 -1.31836,-3.05547 -1.5111,-2.96117 -1.70276,-2.85256 -1.88954,-2.73032 -2.06908,-2.59524 -2.24077,-2.44715 -2.40185,-2.28808 -2.5527,-2.11748 -2.69173,-1.93674 -2.81811,-1.74694 -2.93134,-1.54868 -3.03072,-1.34313 -3.11588,-1.13094 -3.18625,-0.91343 -3.2415,-0.6916 -3.28138,-0.46649 -3.30569,-0.23886 -1.8078,-0.0341 v 0"
           clip-path="url(#p95e90c9ebc)"
           style="fill:none;stroke:#281a2c;stroke-width:1.5;stroke-linecap:square"
           id="path1538" />
      </g>
      <g
         id="line2d_2">
        <path
           d="m 369,315.47193 -3.32707,0.11477 -3.31131,0.34377 -3.27984,0.57116 -3.23284,0.79585 -3.17063,1.01644 -3.09331,1.23261 -3.0015,1.44265 -2.8955,1.64593 -2.77627,1.84088 -2.64381,2.0276 -2.49966,2.20404 -2.34393,2.37037 -2.17819,2.52513 -2.00374,2.66763 -1.82165,2.79754 -1.63443,2.914 -1.44602,3.01612 -1.36591,3.3905 -1.16582,3.47646 -1.51377,5.34193 -1.21148,3.95765 -1.11158,2.83622 -3.00973,7.21069 -0.72078,2.57715 -0.41356,2.24734 -0.24006,2.64505 0.01,2.65065 0.24161,2.64002 0.45372,2.61657 0.75589,2.94811 0.98733,2.89041 1.19836,2.82205 1.58144,3.08005 1.80874,2.96779 2.01808,2.84447 2.21224,2.71023 2.39209,2.56605 2.55753,2.41367 2.71046,2.25233 2.85019,2.08389 2.97747,1.90828 3.09283,1.72518 3.19468,1.53828 3.28487,1.34445 3.36201,1.1473 3.42659,0.94635 3.47863,0.74167 3.51784,0.53484 3.54426,0.32592 3.55778,0.11651 3.55848,-0.0934 3.54637,-0.30287 3.52134,-0.51197 3.48369,-0.71831 3.4331,-0.92337 3.3697,-1.12551 3.29388,-1.32318 3.20563,-1.51626 3.10445,-1.70527 2.99112,-1.88788 2.86512,-2.06445 2.72664,-2.23397 2.5749,-2.39648 2.41108,-2.54958 2.23289,-2.69469 2.04037,-2.83007 1.83264,-2.95475 1.4408,-2.72195 1.24935,-2.80286 1.04153,-2.87445 0.8158,-2.93481 0.51073,-2.60796 0.30432,-2.63444 0.0785,-2.64899 -0.16717,-2.6486 -0.34947,-2.25535 -0.54097,-2.22618 -0.8515,-2.53798 -1.31968,-3.13029 -2.06625,-4.85471 -1.00528,-3.06913 -3.10874,-10.32789 -1.36591,-3.3905 -1.44602,-3.01612 -1.63443,-2.914 -1.82165,-2.79754 -2.00374,-2.66763 -2.17819,-2.52513 -2.34393,-2.37037 -2.49966,-2.20404 -2.64381,-2.0276 -2.77627,-1.84088 -2.8955,-1.64593 -3.0015,-1.44265 -3.09331,-1.23261 -3.17063,-1.01644 -3.23284,-0.79585 -3.27984,-0.57116 -3.31131,-0.34377 L 369,315.47193 v 0"
           clip-path="url(#p95e90c9ebc)"
           style="fill:none;stroke:#362b4d;stroke-width:1.5;stroke-linecap:square"
           id="path1541" />
      </g>
      <g
         id="line2d_3">
        <path
           d="m 369,315.3268 -3.33711,0.1151 -3.3213,0.34475 -3.28984,0.57239 -3.24277,0.79775 -3.18033,1.01934 -3.10299,1.23577 -3.01117,1.4461 -2.90523,1.64967 -2.78565,1.84559 -2.65321,2.03261 -2.50918,2.20938 -2.35357,2.37608 -2.18806,2.53126 -2.01391,2.67419 -1.83295,2.80419 -1.6475,2.92074 -1.46099,3.02338 -1.3884,3.39821 -1.29132,3.77833 -3.04426,9.35062 -1.21974,2.55484 -4.26524,8.20774 -0.84818,2.34194 -0.63287,2.39081 -0.4095,2.42048 -0.19265,2.43408 0.0106,2.43488 0.19973,2.42492 0.4542,2.80444 0.6727,2.76691 0.87441,2.7189 1.22489,3.03843 1.44844,2.95295 1.65363,2.85806 1.8442,2.75363 2.02123,2.64068 2.1853,2.5204 2.64096,2.68184 2.81906,2.50992 2.98156,2.32986 3.12974,2.1413 3.26343,1.94556 3.38289,1.74317 3.488,1.5353 3.57925,1.32155 3.65618,1.10372 3.71877,0.88278 3.76743,0.65744 3.8015,0.43171 3.82145,0.20345 3.82703,-0.0256 3.81828,-0.25384 3.79521,-0.4818 3.75771,-0.70856 3.70621,-0.93163 3.64034,-1.15239 3.56008,-1.36982 3.46608,-1.58146 3.35734,-1.78916 2.88216,-1.75861 3.11415,-2.16241 2.96414,-2.35045 2.79976,-2.52979 2.33857,-2.39204 2.1853,-2.5204 2.02123,-2.64068 1.8442,-2.75363 1.65363,-2.85806 1.44844,-2.95295 1.22489,-3.03843 0.87441,-2.7189 0.6727,-2.76691 0.4542,-2.80444 0.21555,-2.83012 -0.0226,-2.43565 -0.22834,-2.43289 -0.44661,-2.41675 -0.66941,-2.38398 -0.8827,-2.33193 -1.24914,-2.62724 -2.50309,-4.53763 -1.29591,-2.58491 -1.00019,-2.48575 -1.0703,-3.33402 -2.12232,-6.78492 -1.32105,-3.42899 -1.53005,-3.33041 -1.59643,-2.95017 -1.78265,-2.83737 -1.96514,-2.71096 -2.14146,-2.57138 -2.30946,-2.41948 -2.46754,-2.25621 -2.61531,-2.08153 -2.7507,-1.89758 -2.87392,-1.70393 -2.98348,-1.50271 -3.07952,-1.29343 -3.16073,-1.07881 -3.22719,-0.8588 -3.27857,-0.63399 -3.31423,-0.40735 -3.33438,-0.17766 L 369,315.3268 v 0"
           clip-path="url(#p95e90c9ebc)"
           style="fill:none;stroke:#403c73;stroke-width:1.5;stroke-linecap:square"
           id="path1544" />
      </g>
      <g
         id="line2d_4">
        <path
           d="m 369,315.22161 -3.34438,0.11533 -3.32854,0.34546 -3.29703,0.57357 -3.24999,0.799 -3.18749,1.02106 -3.11005,1.23798 -3.01814,1.44873 -2.91207,1.65277 -2.79256,1.84879 -2.66026,2.03597 -2.51587,2.21349 -2.36073,2.38009 -2.19516,2.53575 -2.02167,2.67869 -1.84117,2.80906 -1.65672,2.9258 -1.4723,3.02848 -1.40476,3.40384 -1.41293,4.07935 -2.61875,7.8323 -1.03349,2.19956 -1.32093,2.29182 -4.50618,7.35502 -1.1271,2.43084 -0.89658,2.499 -0.64968,2.54464 -0.40634,2.57118 -0.17286,2.58113 0.0441,2.57828 0.24657,2.56404 0.52375,2.96118 0.75654,2.91756 0.97166,2.86295 1.17079,2.79889 1.35443,2.72739 1.75756,3.01936 1.96542,2.90517 2.15696,2.78269 2.33516,2.65118 2.5004,2.51163 2.65274,2.36543 2.79359,2.212 2.92244,2.05302 3.42841,2.11134 3.15946,1.69602 3.25363,1.52061 3.75933,1.49553 3.41716,1.135 3.91538,1.05334 3.53121,0.73541 3.56763,0.54454 4.04362,0.38101 3.60863,0.13367 4.06164,-0.0822 3.5999,-0.27844 4.02383,-0.54424 3.98114,-0.78705 3.92275,-1.02725 3.84875,-1.26376 3.34648,-1.31816 3.26471,-1.49819 3.17184,-1.67434 3.06836,-1.84511 3.31367,-2.27486 2.8103,-2.19251 2.67063,-2.34709 2.51994,-2.49391 2.35692,-2.63372 2.17987,-2.76681 1.98997,-2.89051 1.78437,-3.00565 1.38016,-2.71616 1.1979,-2.78914 1.00078,-2.8545 0.7883,-2.9104 0.55811,-2.95571 0.27904,-2.56064 0.0788,-2.57665 -0.13604,-2.58162 -0.36556,-2.57362 -0.60905,-2.55043 -0.856,-2.50811 -1.09107,-2.44386 -1.28305,-2.35588 -2.0952,-3.32691 -2.30339,-3.72005 -1.11271,-2.22132 -0.97473,-2.46339 -1.3539,-4.21274 -1.65062,-4.99189 -1.35518,-3.42725 -1.56115,-3.32697 -1.62294,-2.94561 -1.80786,-2.83131 -1.98949,-2.70325 -2.16427,-2.5626 -2.33111,-2.40948 -2.48856,-2.24451 -2.63485,-2.06905 -2.76944,-1.88352 -2.89137,-1.68897 -2.99995,-1.48627 -3.09445,-1.27665 -3.17445,-1.06109 -3.23973,-0.83983 -3.28967,-0.61461 -3.32399,-0.3869 -3.34267,-0.15739 -0.60853,-0.004 v 0"
           clip-path="url(#p95e90c9ebc)"
           style="fill:none;stroke:#3f538f;stroke-width:1.5;stroke-linecap:square"
           id="path1547" />
      </g>
      <g
         id="line2d_5">
        <path
           d="m 369,315.1416 -3.34991,0.11552 -3.33411,0.34559 -3.30253,0.57447 -3.25541,0.80024 -3.19284,1.02267 -3.11562,1.23917 -3.02332,1.45103 -2.91754,1.65468 -2.79774,1.85141 -2.66559,2.03859 -2.52111,2.21649 -2.3659,2.38342 -2.2009,2.5389 -2.02744,2.68226 -1.84737,2.8128 -1.66386,2.92961 -1.48104,3.03231 -1.41697,3.40825 -1.43629,4.08435 -2.35069,6.91874 -1.00118,2.18009 -1.3121,2.26048 -1.89888,2.74665 -3.16945,4.55277 -1.44266,2.46329 -1.22602,2.55954 -0.82712,2.18796 -0.74646,2.67035 -0.48374,2.70008 -0.23285,2.71222 0.002,2.71013 0.22009,2.69598 0.42192,2.67213 0.72914,3.07544 0.96397,3.01946 1.1809,2.95321 1.38246,2.87753 1.56983,2.79369 1.74365,2.70306 2.19194,2.96853 2.38864,2.83129 2.57103,2.68491 2.73856,2.53167 2.89377,2.3699 3.03603,2.2014 3.16498,2.02806 3.28259,1.84747 3.3876,1.66263 3.4807,1.47306 3.56181,1.27956 3.6311,1.08218 3.68833,0.88249 3.73368,0.68048 3.76723,0.47606 3.78884,0.26998 3.79847,0.0646 3.79624,-0.14186 3.78208,-0.34782 3.75607,-0.55254 3.71812,-0.75615 3.66821,-0.95788 3.60638,-1.15698 3.53299,-1.35194 3.44704,-1.54502 3.3497,-1.73235 3.24016,-1.91536 3.11806,-2.09379 2.98377,-2.26594 2.83752,-2.43082 2.67745,-2.58989 2.50402,-2.74111 2.31681,-2.88367 2.11356,-3.01813 1.67069,-2.7427 1.49116,-2.83057 1.29808,-2.9109 1.09021,-2.98265 0.86567,-3.04479 0.622,-3.09615 0.32266,-2.68532 0.11285,-2.70447 -0.11376,-2.7129 -0.35601,-2.70798 -0.61427,-2.68768 -0.7154,-2.21039 -0.89909,-2.16994 -1.30449,-2.53035 -1.49984,-2.42574 -2.39322,-3.39851 -2.36726,-3.43515 -1.26322,-2.24608 -0.96461,-2.172 -1.07675,-3.03501 -2.69744,-7.94845 -1.43352,-3.40019 -1.49732,-3.02365 -1.68085,-2.91943 -1.86409,-2.80137 -2.04343,-2.66979 -2.21605,-2.52545 -2.38044,-2.3687 -2.53491,-2.20052 -2.67802,-2.02206 -2.80925,-1.83374 -2.92744,-1.63699 -3.03251,-1.4316 -3.12317,-1.21991 -3.19918,-1.00256 -3.26036,-0.77975 -3.30604,-0.55368 -3.33617,-0.32502 L 369,315.1416 v 0"
           clip-path="url(#p95e90c9ebc)"
           style="fill:none;stroke:#3f6c96;stroke-width:1.5;stroke-linecap:square"
           id="path1550" />
      </g>
      <g
         id="line2d_6">
        <path
           d="m 369,315.07895 -3.35424,0.11566 -3.33843,0.34601 -3.30689,0.57476 -3.25968,0.80123 -3.19716,1.02353 -3.11977,1.24069 -3.02775,1.45209 -2.92153,1.65675 -2.80185,1.85338 -2.66962,2.04084 -2.52536,2.21868 -2.37009,2.38591 -2.20505,2.54168 -2.03193,2.68505 -1.85264,2.81548 -1.66972,2.93248 -1.61432,3.31593 -1.41073,3.41959 -1.44222,4.09572 -2.20394,6.32371 -1.02175,2.17718 -1.13644,1.92704 -1.68283,2.36679 -4.90106,6.53086 -1.56973,2.56827 -1.12661,2.21922 -0.93707,2.27391 -0.74008,2.31375 -0.5439,2.34026 -0.40351,2.82753 -0.14639,2.83287 0.0932,2.82452 0.31634,2.80437 0.52374,2.77422 0.71571,2.73604 1.0617,3.13304 1.28769,3.05981 1.49709,2.97734 1.69242,2.88589 1.87427,2.78679 2.34852,3.05497 2.55327,2.90649 2.74228,2.74898 2.91662,2.58292 3.07582,2.4105 3.22222,2.22976 3.35443,2.0439 3.47404,1.85126 3.58053,1.65351 3.67364,1.45241 3.75446,1.24582 3.82231,1.03613 3.87723,0.82422 3.91943,0.6101 3.94895,0.39378 3.96568,0.17686 3.96967,-0.0407 3.96092,-0.25811 3.93934,-0.47542 3.90518,-0.69019 3.85812,-0.90408 3.79828,-1.11546 3.72574,-1.3235 3.64031,-1.52813 3.54203,-1.72846 3.43064,-1.92432 3.30658,-2.114 3.16874,-2.2986 3.01804,-2.47561 2.85268,-2.64647 2.67315,-2.80909 2.47844,-2.96321 2.26745,-3.10818 1.79802,-2.83004 1.61022,-2.92622 1.4096,-3.01351 1.19299,-3.09239 0.95915,-3.16137 0.6215,-2.7561 0.42178,-2.79053 0.20679,-2.81581 -0.0243,-2.83023 -0.27285,-2.8321 -0.42978,-2.3508 -0.62172,-2.33109 -0.81863,-2.29937 -1.01473,-2.25398 -1.45613,-2.62265 -1.66386,-2.50711 -2.36084,-3.1241 -2.92832,-3.87527 -1.40815,-2.27157 -1.06232,-2.18575 -1.04637,-2.74392 -3.649,-10.27357 -1.54434,-3.35252 -1.60291,-2.97166 -1.78625,-2.85968 -1.96728,-2.73406 -2.14299,-2.59525 -2.31136,-2.44372 -2.47,-2.28088 -2.61857,-2.10658 -2.7551,-1.92277 -2.8796,-1.72912 -2.99065,-1.52751 -3.08792,-1.31845 -3.17082,-1.10289 -3.2387,-0.88259 -3.29154,-0.65737 -3.32872,-0.42989 -3.35035,-0.19916 L 369,315.07895 v 0"
           clip-path="url(#p95e90c9ebc)"
           style="fill:none;stroke:#44839b;stroke-width:1.5;stroke-linecap:square"
           id="path1553" />
      </g>
      <g
         id="line2d_7">
        <path
           d="m 369,315.02794 -3.35777,0.11577 -3.34194,0.34636 -3.31038,0.57533 -3.26312,0.80202 -3.2007,1.02415 -3.12312,1.24193 -3.03103,1.45353 -2.92494,1.65805 -2.80522,1.85491 -2.67294,2.04258 -2.5286,2.22065 -2.37361,2.38779 -2.20854,2.5438 -2.03578,2.68718 -1.85655,2.81787 -1.67411,2.93497 -1.49355,3.03776 -1.43529,3.41421 -1.56891,4.38769 -2.13366,6.02252 -1.02772,2.17323 -1.14954,1.92133 -1.45863,2.01189 -3.3267,4.04606 -2.54357,3.28047 -1.74222,2.62947 -1.26761,2.28028 -1.07221,2.34329 -0.86645,2.39033 -0.65884,2.42262 -0.45802,2.44281 -0.26542,2.45212 -0.0782,2.94189 0.16664,2.92861 0.39518,2.90345 0.6068,2.8689 0.80539,2.8249 1.17125,3.23112 1.40446,3.15035 1.62056,3.0602 1.82204,2.96085 2.00839,2.85476 2.18378,2.73972 2.34589,2.61932 2.49808,2.49122 3.02609,2.6847 3.19543,2.50189 3.34931,2.3127 3.48866,2.11713 3.61423,1.91494 3.72589,1.70719 3.82337,1.4957 3.9075,1.27921 3.97809,1.05856 4.03462,0.83711 4.07805,0.61092 4.10761,0.38488 4.12374,0.15661 4.12626,-0.0714 4.11526,-0.29919 4.09065,-0.52668 4.05255,-0.7522 4.00088,-0.97574 3.93548,-1.19719 3.85681,-1.41408 3.76399,-1.62863 3.65745,-1.83825 3.53774,-2.04128 3.40315,-2.24029 3.25475,-2.43193 3.09138,-2.61703 2.55917,-2.43552 2.41245,-2.56516 2.25474,-2.6888 2.08548,-2.80594 1.90349,-2.91635 1.70813,-3.01909 1.49881,-3.11296 1.27369,-3.19752 0.89885,-2.80045 0.70827,-2.84767 0.50242,-2.88757 0.283,-2.91734 0.0469,-2.93658 -0.20803,-2.94386 -0.3796,-2.44765 -0.57742,-2.43203 -0.78343,-2.40498 -0.98989,-2.3638 -1.19231,-2.30765 -1.37439,-2.23446 -1.83409,-2.56117 -2.88086,-3.5503 -2.82032,-3.53331 -1.30169,-1.96163 -1.01354,-1.8899 -1.03792,-2.45695 -1.3508,-3.9097 -1.8664,-5.27868 -1.56356,-3.69433 -1.65589,-3.29944 -1.7076,-2.91458 -1.88919,-2.79531 -2.06769,-2.66209 -2.23944,-2.51615 -2.4026,-2.35817 -2.55558,-2.18917 -2.698,-2.00904 -2.82795,-1.81975 -2.94524,-1.62144 -3.0488,-1.41564 -3.13841,-1.20251 -3.21314,-0.9842 -3.27289,-0.7609 -3.31724,-0.53405 -3.34598,-0.30472 L 369,315.02794 v 0"
           clip-path="url(#p95e90c9ebc)"
           style="fill:none;stroke:#4c9aa0;stroke-width:1.5;stroke-linecap:square"
           id="path1556" />
      </g>
      <g
         id="line2d_8">
        <path
           d="m 369,314.98611 -3.36066,0.11587 -3.34482,0.34664 -3.31324,0.57579 -3.26606,0.80226 -3.20351,1.02499 -3.12588,1.24295 -3.03392,1.45435 -2.92759,1.65942 -2.80803,1.8561 -2.67572,2.04396 -2.53135,2.22221 -2.37663,2.38924 -2.21157,2.54547 -2.03844,2.68932 -1.85997,2.81972 -1.67806,2.93687 -1.62578,3.3207 -1.426,3.42451 -1.57151,4.39826 -1.9483,5.42367 -1.02463,2.16863 -1.14845,1.91449 -1.47538,2.00234 -2.45016,2.87878 -3.42296,4.02127 -1.96025,2.63438 -1.46938,2.30146 -1.28006,2.37956 -1.06952,2.43981 -0.85343,2.48405 -0.63934,2.51399 -0.43274,2.53173 -0.23489,2.53856 -0.0362,3.04277 0.21556,3.02581 0.44981,2.99728 0.6682,2.9586 0.87183,2.91113 1.06195,2.85599 1.46403,3.25228 1.68916,3.1574 1.89927,3.05276 2.09377,2.94082 2.27626,2.81994 2.44608,2.69201 2.60283,2.55904 2.74964,2.41837 3.30769,2.58515 3.46897,2.38713 3.61492,2.18213 3.74592,1.97075 3.86199,1.75414 3.96343,1.53274 4.05071,1.30598 4.12326,1.07647 4.18154,0.84358 4.22544,0.60826 4.25496,0.37144 4.27015,0.13402 4.27106,-0.10389 4.25762,-0.34222 4.22983,-0.57928 4.18781,-0.81411 4.13133,-1.04746 4.06052,-1.27755 3.97525,-1.50421 3.87557,-1.72646 3.76123,-1.944 3.63189,-2.15647 3.0605,-2.05547 3.34922,-2.53669 2.78937,-2.37735 2.6465,-2.51869 2.49162,-2.65514 2.32576,-2.78434 2.14788,-2.9064 1.95624,-3.02162 1.75078,-3.12839 1.52964,-3.22647 1.12258,-2.83598 0.93724,-2.89317 0.73695,-2.9441 0.52462,-2.98526 0.29561,-3.01745 0.0496,-3.03856 -0.15895,-2.53876 -0.35247,-2.53568 -0.55585,-2.5225 -0.76726,-2.49764 -0.98294,-2.45924 -1.19708,-2.40566 -1.39721,-2.33486 -1.8969,-2.68337 -2.39127,-2.93241 -4.93396,-5.84353 -1.3066,-1.95327 -1.00999,-1.88457 -1.03661,-2.45314 -1.46335,-4.20335 -1.79676,-4.97535 -1.45733,-3.40855 -1.51429,-3.031 -1.69461,-2.9268 -1.87631,-2.80845 -2.05478,-2.67652 -2.2267,-2.53195 -2.39087,-2.37476 -2.54518,-2.20618 -2.68817,-2.02737 -2.81935,-1.83873 -2.93791,-1.64094 -3.04278,-1.43561 -3.13375,-1.22285 -3.20972,-1.00522 -3.27102,-0.7817 -3.31671,-0.55537 -3.34693,-0.32559 L 369,314.98611 v 0"
           clip-path="url(#p95e90c9ebc)"
           style="fill:none;stroke:#57b1a4;stroke-width:1.5;stroke-linecap:square"
           id="path1559" />
      </g>
      <g
         id="line2d_9">
        <path
           d="m 369,314.95119 -3.36311,0.11551 -3.34725,0.34688 -3.31565,0.57619 -3.26845,0.80281 -3.20587,1.0257 -3.12835,1.2434 -3.0362,1.45536 -2.93003,1.6602 -2.81021,1.85741 -2.67811,2.04506 -2.53371,2.22347 -2.37863,2.39097 -2.21419,2.54675 -2.04109,2.6908 -1.86266,2.82139 -1.68123,2.93853 -1.50232,3.04133 -1.44715,3.41848 -1.49257,4.09632 -2.05749,5.71405 -1.01377,2.16387 -1.13763,1.90705 -1.47413,1.9912 -2.16038,2.48859 -4.67196,5.25579 -2.07046,2.70543 -1.55318,2.36604 -1.35444,2.44778 -1.13673,2.51141 -0.91353,2.55858 -0.69239,2.59098 -0.47656,2.60994 -0.27255,2.61863 -0.0767,2.61677 0.14924,3.12682 0.39724,3.09978 0.6285,3.06178 0.84345,3.01483 1.04467,2.95926 1.23405,2.89544 1.66227,3.28907 1.8869,3.183 2.09543,3.0683 2.28915,2.94581 2.47041,2.81471 2.63858,2.67698 2.79431,2.53328 2.93908,2.38274 3.07237,2.22698 3.19466,2.06624 3.30635,1.90065 3.4071,1.73174 4.00453,1.76595 4.10768,1.53409 4.1954,1.29831 4.26813,1.05815 4.32545,0.81619 4.36786,0.57106 4.39516,0.32452 4.40737,0.0775 4.40459,-0.16973 4.38671,-0.41718 4.35366,-0.66381 4.30575,-0.90705 4.24248,-1.14915 3.64854,-1.20087 3.57839,-1.38081 3.99059,-1.79444 3.39357,-1.75558 3.29115,-1.9244 3.62183,-2.40146 3.03516,-2.27241 2.89925,-2.42579 2.75094,-2.57508 2.59166,-2.71718 2.4199,-2.85296 2.23566,-2.98116 2.03721,-3.10211 1.82389,-3.21467 1.59576,-3.31703 1.17188,-2.9178 0.97966,-2.97828 0.77293,-3.03176 0.55321,-3.07556 0.31657,-3.11004 0.0634,-3.1328 -0.15412,-2.61873 -0.35301,-2.61641 -0.56201,-2.60384 -0.77939,-2.57941 -1.00294,-2.54161 -1.22548,-2.48814 -1.43762,-2.41741 -1.62274,-2.32804 -2.1244,-2.65079 -3.26129,-3.63886 -2.84812,-3.24082 -1.47413,-1.9912 -1.13763,-1.90705 -1.01378,-2.16387 -1.13688,-3.02957 -2.75774,-7.64425 -1.49512,-3.39379 -1.55022,-3.01485 -1.7307,-2.90801 -1.91187,-2.78703 -2.08917,-2.65263 -2.25973,-2.5056 -2.42202,-2.3463 -2.57404,-2.17605 -2.71544,-1.9947 -2.84429,-1.8043 -2.96023,-1.6053 -3.06278,-1.39814 -3.15098,-1.18452 -3.22442,-0.96542 -3.28284,-0.74141 -3.32582,-0.51395 -3.35318,-0.28366 L 369,314.95119 v 0"
           clip-path="url(#p95e90c9ebc)"
           style="fill:none;stroke:#70c9a3;stroke-width:1.5;stroke-linecap:square"
           id="path1562" />
      </g>
      <g
         id="line2d_10">
        <path
           d="m 369,314.9212 -3.36518,0.11558 -3.34932,0.34708 -3.3177,0.57652 -3.27048,0.80328 -3.20785,1.0263 -3.13049,1.24373 -3.03813,1.45622 -2.93193,1.66118 -2.81229,1.85815 -2.68018,2.04594 -2.53577,2.2245 -2.38067,2.39214 -2.21587,2.54835 -2.04382,2.69171 -1.86509,2.82277 -1.68372,2.94008 -1.63384,3.32405 -1.54899,3.71763 -1.68666,4.70845 -1.67609,4.52799 -1.03795,2.16578 -1.16949,1.91003 -1.52297,1.99671 -2.24436,2.50109 -5.27958,5.75461 -2.16705,2.77476 -1.62429,2.42807 -1.41927,2.51328 -1.19534,2.57991 -0.96447,2.62916 -0.73577,2.66316 -0.51473,2.68411 -0.30258,2.69333 -0.10097,2.6925 0.1304,3.21734 0.38697,3.19042 0.62666,3.15202 0.85056,3.10365 1.06115,3.04561 1.257,2.98061 1.44139,2.9079 1.90022,3.29146 2.11958,3.17385 2.32312,3.04814 2.51378,2.91302 2.69088,2.77052 2.85405,2.62269 3.00586,2.46745 3.14618,2.30578 3.27416,2.14005 3.39116,1.9691 3.4974,1.79292 3.59223,1.61384 3.6766,1.43028 4.291,1.40686 3.82095,1.02778 3.87159,0.83599 3.9115,0.64325 4.50577,0.49625 3.96169,0.22431 3.96847,0.0283 4.53017,-0.20845 3.94744,-0.39243 3.92102,-0.58757 4.43527,-0.90855 3.82878,-1.00068 3.76899,-1.19056 3.69861,-1.37752 3.61746,-1.56168 3.52551,-1.74232 3.42283,-1.91877 3.30872,-2.09172 3.18392,-2.25893 3.0468,-2.42235 2.89914,-2.57826 2.73867,-2.72909 2.56523,-2.87359 2.3794,-3.0099 2.17955,-3.13849 1.96447,-3.25886 1.73289,-3.37019 1.28895,-2.96868 1.09457,-3.03539 0.88677,-3.0945 0.66497,-3.14468 0.42799,-3.18481 0.17408,-3.21387 -0.0616,-2.6911 -0.26163,-2.69402 -0.47159,-2.68686 -0.69063,-2.66826 -0.91837,-2.63712 -1.14943,-2.5911 -1.3748,-2.52791 -1.58645,-2.44681 -1.76291,-2.34624 -2.26927,-2.6582 -7.29385,-8.17501 -1.22354,-1.92156 -1.07886,-2.17327 -1.07404,-2.73596 -3.59397,-9.67657 -1.58232,-3.35181 -1.63466,-2.96947 -1.81573,-2.85612 -1.99511,-2.72909 -2.16995,-2.58845 -2.33647,-2.43605 -2.49458,-2.27123 -2.64193,-2.09565 -2.77747,-1.9103 -2.90049,-1.71593 -3.01068,-1.51258 -3.1066,-1.30262 -3.18832,-1.08585 -3.25493,-0.86444 -3.30629,-0.63902 -3.34227,-0.40979 -3.36244,-0.17862 L 369,314.9212 v 0"
           clip-path="url(#p95e90c9ebc)"
           style="fill:none;stroke:#9cdca5;stroke-width:1.5;stroke-linecap:square"
           id="path1565" />
      </g>
      <g
         id="line2d_11">
        <path
           d="m 369,314.89538 -3.36696,0.11564 -3.3511,0.34726 -3.31947,0.57681 -3.27222,0.80368 -3.20972,1.0264 -3.13202,1.24476 -3.03998,1.45656 -2.93378,1.66165 -2.8139,1.85911 -2.68174,2.04701 -2.53757,2.22533 -2.38246,2.39309 -2.21765,2.54944 -2.04562,2.69291 -1.86687,2.82411 -1.68638,2.94111 -1.50819,3.04414 -1.45663,3.42125 -1.61271,4.3965 -2.00856,5.42292 -1.05855,2.16747 -1.19813,1.91258 -1.56567,2.00153 -2.31815,2.51204 -5.50663,5.80751 -2.28407,2.81366 -1.72547,2.46846 -1.51949,2.56039 -1.29026,2.63262 -1.05522,2.68752 -0.81901,2.72584 -0.59025,2.75052 -0.37028,2.76288 -0.16001,2.76426 0.0384,2.75679 0.29458,3.28594 0.54786,3.25059 0.78454,3.20446 1.00716,3.14795 1.21549,3.08292 1.41017,3.01064 1.59377,2.93063 2.07649,3.30945 2.29511,3.18205 2.49754,3.04697 2.68665,2.90284 2.86188,2.7517 3.02381,2.59422 3.17388,2.42953 3.31156,2.2593 3.43696,2.0846 3.55087,1.90484 3.6536,1.72012 3.74449,1.53273 3.8247,1.34032 3.89335,1.14596 3.95081,0.94955 3.9974,0.75018 4.03286,0.54927 4.05724,0.34748 4.07062,0.14545 4.073,-0.0579 4.06434,-0.26099 4.04463,-0.46332 4.01395,-0.6642 3.97224,-0.86386 3.91926,-1.06242 3.85541,-1.25763 3.78034,-1.45039 3.69403,-1.64003 3.59615,-1.82654 3.48743,-2.00767 3.36645,-2.18558 3.23438,-2.35721 3.08955,-2.5245 2.93283,-2.685 2.7633,-2.83901 2.58045,-2.98596 2.38372,-3.12509 2.17198,-3.2561 1.94459,-3.37777 1.47282,-2.98461 1.28117,-3.06008 1.07848,-3.12691 0.86017,-3.18678 0.62909,-3.23603 0.38059,-3.27563 0.11575,-2.75094 -0.0799,-2.7626 -0.28478,-2.76459 -0.50112,-2.75686 -0.72665,-2.73731 -0.96022,-2.70465 -1.19642,-2.65657 -1.42938,-2.59152 -1.64641,-2.50753 -1.83215,-2.40412 -2.36257,-2.7222 -3.56606,-3.7079 -3.06156,-3.27422 -1.56567,-2.00153 -1.19813,-1.91258 -1.05855,-2.16747 -1.06533,-2.7319 -3.26104,-8.81022 -1.55255,-3.37088 -1.60435,-2.98988 -1.78516,-2.87887 -1.96505,-2.75411 -2.14037,-2.61615 -2.30869,-2.46558 -2.46813,-2.30317 -2.61765,-2.12928 -2.75523,-1.94584 -2.88111,-1.75213 -2.99318,-1.55117 -3.09211,-1.34151 -3.17619,-1.12646 -3.24572,-0.90536 -3.29988,-0.68049 -3.3387,-0.45159 -3.3617,-0.22144 L 369,314.89538 v 0"
           clip-path="url(#p95e90c9ebc)"
           style="fill:none;stroke:#ceecb3;stroke-width:1.5;stroke-linecap:square"
           id="path1568" />
      </g>
      <g
         id="line2d_12">
        <path
           d="m 369,314.87294 -3.36852,0.11569 -3.35264,0.3474 -3.321,0.57707 -3.27385,0.8036 -3.2111,1.02727 -3.13366,1.2449 -3.04144,1.45721 -2.9352,1.66239 -2.81553,1.85958 -2.68309,2.04793 -2.53888,2.22634 -2.38406,2.39387 -2.2196,2.55004 -2.04684,2.69421 -1.86889,2.82499 -1.68845,2.94216 -1.51082,3.04517 -1.46009,3.4225 -1.6203,4.39796 -1.89769,5.11888 -1.03555,2.16191 -1.16848,1.90379 -1.53577,1.98728 -1.94747,2.11969 -7.26267,7.52861 -1.95394,2.4125 -1.7805,2.52662 -1.56688,2.6206 -1.33322,2.69509 -1.09161,2.75129 -0.85124,2.79128 -0.61616,2.81661 -0.39072,2.82958 -0.17581,2.83167 0.0286,2.82396 0.22281,2.80745 0.50828,3.337 0.75475,3.29155 0.98702,3.23495 1.20413,3.16953 1.40742,3.09619 1.59878,3.015 1.77879,2.92673 1.94747,2.83263 2.47277,3.17695 2.6733,3.03242 2.86012,2.87923 3.03273,2.71941 3.19303,2.55153 3.33966,2.37875 3.47399,2.2001 3.59604,2.0165 3.70646,1.82735 3.80458,1.635 3.89106,1.43874 3.96607,1.23853 4.02916,1.03667 4.08079,0.83232 4.12096,0.62613 4.14974,0.41713 4.16685,0.20932 h 4.1726 l 4.16685,-0.20932 4.14974,-0.41713 4.12095,-0.62613 4.0808,-0.83232 4.02916,-1.03667 3.96607,-1.23853 3.89106,-1.43874 3.80458,-1.635 3.70646,-1.82735 3.59604,-2.0165 3.47399,-2.2001 3.33966,-2.37875 3.19303,-2.55153 3.03273,-2.71941 2.86012,-2.87923 2.6733,-3.03242 2.47277,-3.17695 2.25567,-3.3143 1.74959,-2.94184 1.56801,-3.02877 1.37446,-3.10893 1.1683,-3.18145 0.94965,-3.24482 0.71526,-3.29959 0.46528,-3.34368 0.18483,-2.81138 -0.0111,-2.8261 -0.218,-2.8321 -0.43522,-2.828 -0.66285,-2.81272 -0.89832,-2.78429 -1.14033,-2.7415 -1.38086,-2.68169 -1.61213,-2.60349 -1.81891,-2.50534 -1.98255,-2.3875 -2.49564,-2.68524 -6.86478,-7.17035 -1.40374,-1.95452 -1.06813,-1.88465 -0.96377,-2.14952 -1.22679,-3.3169 -2.38578,-6.45425 -1.50687,-3.3979 -1.70927,-3.28774 -1.75381,-2.90132 -1.9342,-2.77891 -2.11069,-2.64308 -2.28038,-2.49465 -2.44143,-2.33434 -2.59277,-2.16247 -2.73258,-1.98063 -2.86062,-1.78873 -2.97539,-1.58868 -3.07655,-1.38095 -3.1635,-1.16645 -3.23577,-0.94613 -3.29273,-0.72183 -3.33432,-0.49377 -3.36024,-0.26339 -2.1446,-0.0468 v 0"
           clip-path="url(#p95e90c9ebc)"
           style="fill:none;stroke:#fdfecc;stroke-width:1.5;stroke-linecap:square"
           id="path1571" />
      </g>
      <g
         id="line2d_13">
        <path
           d="m 369,373.08241 8.27537,-0.10952 7.98859,-0.32082 7.53338,-0.51746 6.91005,-0.69351 6.20334,-0.85292 5.11523,-0.9335 2.30969,-0.51893 2.88001,0.0582 4.72112,-1.09125 3.73176,-1.08473 2.62472,-0.94174 2.35868,-1.0455 2.00218,-1.13522 1.58434,-1.20467 1.1497,-1.25077 0.73676,-1.27429 0.37849,-1.27924 0.0902,-1.27106 -0.13021,-1.25479 -0.40863,-1.64198 -0.74029,-2.00114 -1.42243,-3.09779 -2.67543,-5.18914 -2.9711,-5.3062 -2.72219,-4.40034 -2.68523,-3.88742 -2.63079,-3.40176 -2.53976,-2.94683 -2.68363,-2.79663 -2.82523,-2.63653 -2.9628,-2.46621 -3.09415,-2.28619 -3.21692,-2.09813 -3.33113,-1.90087 -3.43472,-1.69652 -3.5271,-1.48552 -3.60741,-1.26908 -3.67529,-1.04783 -3.73047,-0.82168 -3.77234,-0.59204 -3.80047,-0.36113 -3.81497,-0.12827 -3.81566,0.10502 -3.80252,0.33797 -3.77575,0.56901 -3.73525,0.7989 -3.68162,1.02465 -3.6146,1.2477 -3.53579,1.46388 -3.44431,1.67606 -3.34184,1.88093 -3.22918,2.07818 -3.10658,2.26809 -2.97617,2.44872 -2.83949,2.61968 -2.69757,2.78138 -2.55439,2.93208 -2.64603,3.38706 -2.48266,3.54321 -2.54345,4.02843 -2.60844,4.54236 -2.89842,5.47575 -2.00902,4.21324 -0.90687,2.39495 -0.40863,1.64198 -0.13021,1.25479 0.0902,1.27106 0.37849,1.27924 0.44788,0.85114 0.62413,0.84374 0.81445,0.83018 1.58434,1.20467 2.00218,1.13522 2.35868,1.0455 2.62472,0.94174 3.73176,1.08473 4.72112,1.09125 2.88001,-0.0582 4.56526,0.96213 5.50928,0.88595 6.14572,0.74515 7.10249,0.62328 7.63838,0.44134 8.17898,0.24579 5.19554,0.043 v 0"
           clip-path="url(#p95e90c9ebc)"
           style="fill:none;stroke:#281a2c;stroke-width:1.5;stroke-linecap:square"
           id="path1574" />
      </g>
      <g
         id="line2d_14">
        <path
           d="m 369,376.24321 9.6088,-0.11058 9.40003,-0.32791 9.00837,-0.53505 8.20283,-0.70188 7.80739,-0.89801 0.81759,-0.10938 1.58451,0.0459 6.80832,-0.96393 6.67086,-1.17923 4.74192,-1.027 4.77489,-1.25692 3.43974,-1.10537 3.16224,-1.24427 2.74189,-1.37145 1.53285,-0.97427 1.26647,-1.01215 0.98772,-1.0401 0.70884,-1.05787 0.4428,-1.06596 0.19925,-1.06552 -0.014,-1.05816 -0.19659,-1.04542 -0.56029,-1.53724 -0.78982,-1.49519 -1.26287,-1.92786 -2.42504,-3.21453 -6.50278,-8.45806 -10.22997,-13.70508 -3.502,-4.17814 -3.34831,-3.63634 -3.17533,-3.13216 -3.3076,-2.95486 -3.44106,-2.76654 -3.57229,-2.56724 -3.32256,-2.13214 -3.41878,-1.95606 -3.50838,-1.77365 -3.99388,-1.75006 -3.67137,-1.37098 -3.73497,-1.17258 -3.78863,-0.97152 -3.83257,-0.7667 -3.86614,-0.56008 -4.32254,-0.37626 -3.90263,-0.11723 -3.90321,0.0943 -3.89314,0.30317 -4.3008,0.58319 -3.83678,0.74409 -3.79396,0.94912 -3.7414,1.15044 -3.67889,1.34916 -3.60725,1.54341 -3.52731,1.73222 -3.43925,1.91614 -3.34437,2.09369 -3.24389,2.26434 -3.48139,2.70722 -3.34772,2.89953 -3.21461,3.08019 -3.08574,3.24987 -3.26025,3.75637 -3.43041,4.29788 -4.4865,6.02977 -7.19556,9.69238 -6.14138,8.07853 -1.15689,1.96512 -0.64792,1.52355 -0.2742,1.03771 -0.10903,1.05237 0.0885,1.06259 0.31736,1.0667 0.57387,1.06308 0.84764,1.05025 1.12736,1.0274 1.40248,0.99439 1.65668,0.95195 2.89783,1.33101 3.27133,1.1987 3.49893,1.05842 4.78911,1.19702 5.84277,1.18659 6.43218,1.05645 4.74934,0.64985 1.58451,-0.0459 7.35782,0.87824 8.15729,0.73337 8.77256,0.55679 9.24735,0.36094 9.54983,0.14978 1.76016,0.004 v 0"
           clip-path="url(#p95e90c9ebc)"
           style="fill:none;stroke:#362b4d;stroke-width:1.5;stroke-linecap:square"
           id="path1577" />
      </g>
      <g
         id="line2d_15">
        <path
           d="m 369,379.40402 10.67991,-0.10919 10.51632,-0.3254 9.94402,-0.5193 9.82475,-0.73754 3.54694,-0.32771 1.91889,-0.0434 9.26523,-1.00294 8.02043,-1.08999 6.52988,-1.0768 5.61717,-1.09948 5.79499,-1.35673 4.30067,-1.20764 4.08965,-1.37901 3.6938,-1.5468 2.15187,-1.11644 1.84487,-1.17502 1.50371,-1.22254 1.13892,-1.25734 0.77026,-1.27872 0.41256,-1.28694 0.083,-1.28337 -0.20955,-1.26988 -0.45736,-1.24891 -0.65943,-1.22274 -1.26889,-1.77921 -2.01532,-2.26714 -3.26931,-3.19708 -7.56021,-7.25834 -3.84458,-4.05182 -4.57555,-5.17994 -10.80931,-12.3931 -4.22647,-4.39377 -3.99508,-3.80431 -3.75298,-3.25903 -3.87774,-3.0562 -4.00489,-2.84176 -3.71153,-2.36524 -3.80944,-2.17481 -3.90184,-1.97745 -3.98711,-1.77431 -4.06457,-1.56536 -4.13325,-1.35138 -4.19261,-1.13257 -4.24186,-0.90997 -4.28038,-0.68553 -4.30825,-0.45809 -4.32503,-0.22969 h -4.33066 l -4.32503,0.22969 -4.30825,0.45809 -4.28038,0.68553 -4.24186,0.90997 -4.19261,1.13257 -4.13325,1.35138 -4.06457,1.56536 -3.98711,1.77431 -3.90184,1.97745 -3.80944,2.17481 -3.71153,2.36524 -3.60999,2.5479 -3.50757,2.72185 -3.77746,3.21949 -3.65895,3.4126 -3.90683,3.96173 -4.16374,4.55178 -5.89405,6.82414 -6.32218,7.24803 -3.79525,4.03367 -4.29968,4.22768 -7.50666,7.24228 -1.48908,1.71134 -1.26889,1.77921 -0.65943,1.22274 -0.45736,1.24891 -0.20955,1.26988 0.083,1.28337 0.41256,1.28694 0.77026,1.27872 1.13892,1.25734 1.50371,1.22254 1.84487,1.17502 2.15187,1.11644 2.40931,1.04928 3.97863,1.43599 4.24981,1.2644 5.80039,1.42703 5.68059,1.16003 6.65233,1.13737 8.21151,1.15058 8.66308,0.97222 2.46736,0.23808 1.86221,0.0395 9.26877,0.76803 9.79494,0.58607 10.39092,0.39668 10.67492,0.18403 3.63788,0.0126 v 0"
           clip-path="url(#p95e90c9ebc)"
           style="fill:none;stroke:#403c73;stroke-width:1.5;stroke-linecap:square"
           id="path1580" />
      </g>
      <g
         id="line2d_16">
        <path
           d="m 369,382.56482 11.814,-0.11128 11.50458,-0.32604 11.03243,-0.52519 15.06903,-0.97693 10.30968,-0.97051 9.54203,-1.12567 8.47305,-1.22069 7.89036,-1.37104 6.70995,-1.39666 5.11754,-1.25453 5.02567,-1.45 4.73634,-1.65275 2.88627,-1.21209 2.58919,-1.29392 2.22976,-1.36633 1.81921,-1.42613 1.37311,-1.47079 0.91308,-1.49889 0.46074,-1.5103 0.0343,-1.50615 -0.34802,-1.48864 -0.67751,-1.46055 -0.94725,-1.42505 -1.15797,-1.38503 -2.01358,-1.99871 -2.96679,-2.52158 -5.29201,-4.07677 -6.82443,-5.3039 -4.12344,-3.48246 -4.17629,-3.8276 -4.21521,-4.15749 -6.78866,-7.0631 -7.25333,-7.45091 -4.8561,-4.65085 -4.12821,-3.66394 -4.22956,-3.45691 -3.90444,-2.92369 -4.00263,-2.73577 -4.10049,-2.54065 -4.19713,-2.33637 -4.28938,-2.12465 -4.37575,-1.90566 -4.45424,-1.68133 -4.52421,-1.45159 -4.07275,-1.09332 -4.11353,-0.90517 -4.14683,-0.71499 -4.69549,-0.57422 -4.71671,-0.32792 -4.7263,-0.0826 -4.72438,0.16443 -4.71091,0.41038 -4.68591,0.65557 -4.64981,0.89797 -4.09412,0.99941 -4.55232,1.348 -4.4866,1.57952 -4.41142,1.80717 -4.32832,2.02867 -4.239,2.24276 -4.14401,2.45058 -4.04621,2.65009 -3.9474,2.84171 -3.85229,3.02335 -4.17602,3.56259 -4.08661,3.76183 -4.82956,4.76042 -6.89153,7.16387 -6.966,7.16587 -4.41929,4.22335 -3.8562,3.40588 -4.34526,3.55067 -7.13905,5.4621 -4.55699,3.61678 -2.15853,1.93621 -1.91627,2.03029 -1.05946,1.40546 -0.81965,1.44356 -0.52002,1.47572 -0.16322,1.49889 0.24289,1.51006 0.68527,1.50664 1.14323,1.48695 1.59931,1.45047 2.02937,1.398 2.41695,1.33152 2.74648,1.25394 3.00938,1.16874 4.85703,1.58509 5.0762,1.38349 6.79916,1.55062 6.56104,1.25495 7.6047,1.2293 8.09011,1.09574 9.06959,1.01537 10.56561,0.94373 6.28322,0.37762 10.75003,0.64076 11.32095,0.45077 11.75764,0.24197 6.9561,0.0385 v 0"
           clip-path="url(#p95e90c9ebc)"
           style="fill:none;stroke:#3f538f;stroke-width:1.5;stroke-linecap:square"
           id="path1583" />
      </g>
      <g
         id="line2d_17">
        <path
           d="m 369,385.72562 12.66486,-0.10957 12.60925,-0.33007 12.168,-0.53721 15.71398,-0.94519 10.58399,-0.90243 9.76535,-1.02329 10.31615,-1.31336 8.45933,-1.29068 7.3645,-1.3179 7.73863,-1.63334 5.88156,-1.46573 5.74911,-1.69245 3.64541,-1.25846 3.40351,-1.36128 3.08115,-1.45866 2.68009,-1.54656 2.21153,-1.62091 1.69195,-1.67828 0.64082,-0.85467 0.50302,-0.86167 0.36513,-0.86613 0.22889,-0.86809 0.0977,-0.86769 -0.0309,-0.86496 -0.15103,-0.8602 -0.63584,-1.69872 -1.02377,-1.65989 -1.33961,-1.61243 -1.58412,-1.55985 -2.68911,-2.23763 -3.88507,-2.79956 -5.86362,-3.86156 -8.77462,-5.799 -5.21992,-3.75967 -4.58343,-3.60233 -4.65443,-3.97531 -5.22752,-4.79706 -18.54107,-17.42663 -5.05693,-4.24767 -4.6879,-3.62791 -4.30775,-3.06436 -4.40007,-2.86303 -4.49438,-2.65318 -4.58807,-2.43441 -4.6779,-2.20832 -4.76265,-1.97416 -4.83981,-1.7344 -4.9088,-1.48813 -4.41327,-1.11321 -4.45304,-0.912 -4.48507,-0.70895 -4.50921,-0.50422 -4.52527,-0.29807 -4.53311,-0.0899 -4.53258,0.11593 -4.5237,0.32407 -4.5067,0.52934 -4.48143,0.73478 -4.44857,0.93691 -4.40786,1.13799 -4.36015,1.33545 -4.3056,1.53001 -4.24558,1.71939 -4.69713,2.15716 -4.60873,2.38428 -4.51539,2.60531 -4.42102,2.8171 -4.32776,3.02056 -4.24116,3.21351 -4.62372,3.78592 -5.01196,4.40828 -5.90313,5.51599 -14.13497,13.3858 -4.58999,3.95886 -4.50499,3.58376 -4.34533,3.18885 -5.75725,3.9141 -12.41232,8.21476 -2.84662,2.15727 -2.57941,2.27848 -1.47087,1.58655 -1.19113,1.63698 -0.83839,1.68064 -0.41617,1.71372 -0.0309,0.86496 0.0977,0.86769 0.22889,0.86809 0.36513,0.86613 0.50302,0.86167 0.64082,0.85467 1.69195,1.67828 2.21153,1.62091 2.68009,1.54656 3.08115,1.45866 3.40351,1.36128 3.64541,1.25846 5.74911,1.69245 5.88156,1.46573 7.73863,1.63334 7.3645,1.3179 8.45933,1.29068 8.94971,1.15389 10.01733,1.07576 10.84927,0.94438 11.51815,0.78266 1.8531,0.0492 12.04882,0.59129 12.40694,0.38491 12.67167,0.17069 3.50659,0.008 v 0"
           clip-path="url(#p95e90c9ebc)"
           style="fill:none;stroke:#3f6c96;stroke-width:1.5;stroke-linecap:square"
           id="path1586" />
      </g>
      <g
         id="line2d_18">
        <path
           d="m 369,388.88643 13.65101,-0.11136 13.52378,-0.33285 15.69708,-0.62651 12.48562,-0.74866 12.66341,-0.98671 11.46397,-1.11544 10.91065,-1.28741 9.00624,-1.2581 7.93267,-1.28256 8.48485,-1.59363 6.60281,-1.43895 6.64477,-1.677 6.47237,-1.93489 4.08622,-1.43761 3.79858,-1.55373 3.41493,-1.66338 2.94215,-1.7616 2.39148,-1.84379 0.96921,-0.94661 0.81283,-0.95941 0.65205,-0.96933 0.48946,-0.97627 0.32933,-0.98025 0.17088,-0.98134 0.0175,-0.97963 -0.13072,-0.97529 -0.27125,-0.96852 -0.40318,-0.95957 -1.16351,-1.88484 -1.56831,-1.82963 -1.88952,-1.76656 -2.12634,-1.69991 -3.47468,-2.42441 -4.85548,-3.01339 -9.39414,-5.41832 -7.25025,-4.27549 -5.4291,-3.44211 -4.80556,-3.30063 -4.98294,-3.71904 -5.08903,-4.11377 -5.7533,-4.96769 -19.01711,-16.74724 -5.56006,-4.42877 -5.12977,-3.77778 -4.69736,-3.1856 -4.78317,-2.97217 -4.87378,-2.74808 -4.40776,-2.2485 -4.4776,-2.05856 -4.54349,-1.8644 -4.60511,-1.66491 -4.6614,-1.46057 -4.71095,-1.2536 -4.75389,-1.04239 -4.78929,-0.82862 -4.81675,-0.61323 -4.83618,-0.39557 -4.84719,-0.17832 -4.84986,0.0416 -4.84409,0.25899 -4.82983,0.47777 -4.80736,0.6944 -4.77681,0.90949 -4.7388,1.12131 -4.69298,1.33212 -4.64119,1.53713 -4.58259,1.74032 -4.51917,1.93794 -4.45178,2.13037 -4.92394,2.62035 -4.83351,2.84854 -4.74434,3.06819 -4.66142,3.2777 -5.09727,3.87441 -5.03719,4.1056 -6.03095,5.20985 -19.07803,16.77741 -4.60826,3.63657 -4.38102,3.21079 -4.90084,3.32123 -5.54396,3.47074 -7.39495,4.32539 -10.71612,6.25421 -3.60147,2.328 -3.37683,2.47427 -2.01826,1.73345 -1.73926,1.79882 -1.37667,1.85845 -0.52567,0.94869 -0.40318,0.95957 -0.27125,0.96852 -0.13072,0.97529 0.0175,0.97963 0.17087,0.98134 0.32934,0.98025 0.48946,0.97627 0.65205,0.96933 0.81282,0.95941 0.96922,0.94661 2.39148,1.84379 2.94215,1.7616 3.41493,1.66338 3.79858,1.55373 4.08622,1.43761 4.28305,1.3193 6.61467,1.76119 6.63666,1.51559 8.59539,1.68164 8.08322,1.35431 9.21265,1.32761 9.70502,1.19094 10.85246,1.11724 11.78181,0.99015 12.58171,0.83011 10.13896,0.47366 13.29341,0.49345 13.57807,0.27698 10.18215,0.0619 v 0"
           clip-path="url(#p95e90c9ebc)"
           style="fill:none;stroke:#44839b;stroke-width:1.5;stroke-linecap:square"
           id="path1589" />
      </g>
      <g
         id="line2d_19">
        <path
           d="m 369,392.04723 14.45489,-0.11096 14.30918,-0.33098 16.35619,-0.61351 13.54848,-0.76066 12.96165,-0.94179 11.64671,-1.04289 11.07165,-1.18567 11.15899,-1.41559 10.55622,-1.57997 9.21028,-1.61193 7.25342,-1.45868 7.40889,-1.70711 7.36729,-1.98281 4.75903,-1.48443 4.52736,-1.61673 4.19099,-1.74632 3.74896,-1.86804 3.2031,-1.97664 1.36887,-1.02342 1.20092,-1.04324 1.02594,-1.06004 0.84567,-1.07365 0.661,-1.08393 0.47622,-1.09082 0.29307,-1.09432 0.1116,-1.0945 -0.0647,-1.09147 -0.23254,-1.08547 -0.39343,-1.07668 -0.54316,-1.06542 -0.68169,-1.05201 -1.73412,-2.05649 -2.14505,-1.98444 -2.45676,-1.90627 -2.67779,-1.82603 -4.26032,-2.59189 -5.81203,-3.20453 -22.57673,-12.04956 -5.83157,-3.52682 -5.16617,-3.39542 -5.37681,-3.8351 -5.51773,-4.2475 -6.26608,-5.13048 -20.23202,-16.81522 -5.49844,-4.16008 -5.55776,-3.90913 -5.07415,-3.29145 -5.15457,-3.06512 -5.2405,-2.82852 -4.73097,-2.3087 -4.79825,-2.10865 -4.86238,-1.90335 -4.92218,-1.69304 -4.97662,-1.47821 -5.02458,-1.2602 -5.06598,-1.03739 -5.09957,-0.81299 -5.12518,-0.58713 -5.14277,-0.35831 -5.15184,-0.12834 -5.15234,0.1001 -5.14439,0.32926 -5.1279,0.55814 -5.10322,0.7849 -5.07045,1.01019 -5.03021,1.2323 -4.98323,1.45041 -4.92913,1.66692 -4.87014,1.87728 -4.80642,2.08338 -4.73942,2.28414 -4.67088,2.47881 -5.1736,3.01304 -5.09109,3.2423 -5.01972,3.45925 -5.51257,4.08655 -6.02894,4.77181 -7.74881,6.45919 -13.06552,10.94677 -5.38477,4.21431 -5.21045,3.80148 -4.97701,3.35923 -5.59302,3.47852 -6.35897,3.64113 -7.24678,3.8752 -15.35834,8.10393 -4.31512,2.53545 -2.75807,1.78615 -2.57849,1.86614 -2.31256,1.94587 -1.95167,2.02156 -1.49156,2.08866 -0.54316,1.06542 -0.39343,1.07668 -0.23254,1.08547 -0.0647,1.09147 0.1116,1.0945 0.29307,1.09432 0.47621,1.09082 0.661,1.08393 0.84568,1.07365 1.02594,1.06004 1.20092,1.04324 1.36887,1.02342 3.2031,1.97664 3.74896,1.86804 4.19099,1.74632 4.52736,1.61673 4.75903,1.48443 7.36728,1.98281 7.4089,1.70711 7.25342,1.45868 9.21028,1.61193 10.55622,1.57997 11.15899,1.41559 11.07165,1.18567 12.78833,1.13496 13.50142,0.95605 14.15736,0.76177 12.62871,0.46042 14.38395,0.35468 14.38483,0.13182 1.4325,0.001 v 0"
           clip-path="url(#p95e90c9ebc)"
           style="fill:none;stroke:#4c9aa0;stroke-width:1.5;stroke-linecap:square"
           id="path1592" />
      </g>
      <g
         id="line2d_20">
        <path
           d="m 369,395.20803 15.32477,-0.11222 15.11179,-0.33279 17.14543,-0.61275 13.93345,-0.73852 14.3332,-0.98318 13.5121,-1.15448 11.6764,-1.19636 11.78127,-1.41996 11.1913,-1.57944 9.83993,-1.60931 7.82481,-1.45797 8.09372,-1.711 8.18896,-1.99764 5.39356,-1.50478 5.23466,-1.64958 4.96755,-1.7959 4.5852,-1.93878 4.08163,-2.07277 3.46373,-2.19165 1.4686,-1.13405 1.27852,-1.15547 1.08141,-1.17347 0.87813,-1.18786 0.66962,-1.19852 0.46267,-1.20533 0.25399,-1.20832 0.0512,-1.20759 -0.14635,-1.20325 -0.33623,-1.19555 -0.51577,-1.18476 -0.68411,-1.17117 -0.84036,-1.15512 -2.09509,-2.25411 -2.55346,-2.16964 -2.90034,-2.07838 -3.14517,-1.98491 -4.97886,-2.8068 -6.76655,-3.45084 -14.21317,-6.81884 -8.17792,-4.0479 -7.13959,-3.79697 -6.259,-3.62277 -5.55327,-3.49545 -5.00341,-3.39605 -5.31555,-3.85585 -6.24833,-4.80679 -10.75616,-8.63108 -8.98136,-7.10022 -6.5119,-4.86975 -5.94564,-4.15834 -5.404,-3.5105 -5.47261,-3.27816 -4.92992,-2.71047 -4.99501,-2.51151 -5.0605,-2.30645 -5.12479,-2.09494 -5.18606,-1.87765 -5.24275,-1.65557 -5.2936,-1.42995 -5.3383,-1.1998 -5.37594,-0.9658 -5.40553,-0.73126 -5.42735,-0.49294 -5.44063,-0.25511 -5.44551,-0.0146 -5.44176,0.22423 -5.42944,0.46375 -5.40875,0.70128 -5.37988,0.93754 -5.34358,1.16997 -5.29968,1.40102 -5.24919,1.62828 -5.1933,1.85038 -5.13283,2.06767 -5.0689,2.2799 -5.00321,2.48627 -4.93769,2.68634 -5.48115,3.25142 -5.41075,3.48549 -5.35752,3.70684 -5.9206,4.36498 -6.53732,5.08113 -22.69618,17.90517 -5.46019,3.88718 -5.17084,3.42701 -5.76924,3.53424 -5.38382,3.05014 -6.01599,3.17777 -8.17792,4.0479 -19.28734,9.37731 -5.03623,2.74132 -3.23215,1.93865 -3.03486,2.03167 -2.74072,2.12452 -2.33769,2.2131 -0.98365,1.13695 -0.84036,1.15512 -0.68411,1.17117 -0.51577,1.18476 -0.33623,1.19555 -0.14636,1.20325 0.0513,1.20759 0.25399,1.20832 0.46267,1.20533 0.66961,1.19852 0.87814,1.18786 1.08141,1.17347 1.27852,1.15547 1.4686,1.13405 1.64818,1.10949 3.78621,2.13448 4.34825,2.00728 4.79163,1.86807 5.11465,1.72288 5.32677,1.57674 8.17048,2.09959 8.14797,1.80304 7.92911,1.53847 10.02131,1.69917 11.44417,1.66648 12.07419,1.4958 11.97509,1.25666 13.84797,1.20758 13.7521,0.96708 14.473,0.79075 13.13398,0.52979 2.14142,0.044 14.93938,0.376 15.22569,0.16028 3.39191,0.005 v 0"
           clip-path="url(#p95e90c9ebc)"
           style="fill:none;stroke:#57b1a4;stroke-width:1.5;stroke-linecap:square"
           id="path1595" />
      </g>
      <g
         id="line2d_21">
        <path
           d="m 369,398.36884 16.06132,-0.11205 15.81666,-0.33144 17.84094,-0.60721 15.13246,-0.76457 14.75739,-0.96413 13.81105,-1.11497 13.77194,-1.33806 12.31114,-1.41209 11.73088,-1.56415 10.37522,-1.59068 11.17666,-1.97585 8.78561,-1.78699 8.9533,-2.09011 5.94269,-1.57843 5.8148,-1.73489 5.57433,-1.89505 5.20992,-2.05402 4.71291,-2.20607 4.08336,-2.34464 1.76795,-1.21817 1.56885,-1.24464 1.35668,-1.26767 1.13576,-1.28689 0.90951,-1.30207 0.67886,-1.31307 0.44725,-1.31981 0.21644,-1.3223 -0.0101,-1.32063 -0.22979,-1.31497 -0.44002,-1.30558 -0.63988,-1.29272 -0.82682,-1.27678 -0.99992,-1.25812 -1.15749,-1.23718 -2.72712,-2.40426 -3.1714,-2.30277 -3.49543,-2.19657 -3.70953,-2.09052 -5.76476,-2.94576 -7.70082,-3.60857 -27.72453,-12.64516 -6.34839,-3.23875 -5.68557,-3.11849 -6.1076,-3.62164 -5.49184,-3.517 -5.81954,-3.99193 -6.81708,-4.9751 -9.68407,-7.39827 -11.65935,-8.87072 -6.98028,-5.03161 -6.35163,-4.2941 -5.75872,-3.62177 -5.81874,-3.38012 -5.23263,-2.79221 -5.29415,-2.58468 -5.3571,-2.37025 -5.41869,-2.15068 -5.47848,-1.92352 -5.53344,-1.69271 -5.58323,-1.45709 -5.6268,-1.21716 -5.66319,-0.97441 -5.69187,-0.72963 -5.71262,-0.48202 -5.72492,-0.23332 -5.72868,0.0155 -5.72386,0.26431 -5.7105,0.51299 -5.68869,0.76056 -5.65896,1.00528 -4.92139,1.0779 -5.58323,1.45709 -5.53344,1.69271 -5.47848,1.92352 -5.41869,2.15068 -5.3571,2.37025 -5.29415,2.58468 -5.23263,2.79221 -5.81874,3.38012 -5.75872,3.62177 -6.35163,4.2941 -6.34394,4.5615 -8.34842,6.30051 -17.34199,13.18117 -6.36506,4.49964 -5.24003,3.47131 -5.77933,3.56679 -5.34294,3.06042 -5.93652,3.16261 -6.64714,3.29737 -9.06566,4.20509 -23.60804,10.71083 -5.76476,2.94576 -3.70953,2.09052 -3.49543,2.19657 -3.17141,2.30277 -2.72711,2.40426 -1.15749,1.23718 -0.99992,1.25812 -0.82682,1.27678 -0.63988,1.29272 -0.44002,1.30558 -0.22979,1.31497 -0.0101,1.32063 0.21644,1.3223 0.44725,1.31981 0.67886,1.31307 0.90951,1.30207 1.13575,1.28689 1.35669,1.26767 1.56885,1.24464 1.76795,1.21817 1.95566,1.1885 4.41343,2.27751 4.97841,2.13129 5.40826,1.97503 5.70899,1.81483 5.89184,1.65595 8.9584,2.19886 8.86345,1.88402 8.57719,1.60563 10.79295,1.7728 12.28439,1.74 12.93816,1.5647 12.82774,1.31868 13.52227,1.16878 14.10296,1.00181 14.77616,0.83227 16.11377,0.67141 14.97872,0.39625 15.84227,0.2325 8.92756,0.0346 v 0"
           clip-path="url(#p95e90c9ebc)"
           style="fill:none;stroke:#70c9a3;stroke-width:1.5;stroke-linecap:square"
           id="path1598" />
      </g>
      <g
         id="line2d_22">
        <path
           d="m 369,401.52964 16.6674,-0.11059 18.1289,-0.35133 16.76331,-0.57428 16.2978,-0.78564 15.09922,-0.94097 14.02762,-1.07155 13.9278,-1.27009 12.44054,-1.32723 11.88811,-1.46004 10.58152,-1.47874 11.5238,-1.83411 9.19577,-1.66119 9.55155,-1.95117 9.72456,-2.28173 6.44924,-1.7226 6.30276,-1.89306 6.03403,-2.06723 5.62747,-2.24002 5.07609,-2.40493 2.28614,-1.25988 2.09552,-1.29485 1.88834,-1.32681 1.66718,-1.35528 1.4338,-1.37988 1.19162,-1.40028 0.94073,-1.41626 0.68711,-1.42761 0.4317,-1.43427 0.1771,-1.43625 -0.0715,-1.43364 -0.3133,-1.42665 -0.54471,-1.41554 -0.7649,-1.40062 -0.96956,-1.38234 -1.16036,-1.36104 -1.33387,-1.33721 -1.48925,-1.31138 -3.37958,-2.53886 -3.79671,-2.42119 -4.0882,-2.30115 -4.26707,-2.18349 -6.53117,-3.06809 -8.60095,-3.74799 -27.43447,-11.70433 -7.24921,-3.40721 -6.46512,-3.26658 -5.81266,-3.15982 -6.28045,-3.6813 -5.68544,-3.58199 -6.06543,-4.06978 -7.15691,-5.0718 -13.73503,-10.11698 -9.5696,-6.90324 -6.75133,-4.61512 -6.07954,-3.91218 -6.11527,-3.67017 -6.17135,-3.4158 -5.54283,-2.81332 -5.6014,-2.59572 -5.66136,-2.37154 -5.72057,-2.14096 -5.77715,-1.90455 -5.82948,-1.66318 -5.13941,-1.25409 -5.91233,-1.19885 -5.94654,-0.94693 -5.97318,-0.6923 -5.24205,-0.39531 -6.00115,-0.20932 -5.25347,0.028 -5.24981,0.22568 -5.98784,0.50035 -5.22285,0.64709 -5.94264,0.97874 -5.17124,1.06285 -5.87094,1.44814 -5.82304,1.69414 -5.77046,1.93397 -5.71312,2.17048 -5.65397,2.39972 -5.59387,2.62347 -5.53571,2.84006 -5.48244,3.04918 -6.11527,3.67017 -6.07954,3.91218 -6.75133,4.61512 -8.18631,5.88682 -21.44846,15.63305 -6.8922,4.64193 -5.68544,3.58199 -6.28045,3.6813 -5.81266,3.15982 -6.46512,3.26658 -7.24921,3.40721 -8.16064,3.59916 -15.12304,6.35695 -10.57613,4.5248 -6.53724,2.9901 -6.43661,3.23289 -4.0882,2.30115 -3.79671,2.42119 -3.37958,2.53886 -1.48925,1.31138 -1.33387,1.33721 -1.16036,1.36104 -0.96956,1.38234 -0.7649,1.40062 -0.54471,1.41554 -0.3133,1.42665 -0.0715,1.43364 0.1771,1.43625 0.43169,1.43427 0.68712,1.42761 0.94073,1.41626 1.19162,1.40028 1.4338,1.37988 1.66718,1.35528 1.88834,1.32681 2.09552,1.29485 2.28614,1.25988 5.07609,2.40493 5.62746,2.24002 6.03404,2.06723 6.30276,1.89306 6.44924,1.7226 9.72456,2.28173 9.55155,1.95117 9.19577,1.66119 11.5238,1.83411 13.0764,1.80194 13.75091,1.62376 13.63266,1.37236 14.38534,1.22129 15.03576,1.05171 15.8032,0.87854 16.77907,0.69451 15.26383,0.41129 16.56055,0.26214 11.5345,0.0529 v 0"
           clip-path="url(#p95e90c9ebc)"
           style="fill:none;stroke:#9cdca5;stroke-width:1.5;stroke-linecap:square"
           id="path1601" />
      </g>
      <g
         id="line2d_23">
        <path
           d="m 369,404.69044 17.44764,-0.11185 18.87796,-0.35318 17.46862,-0.5771 16.76629,-0.77629 15.37401,-0.91432 15.78123,-1.15497 14.35214,-1.25772 15.13295,-1.56259 12.55212,-1.50379 11.18676,-1.52066 12.21374,-1.8843 9.78185,-1.70648 10.20914,-2.00567 10.46399,-2.34939 6.99305,-1.77753 6.88828,-1.95827 6.6595,-2.14517 6.28929,-2.33329 5.76298,-2.51641 2.63442,-1.32324 2.44353,-1.36367 2.2352,-1.40121 2.0077,-1.43548 1.76621,-1.46589 1.51162,-1.49206 1.24567,-1.51369 0.97269,-1.53043 0.69443,-1.54214 0.41606,-1.54872 0.13768,-1.55016 -0.13304,-1.54664 -0.3977,-1.53828 -0.65029,-1.52546 -0.88994,-1.50848 -1.11402,-1.48781 -1.3208,-1.4639 -1.51027,-1.43721 -1.67984,-1.40831 -3.79557,-2.72307 -4.24948,-2.59199 -4.56384,-2.45858 -4.75425,-2.32801 -7.27028,-3.26153 -9.55939,-3.96826 -32.09621,-12.99478 -7.82228,-3.50842 -6.97054,-3.36277 -6.26335,-3.25215 -6.76162,-3.78859 -6.11654,-3.68518 -6.51609,-4.1866 -7.67338,-5.21642 -11.6937,-8.28206 -12.4302,-8.72022 -7.15803,-4.76659 -6.4266,-4.04115 -6.44972,-3.79102 -5.77098,-3.15064 -5.81881,-2.93448 -5.87294,-2.71042 -5.92947,-2.48009 -5.23503,-1.97588 -6.03523,-2.02981 -6.0874,-1.78193 -5.36573,-1.35165 -5.39815,-1.15549 -5.42617,-0.95694 -5.44956,-0.75507 -5.46736,-0.55394 -5.47995,-0.35026 -5.48689,-0.14567 -5.48811,0.0581 -5.48362,0.2627 -5.47348,0.46642 -5.45781,0.66924 -5.43673,0.87114 -5.41075,1.07052 -5.38026,1.26745 -5.34531,1.46288 -6.06182,1.90656 -6.0078,2.15178 -5.95078,2.39224 -5.89378,2.62515 -5.83822,2.85186 -5.78835,3.06993 -6.46294,3.70509 -6.43113,3.95912 -7.14679,4.68104 -8.66837,5.98384 -25.28147,17.69467 -6.51609,4.1866 -6.11654,3.68518 -6.76162,3.78859 -6.26335,3.25215 -6.97054,3.36277 -7.82228,3.50842 -8.81853,3.70722 -14.21106,5.67853 -13.8031,5.54307 -7.25006,3.09215 -7.23744,3.35158 -4.67335,2.39268 -4.42313,2.52524 -4.0403,2.65823 -1.83205,1.37752 -1.67984,1.40831 -1.51027,1.43721 -1.3208,1.4639 -1.11402,1.48781 -0.88993,1.50848 -0.6503,1.52546 -0.3977,1.53828 -0.13304,1.54664 0.13768,1.55016 0.41606,1.54872 0.69443,1.54214 0.97269,1.53043 1.24567,1.51369 1.51161,1.49206 1.76622,1.46589 2.0077,1.43548 2.23519,1.40121 2.44354,1.36367 2.63442,1.32324 5.76298,2.51641 6.28929,2.33329 6.6595,2.14517 6.88828,1.95827 6.99305,1.77753 10.46399,2.34939 10.20914,2.00567 9.78184,1.70648 12.21375,1.8843 13.82217,1.85324 14.516,1.67352 14.39049,1.41886 15.20196,1.26762 15.92369,1.09672 16.78942,0.92068 16.74813,0.69251 16.30469,0.46893 17.0407,0.26631 14.20247,0.0741 v 0"
           clip-path="url(#p95e90c9ebc)"
           style="fill:none;stroke:#ceecb3;stroke-width:1.5;stroke-linecap:square"
           id="path1604" />
      </g>
      <g
         id="line2d_24">
        <path
           d="m 369,407.85125 19.12292,-0.1103 18.09927,-0.34368 17.22543,-0.53658 16.63073,-0.71965 16.23486,-0.9032 15.53154,-1.06082 15.97469,-1.30819 15.10393,-1.45875 15.2346,-1.71504 14.52246,-1.89504 12.86237,-1.92457 10.33564,-1.7423 10.83299,-2.04883 11.17416,-2.40285 7.51897,-1.82157 7.46039,-2.01117 7.27858,-2.20937 6.95268,-2.41161 6.46285,-2.61196 2.99527,-1.37837 2.80934,-1.42414 2.60164,-1.46742 2.37388,-1.5076 2.1278,-1.54412 1.86513,-1.5765 1.58849,-1.60427 1.29963,-1.62709 1.00372,-1.6446 0.70252,-1.65665 0.39953,-1.66314 0.0991,-1.66408 -0.19627,-1.65959 -0.48213,-1.6499 -0.75591,-1.63534 -1.01584,-1.6163 -1.25763,-1.59327 -1.48295,-1.56667 -1.6875,-1.53712 -1.87127,-1.50514 -2.0351,-1.47121 -4.47764,-2.83557 -4.89029,-2.68907 -5.15896,-2.54313 -5.30442,-2.40245 -8.01237,-3.35911 -10.41536,-4.07976 -30.86598,-11.84857 -8.77848,-3.67567 -7.79909,-3.50678 -6.97978,-3.38064 -6.3068,-3.28235 -6.85649,-3.83318 -7.23906,-4.34843 -7.53466,-4.82325 -8.65667,-5.81754 -23.5076,-15.95738 -7.5347,-4.763 -6.77137,-4.0233 -6.03973,-3.35487 -6.07591,-3.13654 -6.12144,-2.91074 -6.17339,-2.67626 -5.44591,-2.14463 -6.27491,-2.21915 -6.32775,-1.96519 -5.57681,-1.50833 -5.61099,-1.30725 -5.64105,-1.10406 -5.66683,-0.89771 -5.68749,-0.69062 -5.70308,-0.48103 -5.71316,-0.27059 -5.71758,-0.0601 -5.71637,0.15033 -5.70953,0.36078 -5.69704,0.57121 -5.67933,0.77913 -5.65641,0.98626 -5.6286,1.19181 -5.59688,1.39351 -5.56128,1.59316 -6.30804,2.06172 -5.47608,2.0093 -6.20668,2.52725 -6.15354,2.76492 -6.10356,2.99624 -6.06067,3.21976 -6.78234,3.87814 -6.7702,4.1359 -7.55502,4.88198 -10.00455,6.76609 -19.12967,13.02083 -7.53466,4.82325 -7.23906,4.34843 -6.85649,3.83318 -6.3068,3.28235 -6.97979,3.38064 -7.79908,3.50678 -8.77848,3.67567 -9.91513,3.90795 -34.0311,13.10914 -8.01093,3.45447 -5.24559,2.47191 -5.04195,2.61565 -4.70304,2.76261 -4.21238,2.90714 -1.87127,1.50514 -1.6875,1.53712 -1.48295,1.56667 -1.25763,1.59327 -1.01584,1.6163 -0.75591,1.63534 -0.48213,1.6499 -0.19627,1.65959 0.0991,1.66408 0.39953,1.66314 0.70252,1.65665 1.00372,1.6446 1.29963,1.62709 1.58849,1.60427 1.86513,1.5765 2.1278,1.54412 2.37388,1.5076 2.60164,1.46742 2.80934,1.42414 2.99527,1.37837 6.46285,2.61196 6.95268,2.41161 7.27858,2.20937 7.46039,2.01117 7.51897,1.82157 11.17416,2.40285 10.83299,2.04883 10.33564,1.7423 12.86236,1.92457 14.52247,1.89504 15.2346,1.71504 15.10393,1.45875 15.97469,1.30819 16.76913,1.13713 17.73595,0.95934 17.75929,0.72606 19.0423,0.52968 16.24311,0.24224 15.29497,0.0798 v 0"
           clip-path="url(#p95e90c9ebc)"
           style="fill:none;stroke:#fdfecc;stroke-width:1.5;stroke-linecap:square"
           id="path1607" />
      </g>
    </g>
  </g>
  <defs
     id="defs1615">
    <clipPath
       id="p95e90c9ebc">
      <path
         d="M 646.2 363.6  C 646.2 327.19843 639.029684 291.150818 625.099406 257.520153  C 611.169128 223.889487 590.749797 193.329798 565.01 167.59  C 539.270202 141.850203 508.710513 121.430872 475.079847 107.500594  C 441.449182 93.570316 405.40157 86.4 369 86.4  C 332.59843 86.4 296.550818 93.570316 262.920153 107.500594  C 229.289487 121.430872 198.729798 141.850203 172.99 167.59  C 147.250203 193.329798 126.830872 223.889487 112.900594 257.520153  C 98.970316 291.150818 91.8 327.19843 91.8 363.6  C 91.8 400.00157 98.970316 436.049182 112.900594 469.679847  C 126.830872 503.310513 147.250203 533.870202 172.99 559.61  C 198.729798 585.349797 229.289487 605.769128 262.920153 619.699406  C 296.550818 633.629684 332.59843 640.8 369 640.8  C 405.40157 640.8 441.449182 633.629684 475.079847 619.699406  C 508.710513 605.769128 539.270202 585.349797 565.01 559.61  C 590.749797 533.870202 611.169128 503.310513 625.099406 469.679847  C 639.029684 436.049182 646.2 400.00157 646.2 363.6  M 369 363.6  C 369 363.6 369 363.6 369 363.6  C 369 363.6 369 363.6 369 363.6  C 369 363.6 369 363.6 369 363.6  C 369 363.6 369 363.6 369 363.6  C 369 363.6 369 363.6 369 363.6  C 369 363.6 369 363.6 369 363.6  C 369 363.6 369 363.6 369 363.6  C 369 363.6 369 363.6 369 363.6  C 369 363.6 369 363.6 369 363.6  C 369 363.6 369 363.6 369 363.6  C 369 363.6 369 363.6 369 363.6  C 369 363.6 369 363.6 369 363.6  C 369 363.6 369 363.6 369 363.6  C 369 363.6 369 363.6 369 363.6  C 369 363.6 369 363.6 369 363.6  C 369 363.6 369 363.6 369 363.6  M 646.2 363.6  z "
         id="path1612" />
    </clipPath>
  </defs>
</svg>
