<?xml version="1.0" encoding="utf-8" standalone="no"?>
<!DOCTYPE svg PUBLIC "-//W3C//DTD SVG 1.1//EN"
  "http://www.w3.org/Graphics/SVG/1.1/DTD/svg11.dtd">
<svg xmlns:xlink="http://www.w3.org/1999/xlink" width="720pt" height="720pt" viewBox="0 0 720 720" xmlns="http://www.w3.org/2000/svg" version="1.1">
 <metadata>
  <rdf:RDF xmlns:dc="http://purl.org/dc/elements/1.1/" xmlns:cc="http://creativecommons.org/ns#" xmlns:rdf="http://www.w3.org/1999/02/22-rdf-syntax-ns#">
   <cc:Work>
    <dc:type rdf:resource="http://purl.org/dc/dcmitype/StillImage"/>
    <dc:date>2022-04-10T12:07:05.325479</dc:date>
    <dc:format>image/svg+xml</dc:format>
    <dc:creator>
     <cc:Agent>
      <dc:title>Matplotlib v3.5.1, https://matplotlib.org/</dc:title>
     </cc:Agent>
    </dc:creator>
   </cc:Work>
  </rdf:RDF>
 </metadata>
 <defs>
  <style type="text/css">*{stroke-linejoin: round; stroke-linecap: butt}</style>
 </defs>
 <g id="figure_1">
  <g id="patch_1">
   <path d="M 0 720 
L 720 720 
L 720 0 
L 0 0 
z
"/>
  </g>
  <g id="axes_1">
   <g id="line2d_1">
    <path d="M 369 315.685156 
L 365.68767 315.799456 
L 362.391098 316.142139 
L 359.125922 316.711258 
L 355.907633 317.504125 
L 352.751501 318.516996 
L 349.672503 319.745085 
L 346.685252 321.182595 
L 343.803759 322.822456 
L 341.041455 324.656689 
L 338.41156 326.676969 
L 335.925833 328.873077 
L 333.595885 331.234831 
L 331.432079 333.750868 
L 329.443598 336.409059 
L 327.638327 339.196675 
L 326.022117 342.100251 
L 324.598854 345.106118 
L 323.367092 348.199683 
L 322.230946 351.65757 
L 321.131615 355.779026 
L 319.11198 363.678442 
L 317.367913 369.881945 
L 316.902613 372.617342 
L 316.714144 375.040644 
L 316.733113 377.472829 
L 316.995924 380.244382 
L 317.494995 382.99089 
L 318.208773 385.6989 
L 319.119137 388.357165 
L 320.358855 391.276546 
L 321.810043 394.108558 
L 323.456522 396.842696 
L 325.284762 399.468979 
L 327.283175 401.977539 
L 329.43939 404.360496 
L 331.74293 406.609371 
L 334.462297 408.941652 
L 337.335605 411.09008 
L 340.349359 413.044658 
L 343.488181 414.799029 
L 346.738232 416.344941 
L 350.084636 417.676487 
L 353.512377 418.788902 
L 357.006842 419.676429 
L 360.552496 420.337146 
L 364.134399 420.766669 
L 367.737022 420.964492 
L 371.345037 420.929733 
L 374.943017 420.66183 
L 378.515643 420.1627 
L 382.047562 419.433867 
L 385.523645 418.478609 
L 388.928526 417.299877 
L 392.247712 415.903724 
L 395.465962 414.294587 
L 398.568784 412.479353 
L 401.541703 410.465389 
L 404.370608 408.261213 
L 407.040426 405.874901 
L 409.296311 403.580746 
L 411.401017 401.15487 
L 413.344132 398.60617 
L 415.113374 395.94299 
L 416.696117 393.174922 
L 418.078934 390.312671 
L 419.244591 387.366943 
L 420.17397 384.350544 
L 420.782173 381.621506 
L 421.16622 378.860703 
L 421.302673 376.082852 
L 421.204026 373.653762 
L 420.896576 371.24341 
L 420.312773 368.536787 
L 419.271486 364.94409 
L 417.952871 360.285153 
L 415.320456 350.207403 
L 414.096495 346.783548 
L 412.778127 343.728079 
L 411.267027 340.766913 
L 409.564274 337.914353 
L 407.67473 335.184032 
L 405.605649 332.588792 
L 403.36488 330.141641 
L 400.963026 327.853564 
L 398.410334 325.736085 
L 395.718597 323.799342 
L 392.900495 322.052396 
L 389.969154 320.503719 
L 386.938432 319.160592 
L 383.822551 318.029645 
L 380.6363 317.116217 
L 377.394796 316.424623 
L 374.11342 315.95813 
L 370.807726 315.719269 
L 369 315.685156 
L 369 315.685156 
" clip-path="url(#pd3fe80a14c)" style="fill: none; stroke: #040613; stroke-width: 1.5; stroke-linecap: square"/>
   </g>
   <g id="line2d_2">
    <path d="M 369 315.471929 
L 365.672927 315.5867 
L 362.361622 315.930474 
L 359.081778 316.50163 
L 355.84894 317.297477 
L 352.67831 318.313921 
L 349.584998 319.546533 
L 346.583503 320.989182 
L 343.687997 322.635106 
L 340.911727 324.475992 
L 338.267923 326.503586 
L 335.768258 328.707628 
L 333.424332 331.078004 
L 331.246144 333.603135 
L 329.242404 336.270759 
L 327.420749 339.068305 
L 325.786324 341.982295 
L 324.340299 344.998425 
L 322.974386 348.38892 
L 321.808571 351.865376 
L 320.2948 357.207315 
L 319.083318 361.164961 
L 317.971738 364.001184 
L 314.96201 371.211874 
L 314.24123 373.78902 
L 313.82767 376.036356 
L 313.587614 378.681412 
L 313.597566 381.332058 
L 313.839177 383.972076 
L 314.292902 386.588649 
L 315.048788 389.536761 
L 316.036121 392.427168 
L 317.234485 395.24922 
L 318.815915 398.329266 
L 320.624658 401.297061 
L 322.642743 404.141528 
L 324.854978 406.851761 
L 327.247067 409.417807 
L 329.804601 411.831478 
L 332.515058 414.083813 
L 335.365245 416.167702 
L 338.342723 418.075977 
L 341.435553 419.801156 
L 344.630229 421.339444 
L 347.915104 422.683886 
L 351.277113 423.831189 
L 354.7037 424.77754 
L 358.182331 425.519213 
L 361.700168 426.054052 
L 365.244426 426.379975 
L 368.802206 426.496479 
L 372.360691 426.403117 
L 375.907055 426.100247 
L 379.428398 425.588285 
L 382.912091 424.869969 
L 386.345192 423.946601 
L 389.714891 422.821092 
L 393.00877 421.497915 
L 396.214404 419.981647 
L 399.31885 418.276377 
L 402.309967 416.388505 
L 405.175095 414.324048 
L 407.901733 412.090075 
L 410.476625 409.693601 
L 412.887712 407.144023 
L 415.120598 404.449329 
L 417.160974 401.619264 
L 418.99361 398.66451 
L 420.434412 395.942561 
L 421.683756 393.139697 
L 422.725288 390.265253 
L 423.541086 387.330436 
L 424.051823 384.722484 
L 424.356141 382.088037 
L 424.434674 379.439054 
L 424.267499 376.790454 
L 423.918034 374.535098 
L 423.377063 372.308917 
L 422.525565 369.770945 
L 421.205881 366.640646 
L 419.139625 361.785936 
L 418.13435 358.716806 
L 415.025614 348.38892 
L 413.659701 344.998425 
L 412.213676 341.982295 
L 410.579251 339.068305 
L 408.757596 336.270759 
L 406.753856 333.603135 
L 404.575668 331.078004 
L 402.231742 328.707628 
L 399.732077 326.503586 
L 397.088273 324.475992 
L 394.312003 322.635106 
L 391.416497 320.989182 
L 388.415002 319.546533 
L 385.32169 318.313921 
L 382.15106 317.297477 
L 378.918222 316.50163 
L 375.638378 315.930474 
L 372.327073 315.5867 
L 369 315.471929 
L 369 315.471929 
" clip-path="url(#pd3fe80a14c)" style="fill: none; stroke: #191934; stroke-width: 1.5; stroke-linecap: square"/>
   </g>
   <g id="line2d_3">
    <path d="M 369 315.3268 
L 365.662893 315.441896 
L 362.341593 315.786645 
L 359.051751 316.359044 
L 355.808981 317.156788 
L 352.628647 318.176125 
L 349.525665 319.411903 
L 346.514489 320.857996 
L 343.609256 322.507672 
L 340.823613 324.353258 
L 338.170403 326.38587 
L 335.661225 328.595246 
L 333.307648 330.971335 
L 331.119595 333.502587 
L 329.105679 336.176775 
L 327.272731 338.980974 
L 325.625231 341.901708 
L 324.164238 344.925092 
L 322.77584 348.323302 
L 321.484523 352.101633 
L 318.440259 361.452249 
L 317.220523 364.007091 
L 312.95528 372.214831 
L 312.107097 374.556774 
L 311.474228 376.947579 
L 311.064735 379.368056 
L 310.872076 381.802136 
L 310.882625 384.237022 
L 311.082357 386.661944 
L 311.536559 389.466375 
L 312.209259 392.233289 
L 313.083674 394.952194 
L 314.308562 397.990617 
L 315.756999 400.943567 
L 317.410631 403.801629 
L 319.254826 406.555264 
L 321.276058 409.195941 
L 323.461362 411.716342 
L 326.10232 414.398183 
L 328.921383 416.908097 
L 331.902942 419.237957 
L 335.032683 421.379264 
L 338.296113 423.324823 
L 341.678997 425.067992 
L 345.167 426.603286 
L 348.74625 427.924845 
L 352.402426 429.028559 
L 356.121201 429.911343 
L 359.88863 430.568779 
L 363.690135 431.00049 
L 367.511583 431.203941 
L 371.338609 431.1783 
L 375.156893 430.924455 
L 378.952098 430.442657 
L 382.709813 429.734102 
L 386.416019 428.80247 
L 390.056362 427.650078 
L 393.616437 426.280256 
L 397.082524 424.698801 
L 400.439864 422.909644 
L 403.322018 421.151029 
L 406.436173 418.98862 
L 409.400306 416.638172 
L 412.200073 414.108376 
L 414.538638 411.716342 
L 416.723942 409.195941 
L 418.745174 406.555264 
L 420.589369 403.801629 
L 422.243001 400.943567 
L 423.691438 397.990617 
L 424.916326 394.952194 
L 425.790741 392.233289 
L 426.463441 389.466375 
L 426.917643 386.661944 
L 427.133194 383.831822 
L 427.110603 381.396172 
L 426.882261 378.963277 
L 426.435652 376.54653 
L 425.766239 374.162552 
L 424.883539 371.830616 
L 423.6344 369.203376 
L 421.131313 364.665754 
L 419.835404 362.08084 
L 418.835213 359.595086 
L 417.764915 356.261074 
L 415.642594 349.476148 
L 414.321541 346.047162 
L 412.791495 342.716754 
L 411.195064 339.766578 
L 409.412411 336.929214 
L 407.447267 334.218253 
L 405.305805 331.646872 
L 402.996351 329.22739 
L 400.528812 326.971177 
L 397.913497 324.889655 
L 395.162797 322.992068 
L 392.288875 321.288136 
L 389.305397 319.785432 
L 386.225881 318.492005 
L 383.065155 317.413192 
L 379.837962 316.554395 
L 376.559392 315.9204 
L 373.245161 315.513046 
L 369.910785 315.335392 
L 369 315.3268 
L 369 315.3268 
" clip-path="url(#pd3fe80a14c)" style="fill: none; stroke: #2c2b57; stroke-width: 1.5; stroke-linecap: square"/>
   </g>
   <g id="line2d_4">
    <path d="M 369 315.221609 
L 365.65562 315.336943 
L 362.327076 315.682404 
L 359.030046 316.255972 
L 355.780061 317.054966 
L 352.592572 318.076033 
L 349.48252 319.314007 
L 346.464379 320.762743 
L 343.55231 322.415511 
L 340.759749 324.264303 
L 338.099487 326.300268 
L 335.583619 328.513762 
L 333.222887 330.89385 
L 331.027733 333.4296 
L 329.006057 336.108295 
L 327.164886 338.917346 
L 325.508169 341.843148 
L 324.035875 344.871627 
L 322.631112 348.275471 
L 321.218177 352.354821 
L 318.599432 360.187122 
L 317.565937 362.386675 
L 316.245008 364.678504 
L 311.73883 372.033515 
L 310.611733 374.464364 
L 309.715153 376.963356 
L 309.065466 379.507997 
L 308.659128 382.079184 
L 308.486272 384.660308 
L 308.530339 387.238592 
L 308.776912 389.802635 
L 309.300658 392.763808 
L 310.057198 395.681375 
L 311.028861 398.544324 
L 312.199647 401.343214 
L 313.554084 404.070597 
L 315.311637 407.089959 
L 317.277055 409.995134 
L 319.434024 412.777819 
L 321.769175 415.429001 
L 324.269584 417.940627 
L 326.922317 420.306065 
L 329.715907 422.518061 
L 332.63835 424.571076 
L 336.066762 426.682418 
L 339.226221 428.378444 
L 342.479852 429.899053 
L 346.23918 431.394577 
L 349.65634 432.529581 
L 353.571724 433.582917 
L 357.102931 434.318329 
L 360.670565 434.862873 
L 364.714176 435.243884 
L 368.322815 435.377551 
L 372.384455 435.295317 
L 375.984347 435.016878 
L 380.008182 434.472638 
L 383.989321 433.685593 
L 387.912068 432.658345 
L 391.76082 431.394577 
L 395.107305 430.076417 
L 398.37201 428.578226 
L 401.543849 426.903894 
L 404.612207 425.058778 
L 407.925877 422.78392 
L 410.73618 420.591407 
L 413.406806 418.244318 
L 415.926752 415.75041 
L 418.283668 413.116695 
L 420.463541 410.349881 
L 422.453513 407.459374 
L 424.237881 404.453724 
L 425.618043 401.737563 
L 426.815938 398.948423 
L 427.816716 396.093916 
L 428.605023 393.183518 
L 429.163126 390.227814 
L 429.442171 387.667174 
L 429.520981 385.090524 
L 429.384939 382.508896 
L 429.019383 379.935284 
L 428.410332 377.384849 
L 427.554326 374.876741 
L 426.463264 372.432881 
L 425.180209 370.076998 
L 423.085014 366.750093 
L 420.781617 363.030038 
L 419.668907 360.808724 
L 418.694178 358.345329 
L 417.340277 354.13259 
L 415.689662 349.140699 
L 414.334482 345.713446 
L 412.773326 342.386477 
L 411.150394 339.440875 
L 409.342525 336.609565 
L 407.353044 333.906312 
L 405.188766 331.343714 
L 402.857657 328.934225 
L 400.3691 326.689725 
L 397.734254 324.620673 
L 394.964808 322.737155 
L 392.073443 321.048177 
L 389.073494 319.561912 
L 385.979041 318.285264 
L 382.804595 317.224167 
L 379.564864 316.384342 
L 376.275194 315.769734 
L 372.951198 315.382829 
L 369.608533 315.225437 
L 369 315.221609 
L 369 315.221609 
" clip-path="url(#pd3fe80a14c)" style="fill: none; stroke: #3a3d7d; stroke-width: 1.5; stroke-linecap: square"/>
   </g>
   <g id="line2d_5">
    <path d="M 369 315.141603 
L 365.650089 315.257119 
L 362.315979 315.602715 
L 359.013453 316.177181 
L 355.758037 316.977424 
L 352.565203 318.000094 
L 349.449576 319.239255 
L 346.426261 320.690286 
L 343.508721 322.344966 
L 340.710984 324.196379 
L 338.045395 326.234974 
L 335.524281 328.451459 
L 333.158382 330.834881 
L 330.957483 333.373783 
L 328.930037 336.056039 
L 327.082674 338.868841 
L 325.418815 341.798448 
L 323.937766 344.830763 
L 322.520795 348.239012 
L 321.084507 352.323363 
L 318.733823 359.242098 
L 317.732637 361.422189 
L 316.42054 363.682674 
L 314.521658 366.429321 
L 311.35221 370.982088 
L 309.909546 373.445375 
L 308.683526 376.004917 
L 307.856407 378.192876 
L 307.109953 380.863229 
L 306.626206 383.563306 
L 306.393364 386.275534 
L 306.395137 388.985659 
L 306.615228 391.681644 
L 307.037146 394.35377 
L 307.766292 397.429208 
L 308.730258 400.448669 
L 309.911163 403.401875 
L 311.293623 406.279414 
L 312.863449 409.0731 
L 314.607105 411.776159 
L 316.799037 414.744693 
L 319.187685 417.575979 
L 321.758711 420.260889 
L 324.497267 422.792562 
L 327.39104 425.16246 
L 330.427073 427.363857 
L 333.592046 429.39192 
L 336.874638 431.239385 
L 340.262241 432.902023 
L 343.742941 434.375079 
L 347.304748 435.654638 
L 350.935854 436.736822 
L 354.624181 437.619315 
L 358.357861 438.299787 
L 362.125089 438.775849 
L 365.913935 439.045831 
L 369.712402 439.110404 
L 373.508638 438.968537 
L 377.290723 438.620725 
L 381.046794 438.068178 
L 384.764912 437.312026 
L 388.433123 436.354147 
L 392.039503 435.197167 
L 395.572494 433.845227 
L 399.019531 432.300214 
L 402.369226 430.567862 
L 405.609395 428.652501 
L 408.727448 426.55871 
L 411.71122 424.292772 
L 414.548736 421.861948 
L 417.226187 419.272064 
L 419.730211 416.530955 
L 422.04702 413.647282 
L 424.160583 410.629149 
L 425.831274 407.886446 
L 427.32243 405.055876 
L 428.620509 402.144976 
L 429.710717 399.162329 
L 430.576393 396.117536 
L 431.198389 393.021387 
L 431.521047 390.336067 
L 431.633902 387.631604 
L 431.520141 384.918701 
L 431.164132 382.210719 
L 430.549861 379.523039 
L 429.834459 377.312653 
L 428.935367 375.14271 
L 427.630876 372.612359 
L 426.131037 370.186619 
L 423.737822 366.788115 
L 421.370562 363.352961 
L 420.107337 361.106878 
L 419.142728 358.934881 
L 418.065982 355.899873 
L 415.368536 347.951421 
L 413.935017 344.551227 
L 412.437697 341.527577 
L 410.756847 338.608151 
L 408.892759 335.806779 
L 406.849335 333.136986 
L 404.633283 330.611543 
L 402.25284 328.242836 
L 399.717928 326.042322 
L 397.039907 324.020257 
L 394.230656 322.186521 
L 391.303224 320.549527 
L 388.270705 319.11793 
L 385.147537 317.89802 
L 381.948361 316.895459 
L 378.688004 316.115713 
L 375.381959 315.562033 
L 372.045795 315.237006 
L 369 315.141603 
L 369 315.141603 
" clip-path="url(#pd3fe80a14c)" style="fill: none; stroke: #3f54a0; stroke-width: 1.5; stroke-linecap: square"/>
   </g>
   <g id="line2d_6">
    <path d="M 369 315.078952 
L 365.645757 315.19461 
L 362.307332 315.540625 
L 359.00044 316.115384 
L 355.740764 316.916609 
L 352.543597 317.940145 
L 349.423828 319.180833 
L 346.39608 320.632916 
L 343.47455 322.289665 
L 340.672701 324.143055 
L 338.003076 326.183892 
L 335.477722 328.402573 
L 333.107627 330.788483 
L 330.902575 333.330156 
L 328.870646 336.015214 
L 327.018005 338.830687 
L 325.348295 341.763171 
L 323.733968 345.0791 
L 322.323244 348.498689 
L 320.881022 352.594411 
L 318.677085 358.918117 
L 317.65533 361.095301 
L 316.518893 363.022339 
L 314.836056 365.38913 
L 309.934999 371.919987 
L 308.365266 374.488258 
L 307.238661 376.707479 
L 306.301586 378.981393 
L 305.561511 381.295142 
L 305.017612 383.635398 
L 304.6141 386.462926 
L 304.46771 389.295798 
L 304.560916 392.120325 
L 304.877259 394.924689 
L 305.401002 397.698909 
L 306.116708 400.434952 
L 307.178411 403.567986 
L 308.466104 406.627796 
L 309.963192 409.605135 
L 311.655611 412.491032 
L 313.529881 415.277825 
L 315.878404 418.332791 
L 318.431667 421.239276 
L 321.173951 423.988257 
L 324.090565 426.571177 
L 327.166389 428.981681 
L 330.388608 431.211436 
L 333.74304 433.255344 
L 337.217082 435.106605 
L 340.797613 436.760112 
L 344.471253 438.212516 
L 348.225711 439.458337 
L 352.048018 440.494472 
L 355.925249 441.318687 
L 359.844678 441.928787 
L 363.793631 442.32257 
L 367.759308 442.499426 
L 371.728978 442.458723 
L 375.689897 442.200606 
L 379.629244 441.725191 
L 383.534417 441.034997 
L 387.392539 440.130915 
L 391.190823 439.015459 
L 394.916559 437.691963 
L 398.556866 436.163835 
L 402.098899 434.435369 
L 405.52954 432.511049 
L 408.836117 430.397049 
L 412.004862 428.098448 
L 415.022898 425.622841 
L 417.875585 422.976374 
L 420.54873 420.167278 
L 423.027165 417.204072 
L 425.294618 414.095894 
L 427.092645 411.265848 
L 428.702865 408.33963 
L 430.112459 405.326121 
L 431.305452 402.23373 
L 432.264604 399.072362 
L 432.886102 396.316258 
L 433.307879 393.525728 
L 433.514675 390.709924 
L 433.490357 387.879687 
L 433.217506 385.047587 
L 432.787734 382.696794 
L 432.166008 380.365705 
L 431.347385 378.066327 
L 430.332645 375.812354 
L 428.876516 373.189698 
L 427.212661 370.682587 
L 424.851817 367.558492 
L 421.923505 363.683215 
L 420.515353 361.411655 
L 419.45303 359.225898 
L 418.406662 356.481977 
L 414.757664 346.208414 
L 413.213322 342.855895 
L 411.610412 339.884226 
L 409.824165 337.024548 
L 407.85688 334.290493 
L 405.713887 331.695238 
L 403.402532 329.251519 
L 400.932532 326.970643 
L 398.31396 324.864056 
L 395.558859 322.941291 
L 392.679262 321.212171 
L 389.688609 319.684665 
L 386.600695 318.366208 
L 383.429872 317.263317 
L 380.191173 316.380727 
L 376.899632 315.723362 
L 373.57091 315.293471 
L 370.220559 315.094306 
L 369 315.078952 
L 369 315.078952 
" clip-path="url(#pd3fe80a14c)" style="fill: none; stroke: #3f6eb2; stroke-width: 1.5; stroke-linecap: square"/>
   </g>
   <g id="line2d_7">
    <path d="M 369 315.027939 
L 365.64223 315.143713 
L 362.300292 315.490071 
L 358.989913 316.065397 
L 355.726793 316.867418 
L 352.52609 317.891571 
L 349.402968 319.133499 
L 346.371943 320.587034 
L 343.447 322.245077 
L 340.641784 324.09999 
L 337.968845 326.142572 
L 335.440238 328.363216 
L 333.066633 330.751008 
L 330.858089 333.294811 
L 328.822311 335.981988 
L 326.965763 338.799864 
L 325.291645 341.734831 
L 323.7981 344.77259 
L 322.362812 348.1868 
L 320.793905 352.574486 
L 318.660243 358.597008 
L 317.632519 360.770241 
L 316.482982 362.691572 
L 315.024354 364.703459 
L 311.697654 368.749519 
L 309.154082 372.029988 
L 307.411857 374.659463 
L 306.144255 376.939743 
L 305.072045 379.283028 
L 304.205586 381.673355 
L 303.546753 384.095982 
L 303.088731 386.538789 
L 302.823313 388.990912 
L 302.745057 391.932804 
L 302.911696 394.861414 
L 303.306879 397.764859 
L 303.913679 400.633761 
L 304.719071 403.458663 
L 305.89032 406.689776 
L 307.294784 409.840135 
L 308.915335 412.90033 
L 310.737382 415.861177 
L 312.745769 418.715944 
L 314.929549 421.455659 
L 317.275443 424.074976 
L 319.773519 426.566198 
L 322.799606 429.250898 
L 325.995044 431.752793 
L 329.344351 434.065495 
L 332.83301 436.182625 
L 336.447237 438.09756 
L 340.173128 439.804745 
L 343.996499 441.300453 
L 347.904001 442.579657 
L 351.882094 443.638221 
L 355.916715 444.475329 
L 359.994756 445.086247 
L 364.10237 445.471127 
L 368.22611 445.627736 
L 372.352372 445.556311 
L 376.46763 445.257116 
L 380.558285 444.73044 
L 384.610831 443.978236 
L 388.611712 443.0025 
L 392.547186 441.805315 
L 396.404005 440.39123 
L 400.167991 438.762604 
L 403.825438 436.924348 
L 407.363185 434.883068 
L 410.766327 432.64278 
L 414.02108 430.210855 
L 417.112461 427.593818 
L 419.671635 425.158301 
L 422.084083 422.593144 
L 424.338819 419.904336 
L 426.424298 417.098404 
L 428.327789 414.182051 
L 430.035917 411.162964 
L 431.534729 408.049999 
L 432.808419 404.852482 
L 433.707275 402.052026 
L 434.415544 399.204358 
L 434.917962 396.316793 
L 435.200957 393.399447 
L 435.247877 390.462865 
L 435.039848 387.519011 
L 434.660246 385.071361 
L 434.082825 382.639326 
L 433.299401 380.234349 
L 432.309514 377.870553 
L 431.1172 375.5629 
L 429.742809 373.328442 
L 427.908724 370.767275 
L 425.027861 367.216967 
L 422.207545 363.683662 
L 420.905848 361.722033 
L 419.892308 359.832129 
L 418.854386 357.375182 
L 417.50359 353.46548 
L 415.637188 348.1868 
L 414.073628 344.492468 
L 412.417738 341.193028 
L 410.710142 338.278447 
L 408.820954 335.483143 
L 406.753265 332.821048 
L 404.513825 330.3049 
L 402.111218 327.946731 
L 399.555637 325.757559 
L 396.857638 323.748524 
L 394.029687 321.928766 
L 391.084446 320.307332 
L 388.035653 318.891691 
L 384.89724 317.689176 
L 381.684104 316.704978 
L 378.411211 315.944078 
L 375.093968 315.410025 
L 371.747991 315.105311 
L 369 315.027939 
L 369 315.027939 
" clip-path="url(#pd3fe80a14c)" style="fill: none; stroke: #4887bc; stroke-width: 1.5; stroke-linecap: square"/>
   </g>
   <g id="line2d_8">
    <path d="M 369 314.986106 
L 365.639338 315.101976 
L 362.294519 315.448615 
L 358.981281 316.024407 
L 355.715219 316.826669 
L 352.511706 317.851662 
L 349.385829 319.094611 
L 346.351912 320.548959 
L 343.424323 322.208377 
L 340.616289 324.064479 
L 337.940567 326.108437 
L 335.409219 328.330647 
L 333.03259 330.719887 
L 330.821022 333.26536 
L 328.78258 335.954678 
L 326.922606 338.774401 
L 325.244547 341.711271 
L 323.618771 345.031966 
L 322.192767 348.456476 
L 320.621259 352.854738 
L 318.672962 358.27841 
L 317.648332 360.44704 
L 316.499885 362.361527 
L 315.024498 364.363875 
L 312.574337 367.242647 
L 309.151378 371.263916 
L 307.191134 373.898304 
L 305.721749 376.199756 
L 304.441686 378.579324 
L 303.372166 381.01913 
L 302.51874 383.503183 
L 301.8794 386.017172 
L 301.446655 388.5489 
L 301.211775 391.087461 
L 301.17557 394.130231 
L 301.391128 397.156036 
L 301.840936 400.15332 
L 302.509136 403.111916 
L 303.380973 406.023049 
L 304.442915 408.879037 
L 305.90695 412.131319 
L 307.596115 415.288724 
L 309.495385 418.341478 
L 311.589153 421.282301 
L 313.865411 424.102239 
L 316.31149 426.794251 
L 318.914316 429.353292 
L 321.663959 431.771661 
L 324.971655 434.356811 
L 328.440617 436.743938 
L 332.055536 438.926074 
L 335.801464 440.896817 
L 339.663449 442.650965 
L 343.626879 444.1837 
L 347.677585 445.489684 
L 351.800849 446.566149 
L 355.982385 447.409728 
L 360.207825 448.017988 
L 364.462789 448.389425 
L 368.732937 448.523453 
L 373.003999 448.419565 
L 377.261619 448.077336 
L 381.491451 447.498064 
L 385.679262 446.683949 
L 389.810587 445.63649 
L 393.871107 444.358942 
L 397.846362 442.854728 
L 401.721932 441.128269 
L 405.483162 439.184266 
L 409.115051 437.027797 
L 412.175549 434.972327 
L 415.524774 432.435642 
L 418.314138 430.058288 
L 420.960637 427.539604 
L 423.452265 424.884465 
L 425.778022 422.100118 
L 427.925903 419.193722 
L 429.882139 416.172103 
L 431.632915 413.043711 
L 433.162559 409.817244 
L 434.285139 406.981262 
L 435.222383 404.088088 
L 435.959332 401.14399 
L 436.48395 398.158726 
L 436.779564 395.141279 
L 436.829181 392.102723 
L 436.670226 389.563959 
L 436.31776 387.028283 
L 435.761912 384.505776 
L 434.994648 382.008141 
L 434.011706 379.548898 
L 432.814632 377.143245 
L 431.41742 374.808377 
L 429.520521 372.125013 
L 427.129246 369.192597 
L 422.195287 363.34907 
L 420.88869 361.395796 
L 419.878701 359.511228 
L 418.842095 357.058095 
L 417.378741 352.854738 
L 415.581983 347.879387 
L 414.124647 344.47084 
L 412.610358 341.439841 
L 410.915753 338.513044 
L 409.039438 335.704587 
L 406.984664 333.028066 
L 404.757958 330.496122 
L 402.36709 328.121357 
L 399.821912 325.915185 
L 397.133739 323.887808 
L 394.31439 322.04908 
L 391.376475 320.408135 
L 388.333698 318.972525 
L 385.19995 317.749677 
L 381.990226 316.744455 
L 378.719211 315.962757 
L 375.402503 315.407393 
L 372.05557 315.081798 
L 369 314.986106 
L 369 314.986106 
" clip-path="url(#pd3fe80a14c)" style="fill: none; stroke: #5a9fc4; stroke-width: 1.5; stroke-linecap: square"/>
   </g>
   <g id="line2d_9">
    <path d="M 369 314.951187 
L 365.636894 315.066704 
L 362.28964 315.413581 
L 358.973987 315.989768 
L 355.705537 316.792581 
L 352.499674 317.818278 
L 349.371318 319.061684 
L 346.335122 320.517042 
L 343.405086 322.177244 
L 340.594876 324.034652 
L 337.916768 326.07971 
L 335.383063 328.303185 
L 333.004433 330.694147 
L 330.790237 333.2409 
L 328.749148 335.931697 
L 326.886488 338.753092 
L 325.205265 341.69162 
L 323.702937 344.732952 
L 322.255795 348.151432 
L 320.763224 352.247751 
L 318.705735 357.961797 
L 317.691964 360.125673 
L 316.554329 362.032719 
L 315.080204 364.023918 
L 312.919823 366.512512 
L 308.247864 371.768298 
L 306.177396 374.473729 
L 304.62422 376.839769 
L 303.269784 379.287546 
L 302.133053 381.798963 
L 301.219525 384.357537 
L 300.527132 386.948518 
L 300.050574 389.558463 
L 299.778024 392.17709 
L 299.701283 394.793861 
L 299.85052 397.920679 
L 300.247756 401.020456 
L 300.876262 404.082245 
L 301.719708 407.097066 
L 302.764376 410.056331 
L 303.998426 412.951768 
L 305.660703 416.24084 
L 307.547601 419.423838 
L 309.643025 422.492144 
L 311.932184 425.437946 
L 314.402591 428.25266 
L 317.041173 430.929643 
L 319.835483 433.462925 
L 322.774561 435.845661 
L 325.84693 438.072637 
L 329.041591 440.138878 
L 332.347942 442.03953 
L 335.755045 443.77127 
L 339.759575 445.537225 
L 343.867252 447.071308 
L 348.062655 448.369625 
L 352.330777 449.427768 
L 356.656228 450.243964 
L 361.024094 450.815025 
L 365.41925 451.139544 
L 369.826623 451.217087 
L 374.231207 451.047356 
L 378.617918 450.630183 
L 382.971577 449.966372 
L 387.277326 449.059323 
L 391.519815 447.910172 
L 395.168348 446.709297 
L 398.746738 445.32849 
L 402.737328 443.534052 
L 406.130905 441.77847 
L 409.422052 439.854069 
L 413.043879 437.452608 
L 416.079041 435.180204 
L 418.978287 432.754406 
L 421.729234 430.179334 
L 424.320892 427.462155 
L 426.740789 424.609192 
L 428.976447 421.628031 
L 431.013657 418.52592 
L 432.837549 415.31125 
L 434.433311 411.994224 
L 435.605187 409.076424 
L 436.584846 406.098142 
L 437.357776 403.06638 
L 437.910993 399.990824 
L 438.227556 396.880783 
L 438.290919 393.747983 
L 438.136799 391.129245 
L 437.783793 388.512842 
L 437.221776 385.909 
L 436.442393 383.329594 
L 435.439447 380.787982 
L 434.213974 378.299836 
L 432.776346 375.882428 
L 431.153606 373.554392 
L 429.029211 370.903602 
L 425.767921 367.264742 
L 422.919796 364.023918 
L 421.445671 362.032719 
L 420.308036 360.125673 
L 419.294265 357.961797 
L 418.15738 354.932228 
L 415.399637 347.287985 
L 413.904521 343.894188 
L 412.354298 340.87934 
L 410.6236 337.971333 
L 408.711733 335.1843 
L 406.622563 332.531668 
L 404.362827 330.026075 
L 401.940809 327.679773 
L 399.366771 325.503722 
L 396.651334 323.509018 
L 393.807039 321.704721 
L 390.84681 320.099425 
L 387.78403 318.70128 
L 384.633053 317.516757 
L 381.408635 316.551341 
L 378.125789 315.809931 
L 374.799966 315.295983 
L 371.446793 315.012323 
L 369 314.951187 
L 369 314.951187 
" clip-path="url(#pd3fe80a14c)" style="fill: none; stroke: #73b9ce; stroke-width: 1.5; stroke-linecap: square"/>
   </g>
   <g id="line2d_10">
    <path d="M 369 314.9212 
L 365.634821 315.036783 
L 362.285502 315.383862 
L 358.967799 315.960384 
L 355.697324 316.763664 
L 352.489468 317.789959 
L 349.35898 319.033688 
L 346.320846 320.489906 
L 343.388925 322.151089 
L 340.57663 324.009238 
L 337.896446 326.05518 
L 335.360682 328.279684 
L 332.98001 330.67182 
L 330.764144 333.220168 
L 328.720316 335.911877 
L 326.855227 338.734647 
L 325.171508 341.674733 
L 323.537672 344.998785 
L 321.988679 348.716414 
L 320.302016 353.424863 
L 318.625927 357.952851 
L 317.587979 360.118631 
L 316.418486 362.028659 
L 314.895523 364.02537 
L 312.651165 366.526465 
L 307.371577 372.281074 
L 305.204531 375.055835 
L 303.580245 377.483897 
L 302.160975 379.997182 
L 300.96563 382.577088 
L 300.001158 385.206247 
L 299.265387 387.869409 
L 298.750658 390.553523 
L 298.44808 393.246854 
L 298.347115 395.939354 
L 298.47751 399.156691 
L 298.864477 402.34711 
L 299.491143 405.499126 
L 300.341696 408.602781 
L 301.402851 411.648392 
L 302.659849 414.628998 
L 304.101238 417.5369 
L 306.001464 420.828361 
L 308.121036 424.002215 
L 310.444164 427.050346 
L 312.957942 429.963371 
L 315.648818 432.733894 
L 318.502866 435.356578 
L 321.508728 437.824029 
L 324.654906 440.129806 
L 327.929075 442.269863 
L 331.320226 444.238956 
L 334.817628 446.031881 
L 338.409861 447.645717 
L 342.086457 449.075997 
L 346.377464 450.482857 
L 350.198408 451.510637 
L 354.069999 452.346626 
L 357.981498 452.989881 
L 362.487269 453.48613 
L 366.448956 453.710445 
L 370.41743 453.738709 
L 374.947597 453.53026 
L 378.895044 453.13783 
L 382.81606 452.550259 
L 387.25133 451.641708 
L 391.080113 450.641033 
L 394.849099 449.450467 
L 398.547714 448.072946 
L 402.165168 446.511273 
L 405.690679 444.76895 
L 409.113513 442.850182 
L 412.422226 440.758456 
L 415.606146 438.499529 
L 418.652951 436.077184 
L 421.552094 433.498923 
L 424.29076 430.769833 
L 426.855993 427.89624 
L 429.235388 424.886338 
L 431.414937 421.74785 
L 433.37941 418.488994 
L 435.112301 415.118797 
L 436.40125 412.150121 
L 437.495824 409.114727 
L 438.382594 406.020228 
L 439.047559 402.875553 
L 439.475554 399.690735 
L 439.649628 396.476866 
L 439.588018 393.78577 
L 439.326389 391.09175 
L 438.854803 388.40489 
L 438.164172 385.736629 
L 437.245798 383.099508 
L 436.096366 380.508409 
L 434.721566 377.980505 
L 433.135122 375.533687 
L 431.372206 373.187452 
L 429.102945 370.529249 
L 421.809088 362.354239 
L 420.585547 360.43268 
L 419.506691 358.259414 
L 418.432648 355.523449 
L 414.838675 345.846879 
L 413.256361 342.49507 
L 411.621697 339.525599 
L 409.805967 336.66948 
L 407.810865 333.940389 
L 405.640914 331.35194 
L 403.304439 328.915893 
L 400.809865 326.644662 
L 398.167929 324.549012 
L 395.390456 322.638713 
L 392.489973 320.922777 
L 389.479293 319.410203 
L 386.372687 318.107577 
L 383.184366 317.021731 
L 379.929442 316.157293 
L 376.623148 315.518267 
L 373.280876 315.108484 
L 369.918438 314.929865 
L 369 314.9212 
L 369 314.9212 
" clip-path="url(#pd3fe80a14c)" style="fill: none; stroke: #95d0d8; stroke-width: 1.5; stroke-linecap: square"/>
   </g>
   <g id="line2d_11">
    <path d="M 369 314.895385 
L 365.633036 315.011024 
L 362.281939 315.358277 
L 358.962472 315.935088 
L 355.690254 316.738771 
L 352.480532 317.765167 
L 349.34851 319.009932 
L 346.308527 320.466489 
L 343.374746 322.128142 
L 340.560848 323.987255 
L 337.879113 326.034257 
L 335.341544 328.259591 
L 332.959077 330.652684 
L 330.741426 333.202118 
L 328.695814 335.895035 
L 326.828937 338.719136 
L 325.142563 341.660253 
L 323.634371 344.704393 
L 322.177743 348.125636 
L 320.565033 352.52214 
L 318.55647 357.945064 
L 317.497918 360.112533 
L 316.299787 362.025112 
L 314.734123 364.026639 
L 312.415965 366.53868 
L 306.909339 372.346186 
L 304.625274 375.159853 
L 302.899802 377.628306 
L 301.380307 380.188698 
L 300.09005 382.821317 
L 299.034828 385.508843 
L 298.215825 388.234683 
L 297.625568 390.985202 
L 297.255295 393.748078 
L 297.095282 396.512345 
L 297.13365 399.269132 
L 297.428231 402.555066 
L 297.976087 405.805662 
L 298.760635 409.010122 
L 299.767794 412.158072 
L 300.983281 415.240986 
L 302.393449 418.251631 
L 303.987221 421.182263 
L 306.063715 424.491715 
L 308.358819 427.67376 
L 310.856356 430.720726 
L 313.543011 433.623574 
L 316.40489 436.375275 
L 319.428703 438.969495 
L 322.602581 441.399016 
L 325.914142 443.658321 
L 329.351096 445.742916 
L 332.901971 447.647765 
L 336.555566 449.367884 
L 340.300061 450.900613 
L 344.124757 452.240934 
L 348.018112 453.386887 
L 351.968924 454.336444 
L 355.966317 455.086622 
L 359.999178 455.635891 
L 364.056425 455.983371 
L 368.127038 456.128818 
L 372.200042 456.070958 
L 376.264376 455.809968 
L 380.309006 455.346654 
L 384.32296 454.682448 
L 388.295198 453.818589 
L 392.21446 452.756166 
L 396.06987 451.498543 
L 399.850209 450.048148 
L 403.544236 448.40812 
L 407.140391 446.581578 
L 410.627816 444.573913 
L 413.99427 442.388333 
L 417.228647 440.031121 
L 420.3182 437.506623 
L 423.251026 434.82162 
L 426.014327 431.982606 
L 428.594778 428.996651 
L 430.978505 425.871556 
L 433.150484 422.615462 
L 435.095075 419.237686 
L 436.567894 416.253085 
L 437.849056 413.192997 
L 438.927542 410.066087 
L 439.787714 406.879313 
L 440.416797 403.643283 
L 440.797386 400.367649 
L 440.913142 397.616707 
L 440.833198 394.854111 
L 440.548419 392.089517 
L 440.047298 389.332662 
L 439.320649 386.595346 
L 438.360435 383.890698 
L 437.164007 381.234128 
L 435.734632 378.642607 
L 434.088219 376.135077 
L 432.256073 373.730961 
L 429.893496 371.008757 
L 426.327445 367.300863 
L 423.265877 364.026639 
L 421.700213 362.025112 
L 420.502082 360.112533 
L 419.44353 357.945064 
L 418.378203 355.213159 
L 415.117161 346.402943 
L 413.564609 343.032064 
L 411.960263 340.042177 
L 410.175099 337.163313 
L 408.210052 334.409198 
L 406.069678 331.793051 
L 403.760995 329.32747 
L 401.292865 327.024299 
L 398.675209 324.895022 
L 395.919981 322.94918 
L 393.038867 321.19705 
L 390.04569 319.645882 
L 386.953584 318.304369 
L 383.777386 317.177912 
L 380.53167 316.272549 
L 377.231788 315.592061 
L 373.893087 315.140475 
L 370.531394 314.919027 
L 369 314.895385 
L 369 314.895385 
" clip-path="url(#pd3fe80a14c)" style="fill: none; stroke: #c0e6e8; stroke-width: 1.5; stroke-linecap: square"/>
   </g>
   <g id="line2d_12">
    <path d="M 369 314.872942 
L 365.631484 314.98863 
L 362.278841 315.336035 
L 358.957841 315.913098 
L 355.683986 316.716705 
L 352.472894 317.743973 
L 349.33923 318.988875 
L 346.29779 320.446079 
L 343.362591 322.10847 
L 340.547057 323.968046 
L 337.863968 326.015975 
L 335.325093 328.242317 
L 332.941034 330.63619 
L 330.721435 333.186234 
L 328.674587 335.880443 
L 326.805705 338.70543 
L 325.117253 341.647591 
L 323.606431 344.692756 
L 322.146338 348.115257 
L 320.526044 352.513222 
L 318.628353 357.632099 
L 317.592804 359.794009 
L 316.424317 361.697798 
L 314.88855 363.685083 
L 312.941081 365.804768 
L 305.678415 373.333384 
L 303.724468 375.745884 
L 301.943968 378.272499 
L 300.37709 380.893102 
L 299.043869 383.588192 
L 297.952261 386.339482 
L 297.101019 389.130761 
L 296.484856 391.94737 
L 296.094144 394.776954 
L 295.918332 397.608618 
L 295.946944 400.432576 
L 296.169746 403.240034 
L 296.678027 406.577028 
L 297.432784 409.868585 
L 298.419796 413.103531 
L 299.623931 416.273059 
L 301.031349 419.369253 
L 302.630126 422.384251 
L 304.408916 425.310981 
L 306.356393 428.143608 
L 308.829155 431.320564 
L 311.502457 434.352984 
L 314.362583 437.232214 
L 317.395309 439.951625 
L 320.58834 442.503148 
L 323.927996 444.881904 
L 327.401991 447.082001 
L 330.99803 449.098501 
L 334.704491 450.925849 
L 338.509071 452.56085 
L 342.400131 453.999593 
L 346.366199 455.238116 
L 350.395358 456.27479 
L 354.476155 457.107106 
L 358.597107 457.733236 
L 362.746849 458.150375 
L 366.913703 458.359685 
L 371.086297 458.359685 
L 375.253151 458.150375 
L 379.402893 457.733236 
L 383.523845 457.107106 
L 387.604642 456.27479 
L 391.633801 455.238116 
L 395.599869 453.999593 
L 399.490929 452.56085 
L 403.295509 450.925849 
L 407.00197 449.098501 
L 410.598009 447.082001 
L 414.072004 444.881904 
L 417.41166 442.503148 
L 420.604691 439.951625 
L 423.637417 437.232214 
L 426.497543 434.352984 
L 429.170845 431.320564 
L 431.643607 428.143608 
L 433.899281 424.829313 
L 435.648873 421.887468 
L 437.216882 418.858704 
L 438.591338 415.749771 
L 439.759638 412.568318 
L 440.709293 409.323497 
L 441.424552 406.023906 
L 441.889828 402.680232 
L 442.074658 399.868847 
L 442.063517 397.042753 
L 441.845518 394.210654 
L 441.410295 391.382645 
L 440.747455 388.569929 
L 439.849126 385.785644 
L 438.708801 383.044144 
L 437.327945 380.362449 
L 435.715808 377.758956 
L 433.896901 375.253621 
L 431.914352 372.866125 
L 429.418709 370.180875 
L 422.553926 363.010531 
L 421.150185 361.056006 
L 420.082065 359.171363 
L 419.11829 357.021844 
L 417.891505 353.704937 
L 415.505724 347.250689 
L 413.998851 343.852792 
L 412.289583 340.565055 
L 410.535771 337.663728 
L 408.60157 334.884818 
L 406.490882 332.241738 
L 404.210499 329.74709 
L 401.76907 327.412755 
L 399.176304 325.250276 
L 396.443718 323.269651 
L 393.583096 321.480918 
L 390.607706 319.892241 
L 387.531165 318.511292 
L 384.367659 317.344842 
L 381.131889 316.398715 
L 377.839165 315.676878 
L 374.50484 315.183113 
L 371.1446 314.919717 
L 369 314.872942 
L 369 314.872942 
" clip-path="url(#pd3fe80a14c)" style="fill: none; stroke: #eafdfd; stroke-width: 1.5; stroke-linecap: square"/>
   </g>
   <g id="line2d_13">
    <path d="M 369 373.08241 
L 377.275373 372.972893 
L 385.26396 372.652069 
L 392.797341 372.134615 
L 399.707391 371.441101 
L 405.910725 370.58818 
L 411.025963 369.654685 
L 413.335648 369.135748 
L 416.215664 369.193988 
L 420.936782 368.102738 
L 424.668537 367.018013 
L 427.29326 366.076267 
L 429.65194 365.030773 
L 431.654122 363.895548 
L 433.238457 362.69088 
L 434.388157 361.440115 
L 435.12492 360.165816 
L 435.503407 358.886577 
L 435.59357 357.615518 
L 435.463358 356.360735 
L 435.054734 354.718752 
L 434.314437 352.717614 
L 432.892007 349.61982 
L 430.216585 344.430683 
L 427.24548 339.124476 
L 424.523291 334.724139 
L 421.83806 330.836715 
L 419.207268 327.434959 
L 416.667508 324.488126 
L 413.983884 321.691503 
L 411.158654 319.054966 
L 408.195848 316.588759 
L 405.101697 314.302567 
L 401.884776 312.204439 
L 398.553648 310.303573 
L 395.118928 308.607055 
L 391.591835 307.121535 
L 387.984416 305.852449 
L 384.309127 304.804616 
L 380.578655 303.982937 
L 376.806319 303.390905 
L 373.005852 303.029773 
L 369.190881 302.901501 
L 365.375225 303.006525 
L 361.5727 303.344487 
L 357.796946 303.913504 
L 354.061703 304.712402 
L 350.380078 305.737047 
L 346.765476 306.984754 
L 343.229688 308.448632 
L 339.785384 310.124687 
L 336.443538 312.005625 
L 333.21436 314.083803 
L 330.107783 316.351894 
L 327.131612 318.800611 
L 324.292121 321.420292 
L 321.59455 324.201667 
L 319.040156 327.133748 
L 316.394126 330.52081 
L 313.911473 334.064021 
L 311.368017 338.092454 
L 308.759578 342.63481 
L 305.861156 348.110559 
L 303.852141 352.323801 
L 302.945266 354.718752 
L 302.536642 356.360735 
L 302.40643 357.615518 
L 302.496593 358.886577 
L 302.87508 360.165816 
L 303.322956 361.016956 
L 303.947091 361.860704 
L 304.761543 362.69088 
L 306.345878 363.895548 
L 308.34806 365.030773 
L 310.70674 366.076267 
L 313.331463 367.018013 
L 317.063218 368.102738 
L 321.784336 369.193988 
L 324.664352 369.135748 
L 329.22961 370.097884 
L 334.738894 370.983833 
L 340.884605 371.728982 
L 347.987096 372.352255 
L 355.625482 372.7936 
L 363.804463 373.039393 
L 369 373.08241 
L 369 373.08241 
" clip-path="url(#pd3fe80a14c)" style="fill: none; stroke: #040613; stroke-width: 1.5; stroke-linecap: square"/>
   </g>
   <g id="line2d_14">
    <path d="M 369 376.243213 
L 378.608799 376.132629 
L 388.008835 375.804722 
L 397.017205 375.269674 
L 405.220029 374.567794 
L 413.027417 373.669782 
L 413.845014 373.560396 
L 415.429517 373.606326 
L 422.237838 372.642397 
L 428.908698 371.463173 
L 433.650624 370.436168 
L 438.425508 369.179252 
L 441.865251 368.07388 
L 445.027486 366.829608 
L 447.769384 365.458162 
L 449.302231 364.483889 
L 450.568698 363.471744 
L 451.556422 362.43164 
L 452.265259 361.373767 
L 452.708064 360.307806 
L 452.907315 359.242292 
L 452.89333 358.184134 
L 452.696743 357.138705 
L 452.136452 355.601467 
L 451.346631 354.106283 
L 450.083757 352.178418 
L 447.658717 348.963893 
L 441.155938 340.505829 
L 430.92597 326.800753 
L 427.423968 322.622607 
L 424.075663 318.986267 
L 420.900332 315.854109 
L 417.592728 312.899255 
L 414.15167 310.132709 
L 410.579379 307.565475 
L 407.25682 305.433331 
L 403.838038 303.477267 
L 400.329657 301.703625 
L 396.335779 299.953558 
L 392.664406 298.582578 
L 388.929441 297.410003 
L 385.140808 296.438484 
L 381.308242 295.671784 
L 377.442101 295.111702 
L 373.119562 294.735442 
L 369.21693 294.618207 
L 365.313723 294.712473 
L 361.420576 295.015645 
L 357.119776 295.598831 
L 353.282999 296.342916 
L 349.489037 297.292037 
L 345.747643 298.442479 
L 342.068754 299.791639 
L 338.461501 301.335049 
L 334.934185 303.067275 
L 331.494945 304.983412 
L 328.150574 307.077099 
L 324.906682 309.341442 
L 321.425288 312.048658 
L 318.077568 314.948189 
L 314.862958 318.028379 
L 311.777216 321.278249 
L 308.516968 325.034625 
L 305.08656 329.332502 
L 300.600061 335.362274 
L 293.404505 345.05465 
L 287.263115 353.133182 
L 286.106229 355.098305 
L 285.458306 356.621846 
L 285.184112 357.659557 
L 285.075085 358.71193 
L 285.163598 359.774518 
L 285.480964 360.84122 
L 286.05483 361.904299 
L 286.902468 362.954549 
L 288.029835 363.981948 
L 289.43231 364.976344 
L 291.088987 365.928285 
L 293.986816 367.259298 
L 297.25815 368.458004 
L 300.757083 369.516423 
L 305.546187 370.713444 
L 311.388956 371.900029 
L 317.821141 372.956483 
L 322.570483 373.606326 
L 324.154986 373.560396 
L 331.512807 374.438642 
L 339.670096 375.172006 
L 348.442661 375.728799 
L 357.690012 376.089744 
L 367.239842 376.239518 
L 369 376.243213 
L 369 376.243213 
" clip-path="url(#pd3fe80a14c)" style="fill: none; stroke: #191934; stroke-width: 1.5; stroke-linecap: square"/>
   </g>
   <g id="line2d_15">
    <path d="M 369 379.404016 
L 379.679908 379.294827 
L 390.196233 378.969433 
L 400.140251 378.450133 
L 409.965 377.712586 
L 413.511944 377.384884 
L 415.430827 377.341527 
L 424.696062 376.33859 
L 432.716495 375.248604 
L 439.246374 374.1718 
L 444.863535 373.07232 
L 450.65853 371.715594 
L 454.959199 370.507951 
L 459.048853 369.128942 
L 462.742648 367.582139 
L 464.894517 366.465702 
L 466.739394 365.290675 
L 468.243103 364.068144 
L 469.382017 362.810796 
L 470.152283 361.532079 
L 470.564843 360.245136 
L 470.647872 358.961775 
L 470.438324 357.69189 
L 469.980956 356.442984 
L 469.321527 355.220244 
L 468.05264 353.44103 
L 466.037316 351.173886 
L 462.768015 347.976813 
L 455.207803 340.718475 
L 451.363223 336.666648 
L 446.787674 331.48671 
L 435.978361 319.093611 
L 431.75189 314.699843 
L 427.756814 310.895533 
L 424.003826 307.636501 
L 420.12609 304.580302 
L 416.121196 301.738535 
L 412.40967 299.373304 
L 408.600226 297.198492 
L 404.698386 295.22104 
L 400.71128 293.446725 
L 396.646713 291.881369 
L 392.513455 290.529988 
L 388.32085 289.397418 
L 384.078989 288.48745 
L 379.798608 287.801919 
L 375.490357 287.343828 
L 371.16533 287.114136 
L 366.83467 287.114136 
L 362.509643 287.343828 
L 358.201392 287.801919 
L 353.921011 288.48745 
L 349.67915 289.397418 
L 345.486545 290.529988 
L 341.353287 291.881369 
L 337.28872 293.446725 
L 333.301614 295.22104 
L 329.399774 297.198492 
L 325.59033 299.373304 
L 321.878804 301.738535 
L 318.268808 304.28644 
L 314.761237 307.008288 
L 310.983783 310.227779 
L 307.324834 313.640376 
L 303.418001 317.602109 
L 299.254262 322.153888 
L 293.360211 328.978032 
L 287.038035 336.226057 
L 283.242782 340.259732 
L 278.943103 344.487414 
L 271.436443 351.72969 
L 269.94736 353.44103 
L 268.678473 355.220244 
L 268.019044 356.442984 
L 267.561676 357.69189 
L 267.352128 358.961775 
L 267.435157 360.245136 
L 267.847717 361.532079 
L 268.617983 362.810796 
L 269.756897 364.068144 
L 271.260606 365.290675 
L 273.105483 366.465702 
L 275.257352 367.582139 
L 277.666658 368.63142 
L 281.645286 370.067407 
L 285.895105 371.331814 
L 291.695488 372.758836 
L 297.376077 373.918866 
L 304.028407 375.056245 
L 312.239918 376.206818 
L 320.903003 377.179045 
L 323.370363 377.417119 
L 325.232572 377.456583 
L 334.501336 378.224612 
L 344.296278 378.810685 
L 354.687197 379.207362 
L 365.362116 379.391386 
L 369 379.404016 
L 369 379.404016 
" clip-path="url(#pd3fe80a14c)" style="fill: none; stroke: #2c2b57; stroke-width: 1.5; stroke-linecap: square"/>
   </g>
   <g id="line2d_16">
    <path d="M 369 382.56482 
L 380.813999 382.453536 
L 392.318585 382.127496 
L 403.35101 381.602313 
L 418.420044 380.625378 
L 428.729723 379.654872 
L 438.271754 378.529205 
L 446.744805 377.308507 
L 454.635156 375.937466 
L 461.345114 374.540807 
L 466.462653 373.286279 
L 471.488319 371.836283 
L 476.224661 370.183526 
L 479.110929 368.971439 
L 481.700122 367.677519 
L 483.929883 366.311185 
L 485.749087 364.88506 
L 487.122202 363.414268 
L 488.035283 361.915381 
L 488.496018 360.405078 
L 488.530339 358.898934 
L 488.182323 357.410292 
L 487.504808 355.949736 
L 486.557563 354.524688 
L 485.399587 353.139662 
L 483.386009 351.140946 
L 480.419223 348.619367 
L 475.127214 344.542598 
L 468.302776 339.238698 
L 464.179343 335.75624 
L 460.003053 331.928636 
L 455.787844 327.771146 
L 448.999183 320.708054 
L 441.745855 313.257145 
L 436.889748 308.606289 
L 432.761539 304.94235 
L 428.531982 301.485441 
L 424.627545 298.561754 
L 420.624912 295.825984 
L 416.524422 293.28533 
L 412.327291 290.948964 
L 408.037907 288.824309 
L 403.662158 286.918645 
L 399.207917 285.237322 
L 394.683714 283.785727 
L 390.610963 282.692408 
L 386.497429 281.787243 
L 382.350599 281.072249 
L 377.655111 280.498027 
L 372.938398 280.170114 
L 368.212102 280.08748 
L 363.487719 280.251913 
L 358.776815 280.662291 
L 354.090902 281.317861 
L 349.441086 282.215827 
L 345.346972 283.21524 
L 340.794647 284.563243 
L 336.308047 286.14276 
L 331.896631 287.949934 
L 327.56831 289.978596 
L 323.32931 292.221355 
L 319.185298 294.671944 
L 315.139086 297.322031 
L 311.19169 300.163739 
L 307.339403 303.187086 
L 303.163383 306.749675 
L 299.076766 310.511512 
L 294.247213 315.271926 
L 287.355684 322.435802 
L 280.389681 329.60167 
L 275.970388 333.825018 
L 272.114186 337.230897 
L 267.76893 340.781575 
L 260.629881 346.243667 
L 256.072888 349.860445 
L 253.914356 351.796664 
L 251.99809 353.826948 
L 250.938629 355.232411 
L 250.11898 356.675969 
L 249.598962 358.151692 
L 249.435739 359.650583 
L 249.678626 361.160637 
L 250.363904 362.667282 
L 251.50713 364.15423 
L 253.106437 365.604701 
L 255.135815 367.002705 
L 257.552756 368.334221 
L 260.299238 369.588165 
L 263.308616 370.756899 
L 268.165647 372.341987 
L 273.241854 373.725483 
L 280.041011 375.2761 
L 286.602054 376.53105 
L 294.20675 377.760348 
L 302.296861 378.856087 
L 311.366452 379.871463 
L 321.932062 380.815189 
L 328.215283 381.192809 
L 338.96531 381.833575 
L 350.286261 382.284337 
L 362.043905 382.526313 
L 369 382.56482 
L 369 382.56482 
" clip-path="url(#pd3fe80a14c)" style="fill: none; stroke: #3a3d7d; stroke-width: 1.5; stroke-linecap: square"/>
   </g>
   <g id="line2d_17">
    <path d="M 369 385.725623 
L 381.664859 385.616053 
L 394.274106 385.285977 
L 406.442111 384.748768 
L 422.156088 383.803582 
L 432.740084 382.901146 
L 442.50543 381.877865 
L 452.821579 380.564497 
L 461.280909 379.273825 
L 468.645409 377.955924 
L 476.384041 376.32258 
L 482.265601 374.856847 
L 488.014706 373.164395 
L 491.660115 371.905938 
L 495.063626 370.54466 
L 498.144777 369.086003 
L 500.824867 367.539441 
L 503.036403 365.918532 
L 504.72835 364.24025 
L 505.369169 363.385577 
L 505.872189 362.52391 
L 506.237322 361.657781 
L 506.466212 360.78969 
L 506.563918 359.922004 
L 506.533004 359.057044 
L 506.381974 358.196839 
L 505.746127 356.498119 
L 504.722356 354.83823 
L 503.382755 353.225802 
L 501.798634 351.665949 
L 499.109523 349.428323 
L 495.224453 346.628762 
L 489.360827 342.767195 
L 480.586206 336.968204 
L 475.366295 333.208526 
L 470.782859 329.606205 
L 466.12843 325.630888 
L 460.900906 320.833833 
L 442.359843 303.407197 
L 437.302906 299.159532 
L 432.615006 295.531619 
L 428.307259 292.467265 
L 423.907189 289.604228 
L 419.412807 286.95105 
L 414.824745 284.516645 
L 410.146843 282.308321 
L 405.384186 280.334164 
L 400.544384 278.599756 
L 395.635583 277.111631 
L 391.222309 275.998419 
L 386.769272 275.086416 
L 382.284201 274.377475 
L 377.774995 273.873252 
L 373.249719 273.575183 
L 368.716612 273.485293 
L 364.184028 273.601217 
L 359.660335 273.925286 
L 355.153634 274.454625 
L 350.672199 275.189407 
L 346.223626 276.126322 
L 341.815768 277.264309 
L 337.455616 278.599756 
L 333.150017 280.129766 
L 328.904441 281.849156 
L 324.207312 284.006323 
L 319.598578 286.3906 
L 315.083194 288.995908 
L 310.662168 291.813008 
L 306.334407 294.833573 
L 302.093247 298.047085 
L 297.469533 301.833 
L 292.457573 306.241281 
L 286.554444 311.757269 
L 272.419471 325.143069 
L 267.829478 329.101931 
L 263.324487 332.685691 
L 258.979159 335.874542 
L 253.221911 339.788636 
L 240.809591 348.003399 
L 237.96297 350.160669 
L 235.383564 352.439153 
L 233.912686 354.025699 
L 232.72156 355.662685 
L 231.88317 357.343315 
L 231.466996 359.057044 
L 231.436082 359.922004 
L 231.533788 360.78969 
L 231.762678 361.657781 
L 232.127811 362.52391 
L 232.630831 363.385577 
L 233.27165 364.24025 
L 234.963597 365.918532 
L 237.175133 367.539441 
L 239.855223 369.086003 
L 242.936374 370.54466 
L 246.339885 371.905938 
L 249.985294 373.164395 
L 255.734399 374.856847 
L 261.615959 376.32258 
L 269.354591 377.955924 
L 276.719091 379.273825 
L 285.178421 380.564497 
L 294.128134 381.718395 
L 304.145456 382.794154 
L 314.994728 383.738528 
L 326.51288 384.521193 
L 328.365982 384.570354 
L 340.414805 385.161637 
L 352.821741 385.546546 
L 365.493408 385.717243 
L 369 385.725623 
L 369 385.725623 
" clip-path="url(#pd3fe80a14c)" style="fill: none; stroke: #3f54a0; stroke-width: 1.5; stroke-linecap: square"/>
   </g>
   <g id="line2d_18">
    <path d="M 369 388.886426 
L 382.651015 388.775071 
L 396.174792 388.442218 
L 411.871867 387.815706 
L 424.35749 387.067049 
L 437.020903 386.080339 
L 448.484874 384.964898 
L 459.395522 383.677488 
L 468.401763 382.419392 
L 476.334427 381.136831 
L 484.819285 379.543197 
L 491.422093 378.104249 
L 498.066863 376.427248 
L 504.539226 374.492357 
L 508.625452 373.054747 
L 512.424027 371.501019 
L 515.838962 369.837643 
L 518.781107 368.076043 
L 521.172593 366.232248 
L 522.141805 365.285636 
L 522.954633 364.326226 
L 523.606681 363.356901 
L 524.096139 362.380633 
L 524.425475 361.400378 
L 524.596353 360.419044 
L 524.613866 359.439409 
L 524.483147 358.46412 
L 524.211904 357.495597 
L 523.808719 356.536028 
L 522.645207 354.651186 
L 521.0769 352.821564 
L 519.187377 351.054999 
L 517.061042 349.355091 
L 513.586361 346.930685 
L 508.730885 343.917293 
L 499.33674 338.498975 
L 492.086493 334.22348 
L 486.65739 330.781372 
L 481.851828 327.480736 
L 476.868893 323.761703 
L 471.779865 319.647932 
L 466.026558 314.680239 
L 447.009455 297.932996 
L 441.449386 293.50423 
L 436.319616 289.726455 
L 431.622261 286.54085 
L 426.839095 283.56868 
L 421.965313 280.820602 
L 417.55755 278.572097 
L 413.079946 276.513542 
L 408.536457 274.649142 
L 403.931345 272.984226 
L 399.269953 271.523656 
L 394.558997 270.270065 
L 389.805111 269.227671 
L 385.015824 268.399048 
L 380.199072 267.785817 
L 375.362895 267.390249 
L 370.515701 267.211926 
L 365.665842 267.25353 
L 360.821751 267.512524 
L 355.991918 267.990295 
L 351.184558 268.684688 
L 346.40775 269.594185 
L 341.668951 270.715493 
L 336.975975 272.047612 
L 332.334781 273.584742 
L 327.752195 275.325055 
L 323.233015 277.262997 
L 318.781238 279.393372 
L 313.857299 282.01372 
L 309.023786 284.862261 
L 304.279448 287.930453 
L 299.618028 291.208146 
L 294.520762 295.082565 
L 289.483569 299.188159 
L 283.452618 304.398009 
L 264.374591 321.175422 
L 259.766333 324.811986 
L 255.385308 328.022778 
L 250.484472 331.344007 
L 244.940507 334.814748 
L 237.545565 339.14014 
L 226.82944 345.394348 
L 223.227972 347.722345 
L 219.851143 350.196624 
L 217.832882 351.930068 
L 216.093622 353.728888 
L 214.716953 355.587343 
L 214.191281 356.536028 
L 213.788096 357.495597 
L 213.516853 358.46412 
L 213.386134 359.439409 
L 213.403647 360.419044 
L 213.574525 361.400378 
L 213.903861 362.380633 
L 214.393319 363.356901 
L 215.045367 364.326226 
L 215.858195 365.285636 
L 216.827407 366.232248 
L 219.218893 368.076043 
L 222.161038 369.837643 
L 225.575973 371.501019 
L 229.374548 373.054747 
L 233.460774 374.492357 
L 237.743817 375.811656 
L 244.358492 377.572847 
L 250.995151 379.088445 
L 259.590536 380.770079 
L 267.67376 382.124391 
L 276.886415 383.451996 
L 286.591427 384.642945 
L 297.443895 385.760178 
L 309.225704 386.750327 
L 321.807408 387.580435 
L 331.946375 388.054104 
L 345.239779 388.547548 
L 358.817853 388.824534 
L 369 388.886426 
L 369 388.886426 
" clip-path="url(#pd3fe80a14c)" style="fill: none; stroke: #3f6eb2; stroke-width: 1.5; stroke-linecap: square"/>
   </g>
   <g id="line2d_19">
    <path d="M 369 392.04723 
L 383.454894 391.936274 
L 397.764071 391.605295 
L 414.120262 390.991782 
L 427.668741 390.23112 
L 440.630392 389.289334 
L 452.277096 388.246436 
L 463.348755 387.060767 
L 474.507743 385.645179 
L 485.063962 384.065208 
L 494.274243 382.453276 
L 501.52766 380.994602 
L 508.936555 379.287488 
L 516.303839 377.304679 
L 521.062868 375.820249 
L 525.590234 374.203518 
L 529.781222 372.457201 
L 533.530184 370.589156 
L 536.733278 368.612524 
L 538.102147 367.589104 
L 539.303069 366.545865 
L 540.329013 365.485823 
L 541.174685 364.412172 
L 541.835685 363.328238 
L 542.311903 362.237421 
L 542.604971 361.143097 
L 542.716574 360.048601 
L 542.65183 358.957134 
L 542.419294 357.871658 
L 542.025861 356.794983 
L 541.482701 355.729559 
L 540.801005 354.677552 
L 539.066887 352.621064 
L 536.921837 350.636622 
L 534.465081 348.730354 
L 531.787286 346.904321 
L 527.526968 344.312426 
L 521.71494 341.107903 
L 499.138215 329.058338 
L 493.30664 325.531519 
L 488.140468 322.136104 
L 482.763658 318.301003 
L 477.245927 314.053498 
L 470.979846 308.923015 
L 450.747834 292.107804 
L 445.249392 287.947725 
L 439.691633 284.038591 
L 434.617478 280.747137 
L 429.462913 277.682019 
L 424.222406 274.853503 
L 419.491441 272.544798 
L 414.693188 270.436149 
L 409.830811 268.532805 
L 404.908631 266.839755 
L 399.932013 265.361554 
L 394.907434 264.101346 
L 389.841446 263.063958 
L 384.741879 262.250971 
L 379.616701 261.663836 
L 374.473933 261.305527 
L 369.322094 261.177195 
L 364.169746 261.277288 
L 359.02536 261.606551 
L 353.897457 262.164694 
L 348.794237 262.949589 
L 343.723792 263.95978 
L 338.693585 265.192078 
L 333.710351 266.642486 
L 328.781222 268.309409 
L 323.911081 270.186692 
L 319.10466 272.270068 
L 314.365238 274.554207 
L 309.694359 277.033022 
L 304.520756 280.046064 
L 299.429667 283.288362 
L 294.409948 286.747608 
L 288.897382 290.834158 
L 282.868438 295.605974 
L 275.119632 302.065162 
L 262.054107 313.011929 
L 256.66934 317.226239 
L 251.458894 321.027718 
L 246.481877 324.386949 
L 240.888861 327.865467 
L 234.529891 331.506602 
L 227.283106 335.3818 
L 211.924773 343.48573 
L 207.609653 346.021179 
L 204.851581 347.80733 
L 202.27309 349.673469 
L 199.960527 351.619343 
L 198.008856 353.6409 
L 196.517299 355.729559 
L 195.974139 356.794983 
L 195.580706 357.871658 
L 195.34817 358.957134 
L 195.283426 360.048601 
L 195.395029 361.143097 
L 195.688097 362.237421 
L 196.164315 363.328238 
L 196.825315 364.412172 
L 197.670987 365.485823 
L 198.696931 366.545865 
L 199.897853 367.589104 
L 201.266722 368.612524 
L 204.469816 370.589156 
L 208.218778 372.457201 
L 212.409766 374.203518 
L 216.937132 375.820249 
L 221.696161 377.304679 
L 229.063445 379.287488 
L 236.47234 380.994602 
L 243.725757 382.453276 
L 252.936038 384.065208 
L 263.492257 385.645179 
L 274.651245 387.060767 
L 285.722904 388.246436 
L 298.511231 389.381403 
L 312.01265 390.337452 
L 326.170013 391.099216 
L 338.798722 391.559635 
L 353.182671 391.914321 
L 367.567501 392.046142 
L 369 392.04723 
L 369 392.04723 
" clip-path="url(#pd3fe80a14c)" style="fill: none; stroke: #4887bc; stroke-width: 1.5; stroke-linecap: square"/>
   </g>
   <g id="line2d_20">
    <path d="M 369 395.208033 
L 384.324769 395.095812 
L 399.436557 394.76302 
L 416.581994 394.150267 
L 430.515445 393.411747 
L 444.84864 392.428573 
L 458.360738 391.274088 
L 470.037141 390.077734 
L 481.818407 388.65777 
L 493.009706 387.078329 
L 502.849645 385.469019 
L 510.674447 384.011052 
L 518.768169 382.300051 
L 526.957132 380.302414 
L 532.350695 378.797627 
L 537.585353 377.148048 
L 542.552899 375.352147 
L 547.138104 373.413366 
L 551.219732 371.340599 
L 554.683459 369.148945 
L 556.152056 368.014899 
L 557.430582 366.859431 
L 558.51199 365.685963 
L 559.390125 364.498097 
L 560.059736 363.299583 
L 560.522411 362.09425 
L 560.776401 360.88593 
L 560.827645 359.678345 
L 560.681287 358.475087 
L 560.345061 357.279538 
L 559.829292 356.094784 
L 559.145184 354.923614 
L 558.304824 353.768495 
L 556.209727 351.514381 
L 553.656272 349.344743 
L 550.755933 347.266364 
L 547.610757 345.281445 
L 542.631903 342.474647 
L 535.865352 339.023808 
L 521.652177 332.20497 
L 513.474261 328.157072 
L 506.334668 324.360097 
L 500.075674 320.737334 
L 494.522398 317.241884 
L 489.518991 313.845828 
L 484.203437 309.98998 
L 477.955109 305.183194 
L 467.198946 296.552114 
L 458.217592 289.451892 
L 451.705686 284.582144 
L 445.760053 280.4238 
L 440.356046 276.913298 
L 434.883437 273.635136 
L 429.953524 270.924669 
L 424.958512 268.413157 
L 419.898014 266.106706 
L 414.77322 264.01177 
L 409.587157 262.134123 
L 404.344409 260.478554 
L 399.050807 259.048604 
L 393.712515 257.848803 
L 388.336569 256.882999 
L 382.931041 256.151745 
L 377.503695 255.658805 
L 372.063059 255.403686 
L 366.61755 255.38907 
L 361.175785 255.613298 
L 355.746354 256.077047 
L 350.337595 256.77833 
L 344.957721 257.715867 
L 339.614139 258.885841 
L 334.314456 260.286861 
L 329.065272 261.915141 
L 323.87197 263.76552 
L 318.73914 265.833195 
L 313.670238 268.113091 
L 308.667027 270.599356 
L 303.729336 273.285699 
L 298.248188 276.537118 
L 292.837444 280.022608 
L 287.479922 283.729455 
L 281.559316 288.09443 
L 275.021998 293.175557 
L 252.325818 311.080728 
L 246.86563 314.96791 
L 241.694787 318.394922 
L 235.925555 321.929165 
L 230.541726 324.979301 
L 224.525739 328.157072 
L 216.347823 332.20497 
L 197.060476 341.582283 
L 192.024251 344.3236 
L 188.792103 346.262252 
L 185.757237 348.293916 
L 183.016516 350.418437 
L 180.678833 352.631541 
L 179.695176 353.768495 
L 178.854816 354.923614 
L 178.170708 356.094784 
L 177.654939 357.279538 
L 177.318713 358.475087 
L 177.172355 359.678345 
L 177.223599 360.88593 
L 177.477589 362.09425 
L 177.940264 363.299583 
L 178.609875 364.498097 
L 179.48801 365.685963 
L 180.569418 366.859431 
L 181.847944 368.014899 
L 183.316541 369.148945 
L 184.964721 370.258443 
L 188.750931 372.392923 
L 193.099181 374.400198 
L 197.890815 376.268267 
L 203.005464 377.991148 
L 208.332233 379.567889 
L 216.50271 381.66748 
L 224.650678 383.470523 
L 232.579792 385.008987 
L 242.601105 386.708156 
L 254.045267 388.37464 
L 266.119456 389.870441 
L 278.09455 391.127096 
L 291.942519 392.334681 
L 305.694624 393.301757 
L 320.167622 394.092508 
L 333.301596 394.622296 
L 335.443024 394.666261 
L 350.382401 395.042265 
L 365.608087 395.202544 
L 369 395.208033 
L 369 395.208033 
" clip-path="url(#pd3fe80a14c)" style="fill: none; stroke: #5a9fc4; stroke-width: 1.5; stroke-linecap: square"/>
   </g>
   <g id="line2d_21">
    <path d="M 369 398.368836 
L 385.061324 398.256793 
L 400.877979 397.925349 
L 418.718924 397.318138 
L 433.851385 396.553571 
L 448.608774 395.589436 
L 462.41982 394.474468 
L 476.191758 393.13641 
L 488.502897 391.724323 
L 500.233782 390.160166 
L 510.608996 388.569487 
L 521.785664 386.593636 
L 530.571267 384.806651 
L 539.524574 382.716536 
L 545.467257 381.138113 
L 551.282063 379.40322 
L 556.856394 377.508166 
L 562.066307 375.454148 
L 566.779219 373.24808 
L 570.862579 370.903439 
L 572.630534 369.685274 
L 574.199381 368.440634 
L 575.556065 367.172961 
L 576.69182 365.886069 
L 577.601332 364.584002 
L 578.280189 363.270934 
L 578.727438 361.951122 
L 578.943881 360.628819 
L 578.933777 359.308189 
L 578.703987 357.993221 
L 578.263972 356.687645 
L 577.624087 355.394924 
L 576.797271 354.118144 
L 575.797348 352.860024 
L 574.63986 351.622842 
L 571.912745 349.218578 
L 568.741335 346.915807 
L 565.245912 344.719239 
L 561.536382 342.628718 
L 555.771617 339.682959 
L 548.070804 336.074395 
L 520.346272 323.429234 
L 513.997884 320.190483 
L 508.312307 317.071989 
L 502.204711 313.450352 
L 496.71287 309.933355 
L 490.893327 305.94142 
L 484.076255 300.966322 
L 474.392181 293.568047 
L 462.732831 284.697331 
L 455.75255 279.665724 
L 449.400918 275.371618 
L 443.642195 271.749849 
L 437.823464 268.36973 
L 432.590826 265.577518 
L 427.296684 262.992842 
L 421.939578 260.622586 
L 416.520894 258.471907 
L 411.042414 256.548388 
L 405.508967 254.85568 
L 399.925744 253.398591 
L 394.29894 252.181428 
L 388.635748 251.207019 
L 382.943879 250.477391 
L 377.231263 249.995373 
L 371.506338 249.762051 
L 365.777664 249.777551 
L 360.053798 250.041865 
L 354.343303 250.554852 
L 348.654612 251.315409 
L 342.995647 252.320695 
L 338.074256 253.398591 
L 332.491033 254.85568 
L 326.957586 256.548388 
L 321.479106 258.471907 
L 316.060422 260.622586 
L 310.703316 262.992842 
L 305.409174 265.577518 
L 300.176536 268.36973 
L 294.357805 271.749849 
L 288.599082 275.371618 
L 282.24745 279.665724 
L 275.903508 284.22722 
L 267.555095 290.527729 
L 250.213099 303.708904 
L 243.848036 308.208544 
L 238.608012 311.679849 
L 232.828676 315.246636 
L 227.485738 318.30706 
L 221.549222 321.469675 
L 214.902078 324.767036 
L 205.836416 328.972135 
L 182.228383 339.682959 
L 176.463618 342.628718 
L 172.754088 344.719239 
L 169.258665 346.915807 
L 166.087255 349.218578 
L 163.36014 351.622842 
L 162.202652 352.860024 
L 161.202729 354.118144 
L 160.375913 355.394924 
L 159.736028 356.687645 
L 159.296013 357.993221 
L 159.066223 359.308189 
L 159.056119 360.628819 
L 159.272562 361.951122 
L 159.719811 363.270934 
L 160.398668 364.584002 
L 161.30818 365.886069 
L 162.443935 367.172961 
L 163.800619 368.440634 
L 165.369466 369.685274 
L 167.137421 370.903439 
L 169.093084 372.091942 
L 173.506506 374.369449 
L 178.484919 376.500742 
L 183.893184 378.475765 
L 189.60217 380.290601 
L 195.494013 381.946553 
L 204.452415 384.145408 
L 213.315859 386.02943 
L 221.893055 387.635062 
L 232.685996 389.407859 
L 244.970389 391.147858 
L 257.90855 392.71256 
L 270.736292 394.031244 
L 284.258561 395.200024 
L 298.361518 396.201829 
L 313.137676 397.034104 
L 329.251448 397.705507 
L 344.230175 398.101759 
L 360.072443 398.334258 
L 369 398.368836 
L 369 398.368836 
" clip-path="url(#pd3fe80a14c)" style="fill: none; stroke: #73b9ce; stroke-width: 1.5; stroke-linecap: square"/>
   </g>
   <g id="line2d_22">
    <path d="M 369 401.529639 
L 385.667405 401.419053 
L 403.796296 401.067715 
L 420.559613 400.493441 
L 436.857405 399.707799 
L 451.956626 398.766826 
L 465.984249 397.695278 
L 479.912051 396.425194 
L 492.35259 395.097958 
L 504.240697 393.637921 
L 514.822219 392.159182 
L 526.346021 390.325073 
L 535.54179 388.663878 
L 545.093338 386.712711 
L 554.817899 384.430983 
L 561.267142 382.708377 
L 567.569903 380.815319 
L 573.603935 378.748089 
L 579.231398 376.508074 
L 584.307489 374.103145 
L 586.593631 372.843264 
L 588.68915 371.548409 
L 590.577489 370.221599 
L 592.244671 368.866321 
L 593.678466 367.486439 
L 594.87009 366.086158 
L 595.810819 364.669899 
L 596.497935 363.242289 
L 596.929634 361.808016 
L 597.106727 360.371774 
L 597.035186 358.938131 
L 596.721891 357.511483 
L 596.177177 356.095941 
L 595.41228 354.695323 
L 594.442721 353.312976 
L 593.282363 351.951944 
L 591.948487 350.614729 
L 590.459243 349.30335 
L 587.07966 346.764495 
L 583.282951 344.343299 
L 579.194746 342.042149 
L 574.927677 339.858664 
L 568.396508 336.79057 
L 559.795563 333.042579 
L 532.361094 321.338246 
L 525.111877 317.93104 
L 518.646757 314.66446 
L 512.834097 311.504644 
L 506.553646 307.823344 
L 500.868211 304.241345 
L 494.802783 300.171572 
L 487.645873 295.099773 
L 473.910844 284.982795 
L 464.341237 278.079552 
L 457.589912 273.464427 
L 451.510368 269.552252 
L 445.395104 265.882083 
L 439.223754 262.466278 
L 433.680925 259.652963 
L 428.079519 257.057238 
L 422.418162 254.685699 
L 416.697593 252.544738 
L 410.920441 250.640188 
L 405.090961 248.977006 
L 399.951549 247.722919 
L 394.039222 246.524067 
L 388.09268 245.577141 
L 382.119501 244.884843 
L 376.877449 244.489534 
L 370.876302 244.280209 
L 365.622826 244.30821 
L 360.373023 244.533892 
L 354.38518 245.034243 
L 349.162334 245.681327 
L 343.219686 246.660067 
L 338.048451 247.722919 
L 332.177512 249.171063 
L 326.354471 250.865198 
L 320.584008 252.799168 
L 314.870889 254.969645 
L 309.216916 257.369369 
L 303.623053 259.992835 
L 298.087342 262.832902 
L 292.604896 265.882083 
L 286.489632 269.552252 
L 280.410088 273.464427 
L 273.658763 278.079552 
L 265.472452 283.966371 
L 244.023991 299.599424 
L 237.131789 304.241345 
L 231.446354 307.823344 
L 225.165903 311.504644 
L 219.353243 314.66446 
L 212.888123 317.93104 
L 205.638906 321.338246 
L 197.478272 324.937407 
L 182.355233 331.294356 
L 171.779101 335.819162 
L 165.241859 338.809265 
L 158.805254 342.042149 
L 154.717049 344.343299 
L 150.92034 346.764495 
L 147.540757 349.30335 
L 146.051513 350.614729 
L 144.717637 351.951944 
L 143.557279 353.312976 
L 142.58772 354.695323 
L 141.822823 356.095941 
L 141.278109 357.511483 
L 140.964814 358.938131 
L 140.893273 360.371774 
L 141.070366 361.808016 
L 141.502065 363.242289 
L 142.189181 364.669899 
L 143.12991 366.086158 
L 144.321534 367.486439 
L 145.755329 368.866321 
L 147.422511 370.221599 
L 149.31085 371.548409 
L 151.406369 372.843264 
L 153.692511 374.103145 
L 158.768602 376.508074 
L 164.396065 378.748089 
L 170.430097 380.815319 
L 176.732858 382.708377 
L 183.182101 384.430983 
L 192.906662 386.712711 
L 202.45821 388.663878 
L 211.653979 390.325073 
L 223.177781 392.159182 
L 236.254177 393.961117 
L 250.005093 395.584879 
L 263.637754 396.957243 
L 278.023088 398.178531 
L 293.058849 399.230238 
L 308.862049 400.108779 
L 325.641116 400.803285 
L 340.904954 401.214575 
L 357.465496 401.476718 
L 369 401.529639 
L 369 401.529639 
" clip-path="url(#pd3fe80a14c)" style="fill: none; stroke: #95d0d8; stroke-width: 1.5; stroke-linecap: square"/>
   </g>
   <g id="line2d_23">
    <path d="M 369 404.690443 
L 386.447636 404.578593 
L 405.325604 404.225406 
L 422.794219 403.648312 
L 439.560514 402.872025 
L 454.934522 401.957698 
L 470.715754 400.802732 
L 485.067889 399.545013 
L 500.200844 397.982416 
L 512.752957 396.478626 
L 523.939718 394.957967 
L 536.153465 393.073666 
L 545.935311 391.36719 
L 556.144454 389.361521 
L 566.608442 387.012131 
L 573.601486 385.234596 
L 580.489772 383.276333 
L 587.149265 381.131159 
L 593.438556 378.797872 
L 599.201539 376.281464 
L 601.835955 374.95822 
L 604.279495 373.59455 
L 606.514687 372.193342 
L 608.522391 370.757862 
L 610.288605 369.291975 
L 611.800222 367.799905 
L 613.045893 366.286219 
L 614.018579 364.755787 
L 614.713008 363.213648 
L 615.129075 361.664932 
L 615.266748 360.114768 
L 615.133711 358.568131 
L 614.736013 357.029846 
L 614.085715 355.50439 
L 613.195778 353.995908 
L 612.081761 352.508101 
L 610.760958 351.044197 
L 609.250693 349.606991 
L 607.570854 348.198683 
L 603.77528 345.475611 
L 599.525805 342.883622 
L 594.961962 340.425043 
L 590.207709 338.097034 
L 582.937434 334.835501 
L 573.378038 330.867238 
L 541.281827 317.872459 
L 533.459551 314.364043 
L 526.489011 311.00127 
L 520.225658 307.749119 
L 513.464041 303.96053 
L 507.347503 300.275355 
L 500.831409 296.088754 
L 493.158032 290.872333 
L 481.464332 282.590273 
L 469.034133 273.870055 
L 461.876095 269.103461 
L 455.449505 265.062308 
L 448.999785 261.27129 
L 443.228803 258.120649 
L 437.409988 255.186174 
L 431.537053 252.475747 
L 425.607585 249.995658 
L 420.372552 248.019776 
L 414.337324 245.989967 
L 408.249919 244.20804 
L 402.884193 242.856393 
L 397.486044 241.700902 
L 392.05987 240.743956 
L 386.610313 239.988892 
L 381.142953 239.434946 
L 375.663004 239.084689 
L 370.176113 238.939019 
L 364.688003 238.997119 
L 359.20438 239.259822 
L 353.730898 239.726243 
L 348.273087 240.39548 
L 342.83636 241.266622 
L 337.425606 242.337137 
L 332.045346 243.604589 
L 326.700039 245.067473 
L 320.638222 246.974029 
L 314.630425 249.125814 
L 308.67964 251.518055 
L 302.785855 254.143196 
L 296.947636 256.995059 
L 291.159291 260.064988 
L 284.69635 263.770075 
L 278.265218 267.729198 
L 271.118432 272.410245 
L 262.450064 278.394081 
L 237.168591 296.088754 
L 230.652497 300.275355 
L 224.535959 303.96053 
L 217.774342 307.749119 
L 211.510989 311.00127 
L 204.540449 314.364043 
L 196.718173 317.872459 
L 187.899641 321.57968 
L 173.688584 327.258207 
L 159.885483 332.801284 
L 152.635417 335.893431 
L 145.397984 339.245014 
L 140.724631 341.637695 
L 136.3015 344.162928 
L 132.261201 346.821159 
L 130.429146 348.198683 
L 128.749307 349.606991 
L 127.239042 351.044197 
L 125.918239 352.508101 
L 124.804222 353.995908 
L 123.914285 355.50439 
L 123.263987 357.029846 
L 122.866289 358.568131 
L 122.733252 360.114768 
L 122.870925 361.664932 
L 123.286992 363.213648 
L 123.981421 364.755787 
L 124.954107 366.286219 
L 126.199778 367.799905 
L 127.711395 369.291975 
L 129.477609 370.757862 
L 131.485313 372.193342 
L 133.720505 373.59455 
L 136.164045 374.95822 
L 138.798461 376.281464 
L 144.561444 378.797872 
L 150.850735 381.131159 
L 157.510228 383.276333 
L 164.398514 385.234596 
L 171.391558 387.012131 
L 181.855546 389.361521 
L 192.064689 391.36719 
L 201.846535 393.073666 
L 214.060282 394.957967 
L 227.882454 396.811207 
L 242.39845 398.484727 
L 256.788943 399.903595 
L 271.990896 401.171208 
L 287.914592 402.267931 
L 304.704014 403.188608 
L 321.452142 403.881118 
L 337.756827 404.350053 
L 354.797533 404.616365 
L 369 404.690443 
L 369 404.690443 
" clip-path="url(#pd3fe80a14c)" style="fill: none; stroke: #c0e6e8; stroke-width: 1.5; stroke-linecap: square"/>
   </g>
   <g id="line2d_24">
    <path d="M 369 407.851246 
L 388.122925 407.740954 
L 406.222185 407.397275 
L 423.447618 406.860689 
L 440.078355 406.141036 
L 456.313214 405.237841 
L 471.844748 404.177019 
L 487.81944 402.868831 
L 502.923366 401.410081 
L 518.157973 399.695042 
L 532.680435 397.799996 
L 545.542799 395.875429 
L 555.878438 394.133126 
L 566.711426 392.084305 
L 577.88559 389.681451 
L 585.404563 387.859879 
L 592.864952 385.84871 
L 600.143526 383.639338 
L 607.096214 381.227729 
L 613.559059 378.61577 
L 616.554328 377.237404 
L 619.363672 375.813258 
L 621.965312 374.345835 
L 624.339193 372.838237 
L 626.466991 371.294117 
L 628.332124 369.71762 
L 629.920615 368.113348 
L 631.220244 366.486265 
L 632.223959 364.841665 
L 632.926483 363.18501 
L 633.32601 361.521867 
L 633.425064 359.857787 
L 633.228792 358.198202 
L 632.746661 356.548302 
L 631.990754 354.912956 
L 630.974914 353.296664 
L 629.717279 351.703387 
L 628.234332 350.136721 
L 626.546832 348.599605 
L 624.675561 347.094462 
L 622.640462 345.623255 
L 618.162816 342.78768 
L 613.272535 340.098612 
L 608.113575 337.555477 
L 602.809149 335.153035 
L 594.796778 331.79392 
L 584.381416 327.714158 
L 553.515438 315.865586 
L 544.736957 312.18992 
L 536.937875 308.683136 
L 529.958087 305.302496 
L 523.651292 302.020155 
L 516.794802 298.186969 
L 509.555743 293.838542 
L 502.02108 289.015294 
L 493.364412 283.197747 
L 469.856814 267.240371 
L 462.322114 262.477365 
L 455.550738 258.454067 
L 449.511007 255.099197 
L 443.435101 251.962658 
L 437.313658 249.051919 
L 431.14027 246.37566 
L 425.694356 244.231029 
L 419.419452 242.011884 
L 413.091696 240.046692 
L 407.514886 238.538362 
L 401.903901 237.231105 
L 396.262848 236.127054 
L 390.596022 235.229338 
L 384.908534 234.53872 
L 379.205448 234.057691 
L 373.492294 233.787105 
L 367.774714 233.726975 
L 362.058341 233.877301 
L 356.34881 234.238079 
L 350.651773 234.809291 
L 344.972445 235.588424 
L 339.316033 236.57468 
L 333.687432 237.766495 
L 328.090545 239.159998 
L 322.529271 240.753163 
L 316.221232 242.814881 
L 310.745155 244.824185 
L 304.538471 247.351435 
L 298.384931 250.116355 
L 292.281372 253.112595 
L 286.220696 256.332355 
L 279.438356 260.210495 
L 272.668162 264.346386 
L 265.113143 269.22837 
L 255.108587 275.994462 
L 235.97892 289.015294 
L 228.444257 293.838542 
L 221.205198 298.186969 
L 214.348708 302.020155 
L 208.041913 305.302496 
L 201.062125 308.683136 
L 193.263043 312.18992 
L 184.484562 315.865586 
L 174.56943 319.773541 
L 140.538333 332.882676 
L 132.527396 336.33715 
L 127.281812 338.809063 
L 122.239857 341.424711 
L 117.536818 344.187324 
L 113.324439 347.094462 
L 111.453168 348.599605 
L 109.765668 350.136721 
L 108.282721 351.703387 
L 107.025086 353.296664 
L 106.009246 354.912956 
L 105.253339 356.548302 
L 104.771208 358.198202 
L 104.574936 359.857787 
L 104.67399 361.521867 
L 105.073517 363.18501 
L 105.776041 364.841665 
L 106.779756 366.486265 
L 108.079385 368.113348 
L 109.667876 369.71762 
L 111.533009 371.294117 
L 113.660807 372.838237 
L 116.034688 374.345835 
L 118.636328 375.813258 
L 121.445672 377.237404 
L 124.440941 378.61577 
L 130.903786 381.227729 
L 137.856474 383.639338 
L 145.135048 385.84871 
L 152.595437 387.859879 
L 160.11441 389.681451 
L 171.288574 392.084305 
L 182.121562 394.133126 
L 192.457201 395.875429 
L 205.319565 397.799996 
L 219.842027 399.695042 
L 235.076634 401.410081 
L 250.18056 402.868831 
L 266.155252 404.177019 
L 282.924377 405.314153 
L 300.660326 406.273491 
L 318.419621 406.999554 
L 337.461917 407.52923 
L 353.705035 407.77147 
L 369 407.851246 
L 369 407.851246 
" clip-path="url(#pd3fe80a14c)" style="fill: none; stroke: #eafdfd; stroke-width: 1.5; stroke-linecap: square"/>
   </g>
  </g>
 </g>
 <defs>
  <clipPath id="pd3fe80a14c">
   <path d="M 646.2 363.6 
C 646.2 327.19843 639.029684 291.150818 625.099406 257.520153 
C 611.169128 223.889487 590.749797 193.329798 565.01 167.59 
C 539.270202 141.850203 508.710513 121.430872 475.079847 107.500594 
C 441.449182 93.570316 405.40157 86.4 369 86.4 
C 332.59843 86.4 296.550818 93.570316 262.920153 107.500594 
C 229.289487 121.430872 198.729798 141.850203 172.99 167.59 
C 147.250203 193.329798 126.830872 223.889487 112.900594 257.520153 
C 98.970316 291.150818 91.8 327.19843 91.8 363.6 
C 91.8 400.00157 98.970316 436.049182 112.900594 469.679847 
C 126.830872 503.310513 147.250203 533.870202 172.99 559.61 
C 198.729798 585.349797 229.289487 605.769128 262.920153 619.699406 
C 296.550818 633.629684 332.59843 640.8 369 640.8 
C 405.40157 640.8 441.449182 633.629684 475.079847 619.699406 
C 508.710513 605.769128 539.270202 585.349797 565.01 559.61 
C 590.749797 533.870202 611.169128 503.310513 625.099406 469.679847 
C 639.029684 436.049182 646.2 400.00157 646.2 363.6 
M 369 363.6 
C 369 363.6 369 363.6 369 363.6 
C 369 363.6 369 363.6 369 363.6 
C 369 363.6 369 363.6 369 363.6 
C 369 363.6 369 363.6 369 363.6 
C 369 363.6 369 363.6 369 363.6 
C 369 363.6 369 363.6 369 363.6 
C 369 363.6 369 363.6 369 363.6 
C 369 363.6 369 363.6 369 363.6 
C 369 363.6 369 363.6 369 363.6 
C 369 363.6 369 363.6 369 363.6 
C 369 363.6 369 363.6 369 363.6 
C 369 363.6 369 363.6 369 363.6 
C 369 363.6 369 363.6 369 363.6 
C 369 363.6 369 363.6 369 363.6 
C 369 363.6 369 363.6 369 363.6 
C 369 363.6 369 363.6 369 363.6 
M 646.2 363.6 
z
"/>
  </clipPath>
 </defs>
</svg>
